<svg xmlns="http://www.w3.org/2000/svg" width="2048" height="2048">
  <path d="m 551.38462,-4.9999999e-6 0,157.5384649999999 1417.84618,0 0,-157.5384649999999 -1417.84618,0 z m 0,315.0769249999999 0,157.53846 1417.84618,0 0,-157.53846 -1417.84618,0 z m 0,315.07692 0,157.53847 1417.84618,0 0,-157.53847 -1417.84618,0 z m 0,315.07693 0,157.53843 1417.84618,0 0,-157.53843 -1417.84618,0 z M -5e-6,1102.7692 l 0,472.6154 L 315.07691,1339.0769 -5e-6,1102.7692 Z m 393.846155,78.7693 0,315.0769 1654.15385,0 0,-315.0769 -1654.15385,0 z m 159.99999,78.7692 1417.84616,0 0,157.5384 -1417.84615,0 0,-157.5384 z m -2.46152,315.0769 0,157.5385 1417.84618,0 0,-157.5385 -1417.84618,0 z m 0,315.0769 0,157.5385 1417.84618,0 0,-157.5385 -1417.84618,0 z"/>
</svg>
