<?xml version="1.0" encoding="UTF-8" standalone="no"?>
<!-- Created with Inkscape (http://www.inkscape.org/) -->

<svg
   xmlns:dc="http://purl.org/dc/elements/1.1/"
   xmlns:cc="http://creativecommons.org/ns#"
   xmlns:rdf="http://www.w3.org/1999/02/22-rdf-syntax-ns#"
   xmlns:svg="http://www.w3.org/2000/svg"
   xmlns="http://www.w3.org/2000/svg"
   xmlns:sodipodi="http://sodipodi.sourceforge.net/DTD/sodipodi-0.dtd"
   xmlns:inkscape="http://www.inkscape.org/namespaces/inkscape"
   width="28"
   height="28.000004"
   id="svg3246"
   version="1.1"
   inkscape:version="0.48.4 r9939"
   sodipodi:docname="new.svg">
  <defs
     id="defs3248" />
  <sodipodi:namedview
     id="base"
     pagecolor="#ffffff"
     bordercolor="#666666"
     borderopacity="1.0"
     inkscape:pageopacity="0.0"
     inkscape:pageshadow="2"
     inkscape:zoom="11.313708"
     inkscape:cx="-7.0784006"
     inkscape:cy="12.951594"
     inkscape:document-units="px"
     inkscape:current-layer="layer1"
     showgrid="false"
     fit-margin-top="0"
     fit-margin-left="0"
     fit-margin-right="0"
     fit-margin-bottom="0"
     inkscape:window-width="1366"
     inkscape:window-height="744"
     inkscape:window-x="0"
     inkscape:window-y="24"
     inkscape:window-maximized="1"
     showguides="true"
     inkscape:guide-bbox="true" />
  <metadata
     id="metadata3251">
    <rdf:RDF>
      <cc:Work
         rdf:about="">
        <dc:format>image/svg+xml</dc:format>
        <dc:type
           rdf:resource="http://purl.org/dc/dcmitype/StillImage" />
        <dc:title />
      </cc:Work>
    </rdf:RDF>
  </metadata>
  <g
     inkscape:label="Camada 1"
     inkscape:groupmode="layer"
     id="layer1"
     transform="translate(-321.55359,-466.61219)">
    <g
       transform="matrix(-1,0,0,1,569.70332,18.552746)"
       id="g3246">
      <rect
         style="fill:#000080;fill-opacity:1;stroke:none"
         id="rect3248"
         width="0.75"
         height="4"
         x="328.26947"
         y="474.68845" />
      <g
         transform="matrix(0.97334969,0,0,0.78068482,85.102364,104.87812)"
         style="font-size:7.92323065px;font-style:normal;font-weight:normal;line-height:125%;letter-spacing:0px;word-spacing:0px;fill:#000080;fill-opacity:1;stroke:none;font-family:Sans"
         id="g3250">
        <path
           d="m 252.90721,474.34436 c -1e-5,0.27996 -0.037,0.53878 -0.11093,0.77648 -0.0687,0.23242 -0.17167,0.43314 -0.309,0.60217 -0.13206,0.16903 -0.29581,0.30108 -0.49124,0.39616 -0.19545,0.0951 -0.4173,0.14262 -0.66556,0.14262 -0.19544,0 -0.36711,-0.0238 -0.51501,-0.0713 -0.1479,-0.0475 -0.25882,-0.10036 -0.33277,-0.15847 l -0.65763,-3.42283 c 0.14262,-0.0423 0.32485,-0.0845 0.5467,-0.12678 0.22714,-0.0423 0.48596,-0.0634 0.77648,-0.0634 0.26411,0 0.50444,0.0449 0.72101,0.13469 0.21657,0.0898 0.40145,0.21922 0.55463,0.38824 0.15318,0.16375 0.27203,0.36447 0.35655,0.60217 0.0845,0.2377 0.12676,0.50445 0.12677,0.80024"
           style="font-variant:normal;font-stretch:normal;fill:#000080;font-family:Ubuntu Mono;-inkscape-font-specification:Ubuntu Mono"
           id="path3252"
           inkscape:connector-curvature="0"
           sodipodi:nodetypes="ccccsscccscccc" />
      </g>
      <path
         inkscape:connector-curvature="0"
         style="fill:#ffff00;fill-opacity:1;stroke:none"
         d="m 329.22993,474.4424 c -0.0861,0.009 -0.16062,0.0239 -0.21046,0.0356 l 0,1.30011 c 0.0634,0.0384 0.16705,0.0744 0.28939,0.10694 0.12239,0.0326 0.23691,0.0534 0.36831,0.0534 0.14954,0 0.29041,-0.015 0.39462,-0.0534 0.10875,-0.0384 0.19512,-0.0952 0.26309,-0.1603 0.0679,-0.0679 0.12615,-0.14294 0.15784,-0.23152 0.0318,-0.0917 0.0264,-0.19641 0.0264,-0.30277 0,-0.23931 -0.0645,-0.42211 -0.23676,-0.5521 -0.17218,-0.1329 -0.40763,-0.19591 -0.68403,-0.19591 -0.15404,0 -0.27768,-0.009 -0.36831,0 z"
         id="path3254" />
    </g>
    <g
       id="g3237">
      <rect
         y="467.61218"
         x="295.55359"
         height="25"
         width="21"
         id="rect3203"
         style="fill:#000000;fill-opacity:1;stroke:none" />
      <rect
         y="468.61218"
         x="296.55359"
         height="23"
         width="19"
         id="rect3211"
         style="fill:#ffffff;fill-opacity:1;stroke:none" />
      <rect
         y="467.61218"
         x="310.55359"
         height="6"
         width="6"
         id="rect3209"
         style="fill:#000000;fill-opacity:1;stroke:none" />
      <rect
         style="fill:#ffffff;fill-opacity:1;stroke:none"
         id="rect3207"
         width="4"
         height="4"
         x="311.55359"
         y="468.61218" />
      <rect
         y="467.61218"
         x="312.55359"
         height="4"
         width="4"
         id="rect3205"
         style="fill:#ffffff;fill-opacity:1;stroke:none" />
      <rect
         style="fill:#000000;fill-opacity:1;stroke:none"
         id="rect3213"
         width="1"
         height="1"
         x="312.55359"
         y="468.61218" />
      <rect
         y="470.61218"
         x="314.55359"
         height="1"
         width="1"
         id="rect3215"
         style="fill:#000000;fill-opacity:1;stroke:none" />
      <rect
         style="fill:#000000;fill-opacity:1;stroke:none"
         id="rect3217"
         width="1"
         height="1"
         x="313.55359"
         y="469.61218" />
    </g>
    <g
       id="g3527"
       transform="translate(-13.571428,-5.5357142)">
      <rect
         y="519.12109"
         x="331.04465"
         height="1.6964285"
         width="12.142858"
         id="rect3507"
         style="fill:#000080;fill-opacity:1;stroke:none" />
      <rect
         transform="matrix(0,1,-1,0,0,0)"
         style="fill:#000080;fill-opacity:1;stroke:none"
         id="rect3509"
         width="17.589287"
         height="1.6964285"
         x="520.77289"
         y="-332.69644" />
      <rect
         style="fill:#000080;fill-opacity:1;stroke:none"
         id="rect3511"
         width="14.107143"
         height="1.6964285"
         x="332.65179"
         y="536.62109" />
      <rect
         transform="matrix(0,-1,1,0,0,0)"
         y="345.01785"
         x="-536.57648"
         height="1.6964285"
         width="14.017858"
         id="rect3513"
         style="fill:#000080;fill-opacity:1;stroke:none" />
      <rect
         style="fill:#ffff00;fill-opacity:1;stroke:none"
         id="rect3515"
         width="3.3928576"
         height="3.4821429"
         x="-522.46936"
         y="343.23215"
         transform="matrix(0,-1,1,0,0,0)" />
      <rect
         y="522.60321"
         x="341.58035"
         height="1.6964285"
         width="3.4821434"
         id="rect3517"
         style="fill:#000080;fill-opacity:1;stroke:none" />
      <rect
         style="fill:#000080;fill-opacity:1;stroke:none"
         id="rect3519"
         width="1.5178577"
         height="1.6964285"
         x="341.58035"
         y="520.9068" />
      <rect
         style="fill:#000080;fill-opacity:1;stroke:none"
         id="rect3521"
         width="8.6607151"
         height="1.6964285"
         x="334.52679"
         y="526.08533" />
      <rect
         y="529.56744"
         x="334.52679"
         height="1.6964285"
         width="8.6607151"
         id="rect3523"
         style="fill:#000080;fill-opacity:1;stroke:none" />
      <rect
         style="fill:#000080;fill-opacity:1;stroke:none"
         id="rect3525"
         width="8.6607151"
         height="1.6964285"
         x="334.70535"
         y="533.13885" />
    </g>
    <g
       id="g3269">
      <rect
         style="fill:#000000;fill-opacity:1;stroke:none"
         id="rect3263"
         width="23"
         height="27"
         x="266.55359"
         y="466.61218" />
      <rect
         y="467.61218"
         x="267.55359"
         height="25"
         width="21"
         id="rect3265"
         style="fill:#b2dbc5;fill-opacity:1;stroke:none" />
      <rect
         style="fill:#353c91;fill-opacity:1;stroke:none"
         id="rect3267"
         width="22"
         height="6"
         x="266.55359"
         y="481.61218" />
      <rect
         y="483.61218"
         x="262.55359"
         height="3"
         width="3"
         id="rect3247"
         style="fill:#000000;fill-opacity:1;stroke:none" />
      <rect
         style="fill:#000000;fill-opacity:1;stroke:none"
         id="rect3249"
         width="1"
         height="5"
         x="262.55359"
         y="482.61218" />
      <rect
         style="fill:#000000;fill-opacity:1;stroke:none"
         id="rect3251"
         width="4"
         height="1"
         x="262.55359"
         y="484.61221" />
      <rect
         y="470.61218"
         x="269.55359"
         height="1"
         width="16"
         id="rect3253"
         style="fill:#000000;fill-opacity:1;stroke:none" />
      <rect
         style="fill:#000000;fill-opacity:1;stroke:none"
         id="rect3255"
         width="16"
         height="1"
         x="269.55359"
         y="475.61218" />
      <rect
         y="479.61218"
         x="269.55359"
         height="1"
         width="16"
         id="rect3257"
         style="fill:#000000;fill-opacity:1;stroke:none" />
      <rect
         style="fill:#000000;fill-opacity:1;stroke:none"
         id="rect3259"
         width="16"
         height="1"
         x="269.55359"
         y="484.61218" />
      <rect
         y="488.61218"
         x="269.55359"
         height="1"
         width="16"
         id="rect3261"
         style="fill:#000000;fill-opacity:1;stroke:none" />
    </g>
    <g
       transform="translate(30.688375,6.1760333)"
       id="g3308">
      <rect
         transform="matrix(0,-1,1,0,0,0)"
         y="330.55359"
         x="-486.61218"
         height="15"
         width="19"
         id="rect3310"
         style="fill:#ffff00;fill-opacity:1;stroke:none" />
      <rect
         style="fill:#000080;fill-opacity:1;stroke:none"
         id="rect3312"
         width="4"
         height="4"
         x="-470.61218"
         y="342.55359"
         transform="matrix(0,-1,1,0,0,0)" />
      <path
         sodipodi:nodetypes="cccc"
         inkscape:connector-curvature="0"
         id="path3314"
         d="m -466.61218,342.55359 0,4 -4,0 z"
         style="fill:#ffff00;fill-opacity:1;stroke:none"
         transform="matrix(0,-1,1,0,0,0)" />
      <rect
         y="466.61218"
         x="329.55359"
         height="1.0000011"
         width="13"
         id="rect3316"
         style="fill:#000080;fill-opacity:1;stroke:none" />
      <rect
         style="fill:#000080;fill-opacity:1;stroke:none"
         id="rect3318"
         width="16"
         height="1"
         x="330.55359"
         y="486.61218" />
      <rect
         y="470.61218"
         x="341.55359"
         height="1"
         width="4"
         id="rect3320"
         style="fill:#000080;fill-opacity:1;stroke:none" />
      <rect
         style="fill:#000080;fill-opacity:1;stroke:none"
         id="rect3322"
         width="1"
         height="3"
         x="341.55359"
         y="467.61218" />
      <rect
         style="fill:#000080;fill-opacity:1;stroke:none"
         id="rect3324"
         width="9"
         height="1"
         x="333.55359"
         y="474.61218" />
      <rect
         y="478.61218"
         x="333.55359"
         height="1"
         width="9"
         id="rect3326"
         style="fill:#000080;fill-opacity:1;stroke:none" />
      <rect
         style="fill:#000080;fill-opacity:1;stroke:none"
         id="rect3328"
         width="9"
         height="1"
         x="333.55359"
         y="482.61218" />
      <rect
         transform="matrix(0,1,-1,0,0,0)"
         style="fill:#000080;fill-opacity:1;stroke:none"
         id="rect3330"
         width="20"
         height="1"
         x="467.61218"
         y="-330.55359" />
      <rect
         transform="matrix(0,-1,1,0,0,0)"
         y="345.55359"
         x="-486.61218"
         height="1"
         width="16"
         id="rect3332"
         style="fill:#000080;fill-opacity:1;stroke:none" />
    </g>
    <path
       style="fill:#000000;fill-opacity:1;stroke:none"
       d="M 3,1 3,27 25,27 25,6 20,1 z M 5,3 19,3 19,7 19.65625,7 23,7 23,20.5 c -0.102183,0.121898 -0.187301,0.27035 -0.25,0.4375 l 0,-0.34375 0,-0.59375 -0.75,0 0,3 0.75,0 0,-0.75 c 0,-0.443299 0.0845,-0.797997 0.25,-1.0625 L 23,25 l -4.25,0 0,-2.15625 c 0.0631,0.0276 0.12523,0.06975 0.21875,0.09375 0.14396,0.0371 0.30977,0.0625 0.5,0.0625 0.24164,0 0.46601,-0.0508 0.65625,-0.125 0.19022,-0.0742 0.34021,-0.14929 0.46875,-0.28125 0.13367,-0.13196 0.2456,-0.31856 0.3125,-0.5 C 20.97825,21.90818 21,21.71856 21,21.5 21,21.26908 20.9572,21.06057 20.875,20.875 20.7927,20.68943 20.68035,20.53409 20.53125,20.40625 20.38216,20.2743 20.2108,20.16385 20,20.09375 19.7892,20.02375 19.53832,20 19.28125,20 c -0.28278,0 -0.52891,0.0295 -0.75,0.0625 C 18.31531,20.0955 18.13882,20.12325 18,20.15625 L 18,25 5,25 z M 19.65625,7 C 19.39404,7 19.1744,7.0464 18.96875,7.125 18.76309,7.19925 18.58146,7.30212 18.4375,7.4375 18.29868,7.57287 18.17075,7.71847 18.09375,7.90625 18.02188,8.08965 18,8.30854 18,8.53125 c 0,0.25326 0.0479,0.46847 0.125,0.65625 0.08226,0.1834 0.17882,0.34647 0.3125,0.46875 0.13882,0.1179 0.2888,0.1889 0.46875,0.25 C 19.09134,9.96305 19.28919,10 19.5,10 c 0.19536,0 0.38215,-0.0233 0.53125,-0.0625 0.0952,-0.025123 0.154989,-0.039198 0.21875,-0.0625 l 0,0.25 0,0.15625 c -10e-6,0.3851 -0.0906,0.64068 -0.28125,0.8125 -0.19068,0.17184 -0.27587,0.28125 -0.71875,0.28125 -0.24604,0 -0.32212,-0.021 -0.53125,-0.0625 C 18.51577,11.271 18.40994,11.19016 18.25,11.125 l -0.15625,0.65625 c 0.17222,0.0592 0.30982,0.11473 0.53125,0.15625 C 18.85259,11.979 18.97321,12 19.25,12 c 0.67661,0 0.91784,-0.15312 1.25,-0.4375 0.33831,-0.28437 0.5,-0.73514 0.5,-1.375 L 21,9.875 21,8.84375 21,7.15625 C 20.85091,7.12135 20.65858,7.0974 20.4375,7.0625 20.22156,7.0232 19.96473,7 19.65625,7 z M 7.28125,7 C 6.99847,7 6.75234,7.0295 6.53125,7.0625 6.31531,7.0955 6.13882,7.12325 6,7.15625 L 6,12 l 0.75,0 0,-2.15625 C 6.8131433,9.8713471 6.875235,9.9133985 6.96875,9.9375 7.11271,9.9746 7.27852,10 7.46875,10 7.71039,10 7.93476,9.9492 8.125,9.875 8.31522,9.80077 8.46521,9.72571 8.59375,9.59375 8.72742,9.46179 8.83935,9.27519 8.90625,9.09375 8.97823,8.90818 8.99999,8.71856 9,8.5 8.99999,8.26908 8.9572,8.06057 8.875,7.875 8.79273,7.68943 8.68035,7.53409 8.53125,7.40625 8.38215,7.2743 8.2108,7.16385 8,7.09375 7.7892,7.0237 7.53832,7 7.28125,7 z M 10,7 l 0,3 0.75,0 0,-0.75 c 0,-0.5186424 0.119239,-0.9129148 0.34375,-1.1875 0.224502,-0.2745655 0.544407,-0.40625 0.96875,-0.40625 0.180099,0 0.349497,0.00907 0.5,0.0625 0.150484,0.053397 0.291933,0.1330529 0.4375,0.25 l 0,-0.6875 C 12.866772,7.1897249 12.739308,7.1057736 12.59375,7.0625 12.448183,7.0192264 12.292769,7 12.125,7 11.801811,7 11.518082,7.0872854 11.28125,7.25 11.046867,7.4101714 10.863485,7.6349594 10.75,7.9375 L 10.75,7 z m 5.5,0 c -0.21429,10e-6 -0.40804,0.0509 -0.59375,0.125 -0.18095,0.06996 -0.36667,0.14957 -0.5,0.28125 C 14.27292,7.53382 14.16995,7.68981 14.09375,7.875 14.0223,8.06018 14,8.27366 14,8.5 c 0,0.22634 0.02235,0.43982 0.09375,0.625 0.07618,0.18107 0.17917,0.33706 0.3125,0.46875 0.13333,0.13169 0.31905,0.2384 0.5,0.3125 C 15.09196,9.97618 15.28571,10 15.5,10 c 0.21905,0 0.40803,-0.02375 0.59375,-0.09375 0.18571,-0.07408 0.36667,-0.18081 0.5,-0.3125 C 16.72709,9.46206 16.8036,9.30607 16.875,9.125 16.95118,8.93982 17,8.72634 17,8.5 17,8.27366 16.9512,8.06018 16.875,7.875 16.80357,7.68981 16.72709,7.53382 16.59375,7.40625 16.46042,7.27457 16.27946,7.195 16.09375,7.125 15.90803,7.05098 15.71905,7.00001 15.5,7 z m 4.125,0.6875 c 0.1629,0 0.31125,0.01845 0.40625,0.03125 C 20.12627,7.72835 20.1957,7.7372 20.25,7.75 l 0,1.3125 C 20.17307,9.10096 20.0642,9.12745 19.9375,9.15625 19.81532,9.18515 19.70277,9.1875 19.5625,9.1875 19.45391,9.1875 19.345,9.18195 19.25,9.15625 19.15498,9.12741 19.0769,9.08895 19,9.03125 18.9276,8.97035 18.8578,8.9022 18.8125,8.8125 18.7718,8.71955 18.75,8.59696 18.75,8.46875 18.75,8.23478 18.81942,8.04728 18.96875,7.90625 19.12259,7.7652 19.33541,7.68751 19.625,7.6875 z M 6.96875,7.75 c 0.09063,-0.009 0.22096,0 0.375,0 C 7.62015,7.75 7.82782,7.8046 8,7.9375 8.17226,8.06749 8.25,8.26069 8.25,8.5 8.25,8.60636 8.25055,8.7208 8.21875,8.8125 8.18706,8.90108 8.1304,8.96335 8.0625,9.03125 7.99453,9.09635 7.92125,9.1491 7.8125,9.1875 7.70829,9.2259 7.55579,9.25 7.40625,9.25 7.27485,9.25 7.15364,9.2201 7.03125,9.1875 6.90891,9.15496 6.8134,9.13215 6.75,9.09375 l 0,-1.3125 C 6.79984,7.76955 6.88265,7.759 6.96875,7.75 z m 8.53125,0 c 0.23201,0 0.39525,0.08306 0.53125,0.21875 C 16.16725,8.1015 16.25,8.26696 16.25,8.5 16.25,8.73009 16.16725,8.92681 16.03125,9.0625 15.89525,9.19522 15.73201,9.25 15.5,9.25 15.272,9.25 15.07349,9.19525 14.9375,9.0625 14.80549,8.92681 14.75,8.73009 14.75,8.5 14.75,8.26696 14.8055,8.1015 14.9375,7.96875 15.07349,7.83311 15.272,7.75 15.5,7.75 z M 13,11 l 0,3 -3,0 0,2 3,0 0,3 2,0 0,-3 3,0 0,-2 -3,0 0,-3 z m -4.78125,7 c -0.31692,0.0466 -0.57677,0.18864 -0.75,0.375 C 7.24049,18.62349 7.125,19.00572 7.125,19.53125 l 0,0.3125 L 7.125,20 6,20 l 0,0.75 1.125,0 0,2.25 0.75,0 0,-2.25 1.125,0 0,-0.75 -1.125,0 0,-0.15625 0,-0.40625 c 0,-0.29418 0.053,-0.51074 0.15625,-0.625 0.10597,-0.11715 0.29348,-0.15625 0.5625,-0.15625 L 9,18.65625 9,18 8.5625,18 c -0.1216,10e-6 -0.23811,-0.0155 -0.34375,0 z M 11.5,18.25 c -0.20711,0 -0.375,0.16789 -0.375,0.375 0,0.20711 0.16789,0.375 0.375,0.375 0.2071,0 0.375,-0.16789 0.375,-0.375 0,-0.20711 -0.1679,-0.375 -0.375,-0.375 z m -0.375,1.75 0,3 0.75,0 0,-3 z m 3.71875,0 C 14.57769,20 14.30121,20.0886 14,20.25 l 0.03125,2.75 0.71875,0 0,-2.15625 c 0.0625,-0.0629 0.1375,-0.09374 0.1875,-0.09375 0.07995,10e-6 0.12875,0.07843 0.15625,0.21875 0.0283,0.14032 0.03125,0.31693 0.03125,0.5625 l 0,0.46875 0.75,0 0,-0.46875 c 0,-0.19644 -0.0069,-0.36891 -0.03125,-0.53125 -0.0052,-0.03497 -0.02336,-0.06076 -0.03125,-0.09375 0.01794,-0.02448 0.03892,-0.04148 0.0625,-0.0625 0.0625,-0.0629 0.1375,-0.09374 0.1875,-0.09375 0.07995,10e-6 0.12875,0.07843 0.15625,0.21875 0.0283,0.14032 0.03125,0.31693 0.03125,0.5625 L 16.25,23 17,23 17,21.53125 C 17,21.27867 16.96515,21.06444 16.90625,20.875 16.84725,20.68557 16.78773,20.5013 16.6875,20.375 16.5932,20.24872 16.47346,20.15695 16.34375,20.09375 16.21992,20.03065 16.07901,20 15.9375,20 15.747391,20 15.580689,20.079209 15.40625,20.1875 15.355929,20.153022 15.30271,20.116414 15.25,20.09375 15.12449,20.03065 14.98934,20 14.84375,20 z m 4.125,0.75 c 0.0906,-0.009 0.22096,0 0.375,0 0.2764,0 0.48407,0.0546 0.65625,0.1875 0.17226,0.12999 0.25,0.32319 0.25,0.5625 0,0.10636 6e-4,0.2208 -0.03125,0.3125 -0.0317,0.0886 -0.0883,0.15085 -0.15625,0.21875 -0.068,0.0651 -0.14125,0.11785 -0.25,0.15625 -0.10421,0.0384 -0.25671,0.0625 -0.40625,0.0625 -0.1314,0 -0.25261,-0.0299 -0.375,-0.0625 C 18.90891,22.155 18.8134,22.13215 18.75,22.09375 l 0,-1.3125 c 0.0498,-0.0117 0.13265,-0.02215 0.21875,-0.03125 z"
       transform="translate(321.55359,466.61219)"
       id="path3637"
       inkscape:connector-curvature="0"
       sodipodi:nodetypes="ccccccccccccccccccscccccscccscccscccccscccscccscccccsccccscsccccssccccccscccccccscccscsccccsccccccccscscscccscccccccccscccscccscscccsccccscscscscscccccccccccccccsccccccccccccscsccccssssscccccsccccccsccssccccsccscccsccscscscccscccc" />
    <g
       id="g3639"
       transform="translate(12,13.000004)">
      <g
         id="g3641"
         style="font-size:7.92323065px;font-style:normal;font-weight:normal;line-height:125%;letter-spacing:0px;word-spacing:0px;fill:#000080;fill-opacity:1;stroke:none;font-family:Sans"
         transform="matrix(0.95654725,0,0,0.985731,90.98958,6.24144)" />
      <g
         id="g3645"
         style="font-size:7.92323065px;font-style:normal;font-weight:normal;line-height:125%;letter-spacing:0px;word-spacing:0px;fill:#000080;fill-opacity:1;stroke:none;font-family:Sans"
         transform="matrix(1.0478958,0,0,0.69235776,65.649265,147.43482)" />
    </g>
    <path
       inkscape:connector-curvature="0"
       id="path3604"
       d="m 323.84648,431.19619 0,2 0,24 2,0 20,0 0,-2 0,-19 -5,-5 -17,0 z m 2,2 13,0 0,3 0,2 5,0 0,17 -18,0 0,-22 z m 2,7 0,2 14,0 0,-2 -14,0 z m 0,5 0,2 14,0 0,-2 -14,0 z m 0,5 0,2 14,0 0,-2 -14,0 z"
       style="fill:#000000;fill-opacity:1;stroke:none" />
    <text
       xml:space="preserve"
       style="font-size:7.92323065px;font-style:normal;font-weight:normal;line-height:125%;letter-spacing:0px;word-spacing:0px;fill:#ff00ff;fill-opacity:1;stroke:none;font-family:Sans"
       x="347.71454"
       y="455.87814"
       id="text3805"
       sodipodi:linespacing="125%"
       transform="scale(1.0189275,0.9814241)"><tspan
         sodipodi:role="line"
         id="tspan3807"
         x="347.71454"
         y="455.87814"
         style="font-style:normal;font-variant:normal;font-weight:normal;font-stretch:normal;fill:#ff00ff;font-family:Ubuntu Mono;-inkscape-font-specification:Ubuntu Mono">prog</tspan></text>
    <text
       sodipodi:linespacing="125%"
       id="text3809"
       y="448.71494"
       x="363.57166"
       style="font-size:7.92459488px;font-style:normal;font-weight:normal;line-height:125%;letter-spacing:0px;word-spacing:0px;fill:#ff00ff;fill-opacity:1;stroke:none;font-family:Sans"
       xml:space="preserve"
       transform="scale(0.97472518,1.0259302)"><tspan
         style="font-style:normal;font-variant:normal;font-weight:normal;font-stretch:normal;fill:#ff00ff;font-family:Ubuntu Mono;-inkscape-font-specification:Ubuntu Mono"
         y="448.71494"
         x="363.57166"
         id="tspan3811"
         sodipodi:role="line">fimprog</tspan></text>
    <path
       inkscape:connector-curvature="0"
       id="path3054"
       d="m 349.30233,500.66943 0,2 0,24 2,0 20,0 0,-2 0,-19 -5,-5 -17,0 z m 2,2 13,0 1,0 0,4 0,1 1,0 0,-1 3,0 0,1 0,12 -1,0 0,3 1,0 0,2 -4,0 0,-2 1,0 0,-1 -1,0 0,-1 1,0 0,-1 -2,0 0,1 0,4 -13,0 0,-18 0,-4 z m 15,18 0,1 1,0 0,-1 -1,0 z m 0,-13 0,1 -1,0 0,1 1,0 0,1 1,0 0,-3 -1,0 z m 0,3 -2,0 0,1 2,0 0,-1 z m -1,-2 0,-1 -1,0 0,1 1,0 z m -13,-2 0,1 0,4 1,0 0,-2 1,0 0,-1 -1,0 0,-1 1,0 0,-1 -2,0 z m 2,1 0,1 1,0 0,-1 -1,0 z m 2,-1 0,3 1,0 0,-1 1,0 0,-1 -1,0 0,-1 -1,0 z m 2,1 1,0 0,-1 -1,0 0,1 z m 3,-1 0,1 1,0 0,-1 -1,0 z m 1,1 0,1 1,0 0,-1 -1,0 z m 0,1 -1,0 0,1 1,0 0,-1 z m -2.03125,-1 0,0.90625 0.96875,0 0,-0.90625 -0.96875,0 z m -0.96875,3 0,3 -3,0 0,2 3,0 0,3 2,0 0,-3 3,0 0,-2 -3,0 0,-3 -2,0 z m -5,7 0,1 1,0 0,-1 -1,0 z m 0,1 -1,0 0,1 -1,0 0,1 1,0 0,2 1,0 0,-2 1,0 0,-1 -1,0 0,-1 z m 2,-1 0,1 1,0 0,-1 -1,0 z m 0,2 0,3 1,0 0,-3 -1,0 z m 2,0 0,3 1,0 0,-2 1,0 0,-1 -1,0 -1,0 z m 2,1 0,2 1,0 0,-2 -1,0 z m 1,0 1,0 0,-1 -1,0 0,1 z m 1,0 0,2 1,0 0,-2 -1,0 z"
       style="fill:#000000;fill-opacity:1;stroke:none" />
    <text
       transform="scale(1.0189275,0.9814241)"
       sodipodi:linespacing="125%"
       id="text3056"
       y="451.91544"
       x="249.51755"
       style="font-size:7.92323065px;font-style:normal;font-weight:normal;line-height:125%;letter-spacing:0px;word-spacing:0px;fill:#ff00ff;fill-opacity:1;stroke:none;font-family:Sans"
       xml:space="preserve"><tspan
         style="font-style:normal;font-variant:normal;font-weight:normal;font-stretch:normal;fill:#ff00ff;font-family:Monospace;-inkscape-font-specification:Monospace"
         y="451.91544"
         x="249.51755"
         id="tspan3058"
         sodipodi:role="line">prog</tspan></text>
    <text
       transform="scale(0.97472518,1.0259302)"
       xml:space="preserve"
       style="font-size:7.92459488px;font-style:normal;font-weight:normal;line-height:125%;letter-spacing:0px;word-spacing:0px;fill:#ff00ff;fill-opacity:1;stroke:none;font-family:Sans"
       x="260.92157"
       y="444.92413"
       id="text3060"
       sodipodi:linespacing="125%"><tspan
         sodipodi:role="line"
         id="tspan3062"
         x="260.92157"
         y="444.92413"
         style="font-style:normal;font-variant:normal;font-weight:normal;font-stretch:normal;fill:#ff00ff;font-family:Monospace;-inkscape-font-specification:Monospace">fimprog</tspan></text>
    <text
       transform="scale(1.0189275,0.9814241)"
       sodipodi:linespacing="125%"
       id="text3064"
       y="475.42145"
       x="231.4743"
       style="font-size:7.92323065px;font-style:normal;font-weight:normal;line-height:125%;letter-spacing:0px;word-spacing:0px;fill:#ff00ff;fill-opacity:1;stroke:none;font-family:Sans"
       xml:space="preserve"><tspan
         style="font-style:normal;font-variant:normal;font-weight:normal;font-stretch:normal;fill:#ff00ff;font-family:Ubuntu Mono;-inkscape-font-specification:Ubuntu Mono"
         y="475.42145"
         x="231.4743"
         id="tspan3066"
         sodipodi:role="line">prog</tspan></text>
    <g
       id="g3512"
       style="fill:#000000">
      <g
         transform="matrix(0.95654725,0,0,0.985731,90.98958,6.24144)"
         style="font-size:7.92323064999999982px;font-style:normal;font-weight:normal;line-height:125%;letter-spacing:0px;word-spacing:0px;fill:#000000;fill-opacity:1;stroke:none;font-family:Sans"
         id="g3140" />
      <g
         transform="matrix(1.0478958,0,0,0.69235776,65.649265,147.43482)"
         style="font-size:7.92323064999999982px;font-style:normal;font-weight:normal;line-height:125%;letter-spacing:0px;word-spacing:0px;fill:#000000;fill-opacity:1;stroke:none;font-family:Sans"
         id="g3146">
        <path
           sodipodi:nodetypes="cccccc"
           inkscape:connector-curvature="0"
           d="m 254.46645,473.28914 0,2.1549 -0.71572,0 0,-4.33302 0.71572,0 0,0.84726"
           style="font-variant:normal;font-stretch:normal;fill:#000000;font-family:Monospace;-inkscape-font-specification:Monospace"
           id="path3148" />
      </g>
    </g>
    <text
       xml:space="preserve"
       style="font-size:7.92323065px;font-style:normal;font-weight:normal;line-height:125%;letter-spacing:0px;word-spacing:0px;fill:#ff00ff;fill-opacity:1;stroke:none;font-family:Sans"
       x="240.12311"
       y="490.22775"
       id="text3221"
       sodipodi:linespacing="125%"
       transform="scale(1.0189275,0.9814241)"><tspan
         sodipodi:role="line"
         id="tspan3223"
         x="240.12311"
         y="490.22775"
         style="font-style:normal;font-variant:normal;font-weight:normal;font-stretch:normal;fill:#ff00ff;font-family:Ubuntu Mono;-inkscape-font-specification:Ubuntu Mono">g</tspan></text>
    <g
       transform="scale(1.0189275,0.9814241)"
       style="font-size:7.92323065px;font-style:normal;font-weight:normal;line-height:125%;letter-spacing:0px;word-spacing:0px;fill:#ff00ff;fill-opacity:1;stroke:none;font-family:Sans"
       id="text3225">
      <path
         style="font-variant:normal;font-stretch:normal;fill:#ff00ff;font-family:Ubuntu Mono;-inkscape-font-specification:Ubuntu Mono"
         d="m -72.59375,20.5 0,2.09375 0.65625,0.65625 0,-3.21875 z"
         transform="matrix(0.9814241,0,0,1.0189275,315.58044,475.44399)"
         id="path3236"
         inkscape:connector-curvature="0"
         sodipodi:nodetypes="ccccc" />
    </g>
    <text
       sodipodi:linespacing="125%"
       id="text3275"
       y="505.92142"
       x="257.83844"
       style="font-size:7.92459488px;font-style:normal;font-weight:normal;line-height:125%;letter-spacing:0px;word-spacing:0px;fill:#ff00ff;fill-opacity:1;stroke:none;font-family:Sans"
       xml:space="preserve"
       transform="scale(0.97472518,1.0259302)"><tspan
         style="font-style:normal;font-variant:normal;font-weight:normal;font-stretch:normal;fill:#ff00ff;font-family:Monospace;-inkscape-font-specification:Monospace"
         y="505.92142"
         x="257.83844"
         id="tspan3277"
         sodipodi:role="line">f</tspan></text>
    <g
       transform="scale(0.97472518,1.0259302)"
       style="font-size:7.92459488px;font-style:normal;font-weight:normal;line-height:125%;letter-spacing:0px;word-spacing:0px;fill:#ff00ff;fill-opacity:1;stroke:none;font-family:Sans"
       id="text3279">
      <path
         d="m 278.77933,502.83022 0,3.78044 -0.71198,0 0,-3.78044"
         style="font-variant:normal;font-stretch:normal;fill:#ff00ff;font-family:Monospace;-inkscape-font-specification:Monospace"
         id="path3284"
         inkscape:connector-curvature="0"
         sodipodi:nodetypes="cccc" />
    </g>
    <text
       transform="scale(0.97472518,1.0259302)"
       xml:space="preserve"
       style="font-size:8.56423092px;font-style:normal;font-weight:normal;line-height:125%;letter-spacing:0px;word-spacing:0px;fill:#ff00ff;fill-opacity:1;stroke:none;font-family:Sans"
       x="238.3271"
       y="518.39832"
       id="text3286"
       sodipodi:linespacing="125%"><tspan
         sodipodi:role="line"
         id="tspan3288"
         x="238.3271"
         y="518.39832"
         style="font-style:normal;font-variant:normal;font-weight:normal;font-stretch:normal;fill:#ff00ff;font-family:Monospace;-inkscape-font-specification:Monospace">f</tspan></text>
    <text
       transform="scale(1.0396131,0.96189629)"
       xml:space="preserve"
       style="font-size:6.77593279px;font-style:normal;font-weight:normal;line-height:125%;letter-spacing:0px;word-spacing:0px;fill:#00ffff;fill-opacity:1;stroke:none;font-family:Sans"
       x="313.46552"
       y="523.52264"
       id="text3304"
       sodipodi:linespacing="125%"><tspan
         sodipodi:role="line"
         id="tspan3306"
         x="313.46552"
         y="523.52264"
         style="font-style:normal;font-variant:normal;font-weight:normal;font-stretch:normal;fill:#00ffff;font-family:Monospace;-inkscape-font-specification:Monospace">f</tspan></text>
    <text
       sodipodi:linespacing="125%"
       id="text3308"
       y="523.52264"
       x="313.46552"
       style="font-size:6.77593279px;font-style:normal;font-weight:normal;line-height:125%;letter-spacing:0px;word-spacing:0px;fill:#00ffff;fill-opacity:1;stroke:none;font-family:Sans"
       xml:space="preserve"
       transform="scale(1.0396131,0.96189629)"><tspan
         style="font-style:normal;font-variant:normal;font-weight:normal;font-stretch:normal;fill:#00ffff;font-family:Monospace;-inkscape-font-specification:Monospace"
         y="523.52264"
         x="313.46552"
         id="tspan3310"
         sodipodi:role="line">f</tspan></text>
    <rect
       y="499.60022"
       x="326.56601"
       height="4"
       width="0.75"
       id="rect3296"
       style="fill:#000080;fill-opacity:1;stroke:none" />
    <path
       id="path3302"
       d="m 327.52645,499.35417 c -0.0861,0.009 -0.16062,0.0239 -0.21046,0.0356 l 0,1.30011 c 0.0634,0.0384 0.16705,0.0744 0.28939,0.10694 0.12239,0.0326 0.23691,0.0534 0.36831,0.0534 0.14954,0 0.29041,-0.015 0.39462,-0.0534 0.10875,-0.0384 0.19512,-0.0952 0.26309,-0.1603 0.0679,-0.0679 0.12615,-0.14294 0.15784,-0.23152 0.0318,-0.0917 0.0264,-0.19641 0.0264,-0.30277 0,-0.23931 -0.0645,-0.42211 -0.23676,-0.5521 -0.17218,-0.1329 -0.40763,-0.19591 -0.68403,-0.19591 -0.15404,0 -0.27768,-0.009 -0.36831,0 z"
       style="fill:#ffff00;fill-opacity:1;stroke:none"
       inkscape:connector-curvature="0" />
    <g
       transform="translate(106.04844,30.162905)"
       id="g3375">
      <g
         transform="matrix(0.90151003,0,0,0.77908115,25.064358,94.575254)"
         style="font-size:7.92323065px;font-style:normal;font-weight:normal;line-height:125%;letter-spacing:0px;word-spacing:0px;fill:#000080;fill-opacity:1;stroke:none;font-family:Sans"
         id="g3377">
        <path
           d="m 224.31906,484.36811 c 0,0.29052 -0.0423,0.55463 -0.12677,0.79232 -0.0792,0.23242 -0.1928,0.43314 -0.3407,0.60217 -0.1479,0.16903 -0.32485,0.30108 -0.53085,0.39616 -0.20601,0.0898 -0.4305,0.13469 -0.67348,0.13469 -0.2377,0 -0.45955,-0.0449 -0.66555,-0.13469 -0.20072,-0.0951 -0.37503,-0.22713 -0.52293,-0.39616 -0.1479,-0.16903 -0.26411,-0.36975 -0.34862,-0.60217 -0.0792,-0.23769 -0.11885,-0.5018 -0.11885,-0.79232 0,-0.29052 0.0396,-0.55462 0.11885,-0.79232 0.0845,-0.2377 0.20072,-0.43842 0.34862,-0.60217 0.1479,-0.16902 0.32221,-0.29844 0.52293,-0.38824 0.206,-0.0951 0.42785,-0.14261 0.66555,-0.14262 0.24298,10e-6 0.46747,0.0476 0.67348,0.14262 0.206,0.0898 0.38295,0.21922 0.53085,0.38824 0.1479,0.16375 0.26147,0.36447 0.3407,0.60217 0.0845,0.2377 0.12677,0.5018 0.12677,0.79232"
           style="font-variant:normal;font-stretch:normal;fill:#000080;font-family:Ubuntu Mono;-inkscape-font-specification:Ubuntu Mono"
           id="path3379"
           inkscape:connector-curvature="0"
           sodipodi:nodetypes="ccscscscscccccccc" />
      </g>
      <g
         transform="matrix(0.75726597,0,0,0.55845539,52.549887,201.44154)"
         style="font-size:7.92323065px;font-style:normal;font-weight:normal;line-height:125%;letter-spacing:0px;word-spacing:0px;fill:#ff00ff;fill-opacity:1;stroke:none;font-family:Sans"
         id="g3381">
        <path
           d="m 229.76122,484.36811 c 0,-0.41729 -0.0898,-0.74478 -0.26939,-0.98248 -0.1796,-0.24298 -0.42257,-0.36447 -0.72894,-0.36447 -0.30108,0 -0.54142,0.12149 -0.72101,0.36447 -0.17431,0.2377 -0.26147,0.56519 -0.26147,0.98248 0,0.41201 0.0872,0.7395 0.26147,0.98248 0.17959,0.2377 0.41993,0.35655 0.72101,0.35655 0.30637,0 0.54934,-0.11885 0.72894,-0.35655 0.17959,-0.24298 0.26939,-0.57047 0.26939,-0.98248"
           style="font-variant:normal;font-stretch:normal;fill:#ffff00;font-family:Ubuntu Mono;-inkscape-font-specification:Ubuntu Mono"
           id="path3383"
           inkscape:connector-curvature="0"
           sodipodi:nodetypes="ccscscscc" />
      </g>
    </g>
    <g
       id="g3446"
       style="font-size:10.25817394px;font-style:normal;font-weight:normal;line-height:125%;letter-spacing:0px;word-spacing:0px;fill:#ff00ff;fill-opacity:1;stroke:none;font-family:Sans"
       transform="scale(0.97472518,1.0259302)" />
    <path
       inkscape:connector-curvature="0"
       id="path3531"
       d="m 294.42859,432.11219 0,2 0,24 2,0 20,0 0,-2 0,-19 -5,-5 -17,0 z m 2,2 13,0 1,0 0,4 0,1 1,0 0,-1 3,0 0,1 0,12 -1,0 0,3 1,0 0,2 -4,0 0,-2 1,0 0,-1 -1,0 0,-1 1,0 0,-1 -2,0 0,1 0,4 -13,0 0,-18 0,-4 z m 15,18 0,1 1,0 0,-1 -1,0 z m 0,-13 0,1 -1,0 0,1 1,0 0,1 1,0 0,-3 -1,0 z m 0,3 -2,0 0,1 2,0 0,-1 z m -1,-2 0,-1 -1,0 0,1 1,0 z m -13,-2 0,1 0,4 1,0 0,-2 1,0 0,-1 -1,0 0,-1 1,0 0,-1 -2,0 z m 2,1 0,1 1,0 0,-1 -1,0 z m 2,-1 0,3 1,0 0,-1 1,0 0,-1 -1,0 0,-1 -1,0 z m 2,1 1,0 0,-1 -1,0 0,1 z m 3,-1 0,1 1,0 0,-1 -1,0 z m 1,1 0,1 1,0 0,-1 -1,0 z m 0,1 -1,0 0,1 1,0 0,-1 z m -2.03125,-1 0,0.90625 0.96875,0 0,-0.90625 -0.96875,0 z m -0.96875,3 0,3 -3,0 0,2 3,0 0,3 2,0 0,-3 3,0 0,-2 -3,0 0,-3 -2,0 z m -5,7 0,1 1,0 0,-1 -1,0 z m 0,1 -1,0 0,1 -1,0 0,1 1,0 0,2 1,0 0,-2 1,0 0,-1 -1,0 0,-1 z m 2,-1 0,1 1,0 0,-1 -1,0 z m 0,2 0,3 1,0 0,-3 -1,0 z m 2,0 0,3 1,0 0,-2 1,0 0,-1 -1,0 -1,0 z m 2,1 0,2 1,0 0,-2 -1,0 z m 1,0 1,0 0,-1 -1,0 0,1 z m 1,0 0,2 1,0 0,-2 -1,0 z"
       style="fill:#cccccc;fill-opacity:1;stroke:none" />
    <g
       transform="translate(-30.84088,-35.576253)"
       id="g3533">
      <rect
         style="fill:#000080;fill-opacity:1;stroke:none"
         id="rect3535"
         width="0.75"
         height="4"
         x="328.26947"
         y="474.68845" />
      <g
         transform="matrix(0.97334969,0,0,0.78068482,85.102364,104.87812)"
         style="font-size:7.92323065px;font-style:normal;font-weight:normal;line-height:125%;letter-spacing:0px;word-spacing:0px;fill:#000080;fill-opacity:1;stroke:none;font-family:Sans"
         id="g3537">
        <path
           d="m 252.90721,474.34436 c -1e-5,0.27996 -0.037,0.53878 -0.11093,0.77648 -0.0687,0.23242 -0.17167,0.43314 -0.309,0.60217 -0.13206,0.16903 -0.29581,0.30108 -0.49124,0.39616 -0.19545,0.0951 -0.4173,0.14262 -0.66556,0.14262 -0.19544,0 -0.36711,-0.0238 -0.51501,-0.0713 -0.1479,-0.0475 -0.25882,-0.10036 -0.33277,-0.15847 l -0.65763,-3.42283 c 0.14262,-0.0423 0.32485,-0.0845 0.5467,-0.12678 0.22714,-0.0423 0.48596,-0.0634 0.77648,-0.0634 0.26411,0 0.50444,0.0449 0.72101,0.13469 0.21657,0.0898 0.40145,0.21922 0.55463,0.38824 0.15318,0.16375 0.27203,0.36447 0.35655,0.60217 0.0845,0.2377 0.12676,0.50445 0.12677,0.80024"
           style="font-variant:normal;font-stretch:normal;fill:#000080;font-family:Ubuntu Mono;-inkscape-font-specification:Ubuntu Mono"
           id="path3539"
           inkscape:connector-curvature="0"
           sodipodi:nodetypes="ccccsscccscccc" />
      </g>
      <path
         inkscape:connector-curvature="0"
         style="fill:#ffff00;fill-opacity:1;stroke:none"
         d="m 329.22993,474.4424 c -0.0861,0.009 -0.16062,0.0239 -0.21046,0.0356 l 0,1.30011 c 0.0634,0.0384 0.16705,0.0744 0.28939,0.10694 0.12239,0.0326 0.23691,0.0534 0.36831,0.0534 0.14954,0 0.29041,-0.015 0.39462,-0.0534 0.10875,-0.0384 0.19512,-0.0952 0.26309,-0.1603 0.0679,-0.0679 0.12615,-0.14294 0.15784,-0.23152 0.0318,-0.0917 0.0264,-0.19641 0.0264,-0.30277 0,-0.23931 -0.0645,-0.42211 -0.23676,-0.5521 -0.17218,-0.1329 -0.40763,-0.19591 -0.68403,-0.19591 -0.15404,0 -0.27768,-0.009 -0.36831,0 z"
         id="path3541" />
    </g>
    <g
       id="g3543"
       transform="translate(-30.125,-35.5)">
      <g
         id="g3545"
         style="font-size:7.92323065px;font-style:normal;font-weight:normal;line-height:125%;letter-spacing:0px;word-spacing:0px;fill:#000080;fill-opacity:1;stroke:none;font-family:Sans"
         transform="matrix(0.95654725,0,0,0.985731,90.98958,6.24144)">
        <path
           id="path3547"
           style="font-variant:normal;font-stretch:normal;fill:#000080;font-family:Monospace;-inkscape-font-specification:Monospace"
           d="m 254.62831,475.1343 c -0.15218,-0.11864 -0.30693,-0.20504 -0.46425,-0.25921 -0.15734,-0.0542 -0.33014,-0.0812 -0.51842,-0.0812 -0.44362,0 -0.78278,0.13928 -1.01748,0.41782 -0.23471,0.27856 -0.35206,0.68091 -0.35206,1.20706 l 0,-1.33086 c 0.11864,-0.30692 0.30047,-0.54162 0.5455,-0.70411 0.24759,-0.16507 0.54033,-0.2476 0.8782,-0.2476 0.17539,0 0.33916,0.0219 0.49134,0.0658 0.15217,0.0439 0.29789,0.11219 0.43717,0.20504 l 0,0.72733"
           inkscape:connector-curvature="0"
           sodipodi:nodetypes="ccsccccsccc" />
      </g>
      <g
         id="g3549"
         style="font-size:7.92323065px;font-style:normal;font-weight:normal;line-height:125%;letter-spacing:0px;word-spacing:0px;fill:#000080;fill-opacity:1;stroke:none;font-family:Sans"
         transform="matrix(1.0478958,0,0,0.69235776,65.649265,147.43482)">
        <path
           id="path3551"
           style="font-variant:normal;font-stretch:normal;fill:#000080;font-family:Monospace;-inkscape-font-specification:Monospace"
           d="m 254.46645,473.28914 0,2.1549 -0.71572,0 0,-4.33302 0.71572,0 0,0.84726"
           inkscape:connector-curvature="0"
           sodipodi:nodetypes="cccccc" />
        <path
           sodipodi:nodetypes="ccccccc"
           inkscape:connector-curvature="0"
           d="m 254.46645,473.28914 0,2.1549 -0.71572,0 0,-2.16651 0,-2.16651 0.71572,0 0,0.84726"
           style="font-variant:normal;font-stretch:normal;fill:#000080;font-family:Monospace;-inkscape-font-specification:Monospace"
           id="path3553" />
      </g>
    </g>
    <g
       transform="translate(81.13835,-32.325121)"
       id="g3555">
      <g
         transform="matrix(0.90151003,0,0,0.77908115,25.064358,94.575254)"
         style="font-size:7.92323065px;font-style:normal;font-weight:normal;line-height:125%;letter-spacing:0px;word-spacing:0px;fill:#000080;fill-opacity:1;stroke:none;font-family:Sans"
         id="g3557">
        <path
           d="m 224.31906,484.36811 c 0,0.29052 -0.0423,0.55463 -0.12677,0.79232 -0.0792,0.23242 -0.1928,0.43314 -0.3407,0.60217 -0.1479,0.16903 -0.32485,0.30108 -0.53085,0.39616 -0.20601,0.0898 -0.4305,0.13469 -0.67348,0.13469 -0.2377,0 -0.45955,-0.0449 -0.66555,-0.13469 -0.20072,-0.0951 -0.37503,-0.22713 -0.52293,-0.39616 -0.1479,-0.16903 -0.26411,-0.36975 -0.34862,-0.60217 -0.0792,-0.23769 -0.11885,-0.5018 -0.11885,-0.79232 0,-0.29052 0.0396,-0.55462 0.11885,-0.79232 0.0845,-0.2377 0.20072,-0.43842 0.34862,-0.60217 0.1479,-0.16902 0.32221,-0.29844 0.52293,-0.38824 0.206,-0.0951 0.42785,-0.14261 0.66555,-0.14262 0.24298,10e-6 0.46747,0.0476 0.67348,0.14262 0.206,0.0898 0.38295,0.21922 0.53085,0.38824 0.1479,0.16375 0.26147,0.36447 0.3407,0.60217 0.0845,0.2377 0.12677,0.5018 0.12677,0.79232"
           style="font-variant:normal;font-stretch:normal;fill:#000080;font-family:Ubuntu Mono;-inkscape-font-specification:Ubuntu Mono"
           id="path3559"
           inkscape:connector-curvature="0"
           sodipodi:nodetypes="ccscscscscccccccc" />
      </g>
      <g
         transform="matrix(0.75726597,0,0,0.55845539,52.549887,201.44154)"
         style="font-size:7.92323065px;font-style:normal;font-weight:normal;line-height:125%;letter-spacing:0px;word-spacing:0px;fill:#ff00ff;fill-opacity:1;stroke:none;font-family:Sans"
         id="g3561">
        <path
           d="m 229.76122,484.36811 c 0,-0.41729 -0.0898,-0.74478 -0.26939,-0.98248 -0.1796,-0.24298 -0.42257,-0.36447 -0.72894,-0.36447 -0.30108,0 -0.54142,0.12149 -0.72101,0.36447 -0.17431,0.2377 -0.26147,0.56519 -0.26147,0.98248 0,0.41201 0.0872,0.7395 0.26147,0.98248 0.17959,0.2377 0.41993,0.35655 0.72101,0.35655 0.30637,0 0.54934,-0.11885 0.72894,-0.35655 0.17959,-0.24298 0.26939,-0.57047 0.26939,-0.98248"
           style="font-variant:normal;font-stretch:normal;fill:#ffff00;font-family:Ubuntu Mono;-inkscape-font-specification:Ubuntu Mono"
           id="path3563"
           inkscape:connector-curvature="0"
           sodipodi:nodetypes="ccscscscc" />
      </g>
    </g>
    <g
       transform="translate(65.393174,-53.963273)"
       id="g3565">
      <g
         transform="scale(1.0189275,0.9814241)"
         style="font-size:9.05512047px;font-style:normal;font-weight:normal;line-height:125%;letter-spacing:0px;word-spacing:0px;fill:#000080;fill-opacity:1;stroke:none;font-family:Sans"
         id="g3567">
        <path
           style="font-variant:normal;font-stretch:normal;fill:#000080;font-family:Ubuntu Mono;-inkscape-font-specification:Ubuntu Mono"
           d="m 241.71044,503.81916 0,0.75421 0,0.15921 c -1e-5,0.39239 -0.0889,0.65281 -0.27602,0.82788 -0.18714,0.1751 -0.27756,0.28657 -0.71221,0.28657 -0.24147,0 -0.31767,-0.0214 -0.52292,-0.0637 -0.19921,-0.0423 -0.28852,-0.12465 -0.44548,-0.19105 l -0.15334,0.66867 c 0.16902,0.0603 0.2895,0.11691 0.50682,0.15921 0.22336,0.0423 0.34327,0.0637 0.61492,0.0637 0.66404,0 0.9076,-0.15602 1.23359,-0.44578 0.33202,-0.28976 0.49071,-0.74906 0.49071,-1.40103 l 0,-1.35919 z"
           id="path3569"
           inkscape:connector-curvature="0"
           sodipodi:nodetypes="ccccsccccscscc" />
      </g>
      <g
         transform="matrix(1.0189275,0,0,0.9814241,0.453125,4.921875)"
         style="font-size:9.05512047px;font-style:normal;font-weight:normal;line-height:125%;letter-spacing:0px;word-spacing:0px;fill:#000080;fill-opacity:1;stroke:none;font-family:Sans"
         id="g3571">
        <path
           d="m 241.37359,499.25747 c -0.0706,0.0356 -0.17913,0.0734 -0.32546,0.11346 -0.14633,0.04 -0.31537,0.0601 -0.5071,0.0601 -0.20689,0 -0.40116,-0.0289 -0.58281,-0.0868 -0.17661,-0.0623 -0.33302,-0.15351 -0.46927,-0.27364 -0.13119,-0.12459 -0.23715,-0.28032 -0.31788,-0.4672 -0.0757,-0.19133 -0.11354,-0.41603 -0.11354,-0.67409 0,-0.22692 0.0354,-0.43383 0.10596,-0.6207 0.0756,-0.19133 0.18166,-0.35596 0.3179,-0.49389 0.14128,-0.13794 0.31284,-0.24472 0.51468,-0.32037 0.20183,-0.0801 0.43142,-0.12013 0.68876,-0.12013 0.30275,0 0.56009,0.0201 0.77202,0.0601 0.21697,0.0356 0.39863,0.0712 0.54495,0.10679 l 0,2.76312 -0.62821,-0.0467"
           style="font-variant:normal;font-stretch:normal;fill:#000080;font-family:Ubuntu Mono;-inkscape-font-specification:Ubuntu Mono"
           id="path3573"
           inkscape:connector-curvature="0"
           sodipodi:nodetypes="ccscccscccscccc" />
      </g>
      <g
         id="g3575"
         style="font-size:9.05512047px;font-style:normal;font-weight:normal;line-height:125%;letter-spacing:0px;word-spacing:0px;fill:#ff00ff;fill-opacity:1;stroke:none;font-family:Sans"
         transform="matrix(0.74955402,0,0,0.53094338,65.021958,229.45187)">
        <path
           sodipodi:nodetypes="ccccscccsccc"
           inkscape:connector-curvature="0"
           id="path3577"
           style="font-variant:normal;font-stretch:normal;fill:#ffff00;font-family:Ubuntu Mono;-inkscape-font-specification:Ubuntu Mono"
           d="m 241.8284,496.04439 c -0.0724,-0.0241 -0.17205,-0.0453 -0.29882,-0.0634 -0.12677,-0.0241 -0.29882,-0.0362 -0.51614,-0.0362 -0.38636,10e-6 -0.68216,0.13281 -0.8874,0.39843 -0.19922,0.26562 -0.29882,0.61877 -0.29882,1.05945 0,0.24147 0.0272,0.44974 0.0815,0.6248 0.0604,0.16903 0.13885,0.31089 0.23544,0.42559 0.10262,0.10866 0.21732,0.19016 0.34409,0.24449 0.12677,0.0483 0.2626,0.0724 0.40748,0.0724 0.18714,0 0.3622,-0.0272 0.5252,-0.0815 0.16903,-0.0543 0.30485,-0.11771 0.40748,-0.19015 l 0,-2.45394" />
      </g>
    </g>
    <rect
       y="451.11221"
       x="302.55359"
       height="3"
       width="0.75"
       id="rect3579"
       style="fill:#000080;fill-opacity:1;stroke:none" />
    <g
       transform="translate(-29.13745,-49.499979)"
       id="g3581">
      <g
         transform="matrix(0.97472518,0,0,1.0245142,-4.9138097,0.75245799)"
         style="font-size:8.56423092px;font-style:normal;font-weight:normal;line-height:125%;letter-spacing:0px;word-spacing:0px;fill:#000080;fill-opacity:1;stroke:none;font-family:Sans"
         id="g3583">
        <path
           style="font-variant:normal;font-stretch:normal;fill:#000080;font-family:Monospace;-inkscape-font-specification:Monospace"
           d="m 7.21875,32 c -0.3169153,0.04666 -0.5767718,0.188386 -0.75,0.375 C 6.2404889,32.623839 6.125,33.004989 6.125,33.53125 l 0,0.3125 0,3.15625 0.75,0 0,-3.15625 0,-0.40625 c 0,-0.294586 0.052988,-0.510588 0.15625,-0.625 0.1059721,-0.117315 0.2934759,-0.15625 0.5625,-0.15625 L 8,32.65625 8,32 7.5625,32 c -0.1216043,3e-6 -0.2381116,-0.01555 -0.34375,0 z"
           transform="matrix(1.0259302,0,0,0.97472518,334.93277,454.76264)"
           id="path3585"
           inkscape:connector-curvature="0" />
      </g>
      <path
         style="fill:#000080;fill-opacity:1;stroke:none"
         d="m 326.56604,501.35022 0,-0.75 3,0 0,0.75 z"
         id="path3587"
         inkscape:connector-curvature="0" />
    </g>
    <path
       transform="matrix(0.84852814,0,0,0.69267605,293.04734,436.62543)"
       d="m 12.087105,18.92915 a 0.44194174,0.54137862 0 1 1 -0.883883,0 0.44194174,0.54137862 0 1 1 0.883883,0 z"
       sodipodi:ry="0.54137862"
       sodipodi:rx="0.44194174"
       sodipodi:cy="18.92915"
       sodipodi:cx="11.645164"
       id="path3589"
       style="fill:#000080;fill-opacity:1;stroke:none"
       sodipodi:type="arc" />
    <g
       transform="translate(-26.124999,-43.499999)"
       id="g3591">
      <g
         transform="matrix(0.86217599,0,0,1.0259302,33.078424,3.1902529e-6)"
         style="font-size:10.25817394px;font-style:normal;font-weight:normal;line-height:125%;letter-spacing:0px;word-spacing:0px;fill:#000080;fill-opacity:1;stroke:none;font-family:Sans"
         id="g3593">
        <path
           inkscape:connector-curvature="0"
           style="font-variant:normal;font-stretch:normal;fill:#000080;font-family:Ubuntu Mono;-inkscape-font-specification:Ubuntu Mono"
           d="m 11.9375,28 c -0.288915,0 -0.558969,0.129444 -0.8125,0.375 L 11.40625,29 11.25,31 13,31 13,29.53125 C 13,29.278666 12.96522,29.064438 12.90625,28.875 12.84729,28.685572 12.787728,28.501302 12.6875,28.375 12.59315,28.248718 12.473464,28.156947 12.34375,28.09375 12.219924,28.030655 12.079009,28 11.9375,28 z"
           transform="matrix(1.159856,0,0,0.97472518,334.58965,454.81865)"
           id="path3595" />
      </g>
      <path
         inkscape:connector-curvature="0"
         style="fill:#ffff00;fill-opacity:1;stroke:none"
         d="m 12.0625,28.75 c -0.05,10e-6 -0.125,0.03075 -0.1875,0.09375 -0.0727,0.0648 -0.11278,0.15398 -0.15625,0.21875 L 11.875,31 l 0.375,0 0,-1.46875 c 0,-0.24557 -0.003,-0.42218 -0.03125,-0.5625 C 12.19125,28.82843 12.14246,28.75001 12.0625,28.75 z"
         transform="translate(321.55359,466.61219)"
         id="path3597" />
      <g
         transform="matrix(0.73405917,0,0,1.0259302,77.897277,0.57811595)"
         style="font-size:10.25817394px;font-style:normal;font-weight:normal;line-height:125%;letter-spacing:0px;word-spacing:0px;fill:#000080;fill-opacity:1;stroke:none;font-family:Sans"
         id="g3599">
        <path
           inkscape:connector-curvature="0"
           style="font-variant:normal;font-stretch:normal;fill:#000080;font-family:Ubuntu Mono;-inkscape-font-specification:Ubuntu Mono"
           d="M 10.84375,28 C 10.57769,28 10.301206,28.088631 10,28.25 l 0.03125,2.75 1.84375,0 0,-1.46875 C 11.875,29.334805 11.868,29.162343 11.84375,29 11.80591,28.747457 11.692488,28.548505 11.59375,28.375 11.516945,28.240039 11.380516,28.149868 11.25,28.09375 11.124491,28.030655 10.989336,28 10.84375,28 z"
           transform="matrix(1.362288,0,0,0.97472518,331.93007,454.25515)"
           id="path3601" />
      </g>
      <path
         inkscape:connector-curvature="0"
         style="fill:#ffff00;fill-opacity:1;stroke:none"
         d="m 10.9375,28.75 c -0.05,10e-6 -0.125,0.03075 -0.1875,0.09375 l 0,2.15625 0.375,0 0,-1.46875 c 0,-0.24557 -0.003,-0.42218 -0.03125,-0.5625 C 11.06625,28.82843 11.01746,28.75001 10.9375,28.75 z"
         transform="translate(321.55359,466.61219)"
         id="path3603" />
      <path
         style="fill:#ffff00;fill-opacity:1;stroke:none"
         d="m 332.67859,496.61219 0,0.5 0,0.5 0.75,0 0,-0.5 0,-0.5 -0.75,0 z"
         id="path3605"
         inkscape:connector-curvature="0" />
    </g>
    <g
       id="g3607"
       transform="translate(-18.84088,-22.576252)">
      <rect
         y="474.68845"
         x="328.26947"
         height="4"
         width="0.75"
         id="rect3609"
         style="fill:#000080;fill-opacity:1;stroke:none" />
      <g
         id="g3611"
         style="font-size:7.92323065px;font-style:normal;font-weight:normal;line-height:125%;letter-spacing:0px;word-spacing:0px;fill:#000080;fill-opacity:1;stroke:none;font-family:Sans"
         transform="matrix(0.97334969,0,0,0.78068482,85.102364,104.87812)">
        <path
           sodipodi:nodetypes="ccccsscccscccc"
           inkscape:connector-curvature="0"
           id="path3613"
           style="font-variant:normal;font-stretch:normal;fill:#000080;font-family:Ubuntu Mono;-inkscape-font-specification:Ubuntu Mono"
           d="m 252.90721,474.34436 c -1e-5,0.27996 -0.037,0.53878 -0.11093,0.77648 -0.0687,0.23242 -0.17167,0.43314 -0.309,0.60217 -0.13206,0.16903 -0.29581,0.30108 -0.49124,0.39616 -0.19545,0.0951 -0.4173,0.14262 -0.66556,0.14262 -0.19544,0 -0.36711,-0.0238 -0.51501,-0.0713 -0.1479,-0.0475 -0.25882,-0.10036 -0.33277,-0.15847 l -0.65763,-3.42283 c 0.14262,-0.0423 0.32485,-0.0845 0.5467,-0.12678 0.22714,-0.0423 0.48596,-0.0634 0.77648,-0.0634 0.26411,0 0.50444,0.0449 0.72101,0.13469 0.21657,0.0898 0.40145,0.21922 0.55463,0.38824 0.15318,0.16375 0.27203,0.36447 0.35655,0.60217 0.0845,0.2377 0.12676,0.50445 0.12677,0.80024" />
      </g>
      <path
         id="path3615"
         d="m 329.22993,474.4424 c -0.0861,0.009 -0.16062,0.0239 -0.21046,0.0356 l 0,1.30011 c 0.0634,0.0384 0.16705,0.0744 0.28939,0.10694 0.12239,0.0326 0.23691,0.0534 0.36831,0.0534 0.14954,0 0.29041,-0.015 0.39462,-0.0534 0.10875,-0.0384 0.19512,-0.0952 0.26309,-0.1603 0.0679,-0.0679 0.12615,-0.14294 0.15784,-0.23152 0.0318,-0.0917 0.0264,-0.19641 0.0264,-0.30277 0,-0.23931 -0.0645,-0.42211 -0.23676,-0.5521 -0.17218,-0.1329 -0.40763,-0.19591 -0.68403,-0.19591 -0.15404,0 -0.27768,-0.009 -0.36831,0 z"
         style="fill:#ffff00;fill-opacity:1;stroke:none"
         inkscape:connector-curvature="0" />
    </g>
    <g
       transform="translate(-18.124999,-22.5)"
       id="g3617">
      <g
         transform="matrix(0.95654725,0,0,0.985731,90.98958,6.24144)"
         style="font-size:7.92323065px;font-style:normal;font-weight:normal;line-height:125%;letter-spacing:0px;word-spacing:0px;fill:#000080;fill-opacity:1;stroke:none;font-family:Sans"
         id="g3619">
        <path
           sodipodi:nodetypes="ccsccccsccc"
           inkscape:connector-curvature="0"
           d="m 254.62831,475.1343 c -0.15218,-0.11864 -0.30693,-0.20504 -0.46425,-0.25921 -0.15734,-0.0542 -0.33014,-0.0812 -0.51842,-0.0812 -0.44362,0 -0.78278,0.13928 -1.01748,0.41782 -0.23471,0.27856 -0.35206,0.68091 -0.35206,1.20706 l 0,-1.33086 c 0.11864,-0.30692 0.30047,-0.54162 0.5455,-0.70411 0.24759,-0.16507 0.54033,-0.2476 0.8782,-0.2476 0.17539,0 0.33916,0.0219 0.49134,0.0658 0.15217,0.0439 0.29789,0.11219 0.43717,0.20504 l 0,0.72733"
           style="font-variant:normal;font-stretch:normal;fill:#000080;font-family:Monospace;-inkscape-font-specification:Monospace"
           id="path3621" />
      </g>
      <g
         transform="matrix(1.0478958,0,0,0.69235776,65.649265,147.43482)"
         style="font-size:7.92323065px;font-style:normal;font-weight:normal;line-height:125%;letter-spacing:0px;word-spacing:0px;fill:#000080;fill-opacity:1;stroke:none;font-family:Sans"
         id="g3623">
        <path
           sodipodi:nodetypes="cccccc"
           inkscape:connector-curvature="0"
           d="m 254.46645,473.28914 0,2.1549 -0.71572,0 0,-4.33302 0.71572,0 0,0.84726"
           style="font-variant:normal;font-stretch:normal;fill:#000080;font-family:Monospace;-inkscape-font-specification:Monospace"
           id="path3625" />
        <path
           id="path3627"
           style="font-variant:normal;font-stretch:normal;fill:#000080;font-family:Monospace;-inkscape-font-specification:Monospace"
           d="m 254.46645,473.28914 0,2.1549 -0.71572,0 0,-2.16651 0,-2.16651 0.71572,0 0,0.84726"
           inkscape:connector-curvature="0"
           sodipodi:nodetypes="ccccccc" />
      </g>
    </g>
    <g
       id="g3737"
       transform="translate(-34.875,29)">
      <path
         style="fill:#cccccc;fill-opacity:1;stroke:none"
         d="m 324.55359,467.61219 0,2 0,24 2,0 20,0 0,-2 0,-19 -5,-5 -17,0 z m 2,2 13,0 1,0 0,4 0,1 1,0 0,-1 3,0 0,1 0,12 -1,0 0,3 1,0 0,2 -4,0 0,-2 1,0 0,-1 -1,0 0,-1 1,0 0,-1 -2,0 0,1 0,4 -13,0 0,-18 0,-4 z m 15,18 0,1 1,0 0,-1 -1,0 z m 0,-13 0,1 -1,0 0,1 1,0 0,1 1,0 0,-3 -1,0 z m 0,3 -2,0 0,1 2,0 0,-1 z m -1,-2 0,-1 -1,0 0,1 1,0 z m -13,-2 0,1 0,4 1,0 0,-2 1,0 0,-1 -1,0 0,-1 1,0 0,-1 -2,0 z m 2,1 0,1 1,0 0,-1 -1,0 z m 2,-1 0,3 1,0 0,-1 1,0 0,-1 -1,0 0,-1 -1,0 z m 2,1 1,0 0,-1 -1,0 0,1 z m 3,-1 0,1 1,0 0,-1 -1,0 z m 1,1 0,1 1,0 0,-1 -1,0 z m 0,1 -1,0 0,1 1,0 0,-1 z m -2.03125,-1 0,0.90625 0.96875,0 0,-0.90625 -0.96875,0 z m -0.96875,3 0,3 -3,0 0,2 3,0 0,3 2,0 0,-3 3,0 0,-2 -3,0 0,-3 -2,0 z m -5,7 0,1 1,0 0,-1 -1,0 z m 0,1 -1,0 0,1 -1,0 0,1 1,0 0,2 1,0 0,-2 1,0 0,-1 -1,0 0,-1 z m 2,-1 0,1 1,0 0,-1 -1,0 z m 0,2 0,3 1,0 0,-3 -1,0 z m 2,0 0,3 1,0 0,-2 1,0 0,-1 -1,0 -1,0 z m 2,1 0,2 1,0 0,-2 -1,0 z m 1,0 1,0 0,-1 -1,0 0,1 z m 1,0 0,2 1,0 0,-2 -1,0 z"
         id="path3701"
         inkscape:connector-curvature="0" />
      <path
         inkscape:connector-curvature="0"
         id="path3703"
         d="m 340.83486,486.61219 c -0.28278,0 -0.52891,0.0295 -0.75,0.0625 -0.21594,0.033 -0.39243,0.0607 -0.53125,0.0937 l 0,4.84375 0.75,0 0,-2.15625 c 0.0631,0.0276 0.12523,0.0697 0.21875,0.0937 0.14396,0.0371 0.30977,0.0625 0.5,0.0625 0.24164,0 0.46601,-0.0508 0.65625,-0.125 0.19022,-0.0742 0.34021,-0.14929 0.46875,-0.28125 0.13367,-0.13196 0.2456,-0.31856 0.3125,-0.5 0.072,-0.18557 0.0937,-0.37519 0.0937,-0.59375 0,-0.23092 -0.0428,-0.43943 -0.125,-0.625 -0.0823,-0.18557 -0.19465,-0.34091 -0.34375,-0.46875 -0.14909,-0.13195 -0.32045,-0.2424 -0.53125,-0.3125 -0.2108,-0.07 -0.46168,-0.0937 -0.71875,-0.0937 z m -0.3125,0.75 c 0.0906,-0.009 0.22096,0 0.375,0 0.2764,0 0.48407,0.0546 0.65625,0.1875 0.17226,0.12999 0.25,0.32319 0.25,0.5625 0,0.10636 5.5e-4,0.2208 -0.0313,0.3125 -0.0317,0.0886 -0.0883,0.15085 -0.15625,0.21875 -0.068,0.0651 -0.14125,0.11785 -0.25,0.15625 -0.10421,0.0384 -0.25671,0.0625 -0.40625,0.0625 -0.1314,0 -0.25261,-0.0299 -0.375,-0.0625 -0.12234,-0.0325 -0.21785,-0.0553 -0.28125,-0.0937 l 0,-1.3125 c 0.0498,-0.0117 0.13265,-0.0222 0.21875,-0.0313 z"
         style="fill:#000080;fill-opacity:1;stroke:none" />
      <g
         id="g3705"
         transform="translate(12,13.000004)">
        <g
           id="g3707"
           style="font-size:7.92323065px;font-style:normal;font-weight:normal;line-height:125%;letter-spacing:0px;word-spacing:0px;fill:#000080;fill-opacity:1;stroke:none;font-family:Sans"
           transform="matrix(0.95654725,0,0,0.985731,90.98958,6.24144)">
          <path
             sodipodi:nodetypes="cccscsccccscccc"
             inkscape:connector-curvature="0"
             id="path3709"
             transform="matrix(1.0454267,0,0,1.0144756,241.03776,467.03487)"
             d="m 10,7 0,3 0.75,0 0,-0.75 c 0,-0.5186424 0.119239,-0.9129148 0.34375,-1.1875 0.224502,-0.2745655 0.544407,-0.40625 0.96875,-0.40625 0.180099,0 0.349497,0.00907 0.5,0.0625 0.150484,0.053397 0.291933,0.1330529 0.4375,0.25 l 0,-0.6875 C 12.866772,7.1897249 12.739308,7.1057736 12.59375,7.0625 12.448183,7.0192264 12.292769,7 12.125,7 11.801811,7 11.518082,7.0872854 11.28125,7.25 11.046867,7.4101714 10.863485,7.6349594 10.75,7.9375 L 10.75,7 z"
             style="font-variant:normal;font-stretch:normal;fill:#000080;font-family:Monospace;-inkscape-font-specification:Monospace" />
        </g>
        <g
           id="g3711"
           style="font-size:7.92323065px;font-style:normal;font-weight:normal;line-height:125%;letter-spacing:0px;word-spacing:0px;fill:#000080;fill-opacity:1;stroke:none;font-family:Sans"
           transform="matrix(1.0478958,0,0,0.69235776,65.649265,147.43482)">
          <path
             id="path3713"
             style="font-variant:normal;font-stretch:normal;fill:#000080;font-family:Monospace;-inkscape-font-specification:Monospace"
             d="m 254.46645,473.28914 0,2.1549 -0.71572,0 0,-4.33302 0.71572,0 0,0.84726"
             inkscape:connector-curvature="0"
             sodipodi:nodetypes="cccccc" />
        </g>
      </g>
      <path
         style="fill:#000080;fill-opacity:1;stroke:none"
         d="M 7.28125,7 C 6.99847,7 6.75234,7.0295 6.53125,7.0625 6.31531,7.0955 6.13882,7.12325 6,7.15625 L 6,12 l 0.75,0 0,-2.15625 C 6.8131433,9.8713471 6.875235,9.9133985 6.96875,9.9375 7.11271,9.9746 7.27852,10 7.46875,10 7.71039,10 7.93476,9.9492 8.125,9.875 8.31522,9.80077 8.46521,9.72571 8.59375,9.59375 8.72742,9.46179 8.83935,9.27519 8.90625,9.09375 8.97823,8.90818 8.99999,8.71856 9,8.5 8.99999,8.26908 8.9572,8.06057 8.875,7.875 8.79273,7.68943 8.68035,7.53409 8.53125,7.40625 8.38215,7.2743 8.2108,7.16385 8,7.09375 7.7892,7.0237 7.53832,7 7.28125,7 z m -0.3125,0.75 c 0.09063,-0.009 0.22096,0 0.375,0 C 7.62015,7.75 7.82782,7.8046 8,7.9375 8.17226,8.06749 8.25,8.26069 8.25,8.5 8.25,8.60636 8.25055,8.7208 8.21875,8.8125 8.18706,8.90108 8.1304,8.96335 8.0625,9.03125 7.99453,9.09635 7.92125,9.1491 7.8125,9.1875 7.70829,9.2259 7.55579,9.25 7.40625,9.25 7.27485,9.25 7.15364,9.2201 7.03125,9.1875 6.90891,9.15496 6.8134,9.13215 6.75,9.09375 l 0,-1.3125 C 6.79984,7.76955 6.88265,7.759 6.96875,7.75 z"
         transform="translate(321.55359,466.61219)"
         id="path3715"
         inkscape:connector-curvature="0" />
      <g
         id="g3717">
        <g
           transform="matrix(0.95654725,0,0,0.985731,90.98958,6.24144)"
           style="font-size:7.92323065px;font-style:normal;font-weight:normal;line-height:125%;letter-spacing:0px;word-spacing:0px;fill:#000080;fill-opacity:1;stroke:none;font-family:Sans"
           id="g3719">
          <path
             style="font-variant:normal;font-stretch:normal;fill:#000080;font-family:Monospace;-inkscape-font-specification:Monospace"
             d="m 10,7 0,3 0.75,0 0,-0.75 c 0,-0.5186424 0.119239,-0.9129148 0.34375,-1.1875 0.224502,-0.2745655 0.544407,-0.40625 0.96875,-0.40625 0.180099,0 0.349497,0.00907 0.5,0.0625 0.150484,0.053397 0.291933,0.1330529 0.4375,0.25 l 0,-0.6875 C 12.866772,7.1897249 12.739308,7.1057736 12.59375,7.0625 12.448183,7.0192264 12.292769,7 12.125,7 11.801811,7 11.518082,7.0872854 11.28125,7.25 11.046867,7.4101714 10.863485,7.6349594 10.75,7.9375 L 10.75,7 z"
             transform="matrix(1.0454267,0,0,1.0144756,241.03776,467.03487)"
             id="path3721"
             inkscape:connector-curvature="0"
             sodipodi:nodetypes="cccscsccccscccc" />
        </g>
        <g
           transform="matrix(1.0478958,0,0,0.69235776,65.649265,147.43482)"
           style="font-size:7.92323065px;font-style:normal;font-weight:normal;line-height:125%;letter-spacing:0px;word-spacing:0px;fill:#000080;fill-opacity:1;stroke:none;font-family:Sans"
           id="g3723">
          <path
             sodipodi:nodetypes="cccccc"
             inkscape:connector-curvature="0"
             d="m 254.46645,473.28914 0,2.1549 -0.71572,0 0,-4.33302 0.71572,0 0,0.84726"
             style="font-variant:normal;font-stretch:normal;fill:#000080;font-family:Monospace;-inkscape-font-specification:Monospace"
             id="path3725" />
        </g>
      </g>
      <path
         style="font-size:7.92323065px;font-style:normal;font-variant:normal;font-weight:normal;font-stretch:normal;line-height:125%;letter-spacing:0px;word-spacing:0px;fill:#000080;fill-opacity:1;stroke:none;font-family:Ubuntu Mono;-inkscape-font-specification:Ubuntu Mono"
         d="m 15.5,7 c -0.21429,10e-6 -0.40804,0.0509 -0.59375,0.125 -0.18095,0.06996 -0.36667,0.14957 -0.5,0.28125 C 14.27292,7.53382 14.16995,7.68981 14.09375,7.875 14.0223,8.06018 14,8.27366 14,8.5 c 0,0.22634 0.02235,0.43982 0.09375,0.625 0.07618,0.18107 0.17917,0.33706 0.3125,0.46875 0.13333,0.13169 0.31905,0.2384 0.5,0.3125 C 15.09196,9.97618 15.28571,10 15.5,10 c 0.21905,0 0.40803,-0.02375 0.59375,-0.09375 0.18571,-0.07408 0.36667,-0.18081 0.5,-0.3125 C 16.72709,9.46206 16.8036,9.30607 16.875,9.125 16.95118,8.93982 17,8.72634 17,8.5 17,8.27366 16.9512,8.06018 16.875,7.875 16.80357,7.68981 16.72709,7.53382 16.59375,7.40625 16.46042,7.27457 16.27946,7.195 16.09375,7.125 15.90803,7.05098 15.71905,7.00001 15.5,7 z m 0,0.75 c 0.23201,0 0.39525,0.08306 0.53125,0.21875 C 16.16725,8.1015 16.25,8.26696 16.25,8.5 16.25,8.73009 16.16725,8.92681 16.03125,9.0625 15.89525,9.19522 15.73201,9.25 15.5,9.25 15.272,9.25 15.07349,9.19525 14.9375,9.0625 14.80549,8.92681 14.75,8.73009 14.75,8.5 14.75,8.26696 14.8055,8.1015 14.9375,7.96875 15.07349,7.83311 15.272,7.75 15.5,7.75 z"
         transform="translate(321.55359,466.61219)"
         id="path3727"
         inkscape:connector-curvature="0" />
      <path
         style="font-size:9.05512047px;font-style:normal;font-variant:normal;font-weight:normal;font-stretch:normal;line-height:125%;letter-spacing:0px;word-spacing:0px;fill:#000080;fill-opacity:1;stroke:none;font-family:Ubuntu Mono;-inkscape-font-specification:Ubuntu Mono"
         d="M 19.65625,7 C 19.39404,7 19.1744,7.0464 18.96875,7.125 18.76309,7.19925 18.58146,7.30212 18.4375,7.4375 18.29868,7.57287 18.17075,7.71847 18.09375,7.90625 18.02188,8.08965 18,8.30854 18,8.53125 c 0,0.25326 0.0479,0.46847 0.125,0.65625 0.08226,0.1834 0.17882,0.34647 0.3125,0.46875 0.13882,0.1179 0.2888,0.1889 0.46875,0.25 C 19.09134,9.96305 19.28919,10 19.5,10 c 0.19536,0 0.38215,-0.0233 0.53125,-0.0625 0.0952,-0.025123 0.154989,-0.039198 0.21875,-0.0625 l 0,0.25 0,0.15625 c -10e-6,0.3851 -0.0906,0.64068 -0.28125,0.8125 -0.19068,0.17184 -0.27587,0.28125 -0.71875,0.28125 -0.24604,0 -0.32212,-0.021 -0.53125,-0.0625 C 18.51577,11.271 18.40994,11.19016 18.25,11.125 l -0.15625,0.65625 c 0.17222,0.0592 0.30982,0.11473 0.53125,0.15625 C 18.85259,11.979 18.97321,12 19.25,12 c 0.67661,0 0.91784,-0.15312 1.25,-0.4375 0.33831,-0.28437 0.5,-0.73514 0.5,-1.375 L 21,9.875 21,8.84375 21,7.15625 C 20.85091,7.12135 20.65858,7.0974 20.4375,7.0625 20.22156,7.0232 19.96473,7 19.65625,7 z M 19.625,7.6875 c 0.1629,0 0.31125,0.01845 0.40625,0.03125 C 20.12627,7.72835 20.1957,7.7372 20.25,7.75 l 0,1.3125 C 20.17307,9.10096 20.0642,9.12745 19.9375,9.15625 19.81532,9.18515 19.70277,9.1875 19.5625,9.1875 19.45391,9.1875 19.345,9.18195 19.25,9.15625 19.15498,9.12741 19.0769,9.08895 19,9.03125 18.9276,8.97035 18.8578,8.9022 18.8125,8.8125 18.7718,8.71955 18.75,8.59696 18.75,8.46875 18.75,8.23478 18.81942,8.04728 18.96875,7.90625 19.12259,7.7652 19.33541,7.68751 19.625,7.6875 z"
         transform="translate(321.55359,466.61219)"
         id="path3729"
         inkscape:connector-curvature="0" />
      <path
         style="fill:#000080;fill-opacity:1;stroke:none"
         d="m 333.05359,484.86219 c -0.20711,0 -0.375,0.16789 -0.375,0.375 0,0.20711 0.16789,0.375 0.375,0.375 0.2071,0 0.375,-0.16789 0.375,-0.375 0,-0.20711 -0.1679,-0.375 -0.375,-0.375 z m -0.375,1.75 0,3 0.75,0 0,-3 -0.75,0 z"
         id="path3731"
         inkscape:connector-curvature="0" />
      <path
         style="font-size:8.56423092px;font-style:normal;font-variant:normal;font-weight:normal;font-stretch:normal;line-height:125%;letter-spacing:0px;word-spacing:0px;fill:#000080;fill-opacity:1;stroke:none;font-family:Monospace;-inkscape-font-specification:Monospace"
         d="m 8.21875,18 c -0.31692,0.0466 -0.57677,0.18864 -0.75,0.375 C 7.24049,18.62349 7.125,19.00572 7.125,19.53125 l 0,0.3125 L 7.125,20 6,20 l 0,0.75 1.125,0 0,2.25 0.75,0 0,-2.25 1.125,0 0,-0.75 -1.125,0 0,-0.15625 0,-0.40625 c 0,-0.29418 0.053,-0.51074 0.15625,-0.625 0.10597,-0.11715 0.29348,-0.15625 0.5625,-0.15625 L 9,18.65625 9,18 8.5625,18 c -0.1216,10e-6 -0.23811,-0.0155 -0.34375,0 z"
         transform="translate(321.55359,466.61219)"
         id="path3733"
         inkscape:connector-curvature="0" />
      <path
         style="font-size:10.25817394px;font-style:normal;font-variant:normal;font-weight:normal;font-stretch:normal;line-height:125%;letter-spacing:0px;word-spacing:0px;fill:#000080;fill-opacity:1;stroke:none;font-family:Ubuntu Mono;-inkscape-font-specification:Ubuntu Mono"
         d="M 14.84375,20 C 14.57769,20 14.30121,20.0886 14,20.25 l 0.03125,2.75 0.71875,0 0,-2.15625 c 0.0625,-0.0629 0.1375,-0.09374 0.1875,-0.09375 0.07995,10e-6 0.12875,0.07843 0.15625,0.21875 0.0283,0.14032 0.03125,0.31693 0.03125,0.5625 l 0,0.46875 0.75,0 0,-0.46875 c 0,-0.19644 -0.0069,-0.36891 -0.03125,-0.53125 -0.0052,-0.03497 -0.02336,-0.06076 -0.03125,-0.09375 0.01794,-0.02448 0.03892,-0.04148 0.0625,-0.0625 0.0625,-0.0629 0.1375,-0.09374 0.1875,-0.09375 0.07995,10e-6 0.12875,0.07843 0.15625,0.21875 0.0283,0.14032 0.03125,0.31693 0.03125,0.5625 L 16.25,23 17,23 17,21.53125 C 17,21.27867 16.96515,21.06444 16.90625,20.875 16.84725,20.68557 16.78773,20.5013 16.6875,20.375 16.5932,20.24872 16.47346,20.15695 16.34375,20.09375 16.21992,20.03065 16.07901,20 15.9375,20 15.747391,20 15.580689,20.079209 15.40625,20.1875 15.355929,20.153022 15.30271,20.116414 15.25,20.09375 15.12449,20.03065 14.98934,20 14.84375,20 z"
         transform="translate(321.55359,466.61219)"
         id="path3735"
         inkscape:connector-curvature="0" />
    </g>
  </g>
</svg>
