<svg xmlns="http://www.w3.org/2000/svg" width="2048" height="2048">
  <path d="m 1312,315.07689 c -185.1816,0 -348.24059,98.87717 -438.15386,246.15385 -67.46939,-54.18628 -150.42369,-88.61538 -243.69229,-88.61538 -217.51522,0 -393.84616,176.33093 -393.84616,393.84615 0,16.10453 0.58321,31.17111 2.46154,46.76923 C 97.138795,984.47759 -5e-6,1130.339 -5e-6,1299.6923 c 0,239.2667 193.964025,433.2308 433.230775,433.2308 l 433.23077,0 0,-472.6154 -236.30769,0 L 1024,787.69228 l 393.8462,472.61542 -236.3077,0 0,472.6154 433.2307,0 c 239.2668,0 433.2308,-193.9641 433.2308,-433.2308 0,-166.5153 -93.6072,-311.47656 -231.3846,-384.00002 5.0414,-28.83639 7.3846,-58.33547 7.3846,-88.61539 0,-282.76994 -229.23,-512 -512,-512 z"/>
</svg>
