<?xml version="1.0" encoding="UTF-8" standalone="no"?><svg xmlns="http://www.w3.org/2000/svg" xmlns:xlink="http://www.w3.org/1999/xlink" contentScriptType="application/ecmascript" contentStyleType="text/css" height="376px" preserveAspectRatio="none" style="width:563px;height:376px;" version="1.1" viewBox="0 0 563 376" width="563px" zoomAndPan="magnify"><defs><filter height="300%" id="fw3s9jp" width="300%" x="-1" y="-1"><feGaussianBlur result="blurOut" stdDeviation="2.0"/><feColorMatrix in="blurOut" result="blurOut2" type="matrix" values="0 0 0 0 0 0 0 0 0 0 0 0 0 0 0 0 0 0 .4 0"/><feOffset dx="4.0" dy="4.0" in="blurOut2" result="blurOut3"/><feBlend in="SourceGraphic" in2="blurOut3" mode="normal"/></filter><linearGradient id="gg2gj1p0" x1="0%" x2="100%" y1="50%" y2="50%"><stop offset="0%" stop-color="#F4F4F4"/><stop offset="100%" stop-color="#FFFFFF"/></linearGradient></defs><g><!--cluster Front End--><polygon fill="#FFFFFF" filter="url(#fw3s9jp)" points="22,176,104,176,111,198.2969,357,198.2969,357,280,22,280,22,176" style="stroke: #000000; stroke-width: 2.0;"/><line style="stroke: #000000; stroke-width: 2.0;" x1="22" x2="111" y1="198.2969" y2="198.2969"/><text fill="#000000" font-family="sans-serif" font-size="14" font-weight="bold" lengthAdjust="spacingAndGlyphs" textLength="76" x="26" y="190.9951">Front End</text><!--cluster Host--><path d="M381,179.5 C381,169.5 440.5,169.5 440.5,169.5 C440.5,169.5 500,169.5 500,179.5 L500,261.5 C500,271.5 440.5,271.5 440.5,271.5 C440.5,271.5 381,271.5 381,261.5 L381,179.5 " fill="#FFFFFF" filter="url(#fw3s9jp)" style="stroke: #000000; stroke-width: 2.0;"/><path d="M381,179.5 C381,189.5 440.5,189.5 440.5,189.5 C440.5,189.5 500,189.5 500,179.5 " fill="none" style="stroke: #000000; stroke-width: 2.0;"/><text fill="#000000" font-family="sans-serif" font-size="14" font-weight="bold" lengthAdjust="spacingAndGlyphs" textLength="103" x="389" y="203.4951">Hospedagem</text><!--entity GUI--><rect fill="url(#gg2gj1p0)" filter="url(#fw3s9jp)" height="52.5938" style="stroke: #383838; stroke-width: 1.5;" width="109" x="38.5" y="211"/><rect fill="url(#gg2gj1p0)" height="5" style="stroke: #383838; stroke-width: 1.5;" width="10" x="33.5" y="216"/><rect fill="url(#gg2gj1p0)" height="5" style="stroke: #383838; stroke-width: 1.5;" width="10" x="33.5" y="253.5938"/><text fill="#000000" font-family="sans-serif" font-size="14" lengthAdjust="spacingAndGlyphs" textLength="89" x="48.5" y="233.9951">Graphic User</text><text fill="#000000" font-family="sans-serif" font-size="14" lengthAdjust="spacingAndGlyphs" textLength="60" x="63" y="250.292">Interface</text><!--entity Cache--><rect fill="url(#gg2gj1p0)" filter="url(#fw3s9jp)" height="52.5938" style="stroke: #383838; stroke-width: 1.5;" width="123" x="217.5" y="211"/><rect fill="url(#gg2gj1p0)" height="5" style="stroke: #383838; stroke-width: 1.5;" width="10" x="212.5" y="216"/><rect fill="url(#gg2gj1p0)" height="5" style="stroke: #383838; stroke-width: 1.5;" width="10" x="212.5" y="253.5938"/><text fill="#000000" font-family="sans-serif" font-size="14" lengthAdjust="spacingAndGlyphs" textLength="103" x="227.5" y="233.9951">Service Worker</text><text fill="#000000" font-family="sans-serif" font-size="14" lengthAdjust="spacingAndGlyphs" textLength="44" x="257" y="250.292">Cache</text><!--entity Internet--><path d="M372,15.5 C372,12.5 374,10.5 377,10.5 C380,10.5 382,12.5 382,15.5 C382,12.5 384,10.5 387,10.5 C390,10.5 392,12.5 392,15.5 C392,12.5 394,10.5 397,10.5 C400,10.5 402,12.5 402,15.5 C402,12.5 404,10.5 407,10.5 C410,10.5 412,12.5 412,15.5 C412,12.5 414,10.5 417,10.5 C420,10.5 422,12.5 422,15.5 C422,12.5 424,10.5 427,10.5 C430,10.5 432,12.5 432,15.5 C432,12.5 434,10.5 437,10.5 C440,10.5 442,12.5 442,15.5 C442,12.5 444,10.5 447,10.5 C450,10.5 452,12.5 452,15.5 C452,12.5 454,10.5 457,10.5 C460,10.5 462,12.5 462,15.5 C462,12.5 464,10.5 467,10.5 C470,10.5 472,12.5 472,15.5 C472,12.5 474,10.5 477,10.5 C480,10.5 482,12.5 482,15.5 C482,12.5 484,10.5 487,10.5 C490,10.5 492,12.5 492,15.5 C492,12.5 494,10.5 497,10.5 C500,10.5 502,12.5 502,15.5 C502,12.5 504,10.5 507,10.5 C510,10.5 512,12.5 512,15.5 C515,15.5 517,17.5 517,20.5 C517,23.5 515,25.5 512,25.5 C515,25.5 517,27.5 517,30.5 C517,33.5 515,35.5 512,35.5 C515,35.5 517,37.5 517,40.5 C517,43.5 515,45.5 512,45.5 C515,45.5 517,47.5 517,50.5 C517,53.5 515,55.5 512,55.5 C512,58.5 509,60.5 507,60.5 C504,60.5 502,58.5 502,55.5 C502,58.5 499,60.5 497,60.5 C494,60.5 492,58.5 492,55.5 C492,58.5 489,60.5 487,60.5 C484,60.5 482,58.5 482,55.5 C482,58.5 479,60.5 477,60.5 C474,60.5 472,58.5 472,55.5 C472,58.5 469,60.5 467,60.5 C464,60.5 462,58.5 462,55.5 C462,58.5 459,60.5 457,60.5 C454,60.5 452,58.5 452,55.5 C452,58.5 449,60.5 447,60.5 C444,60.5 442,58.5 442,55.5 C442,58.5 439,60.5 437,60.5 C434,60.5 432,58.5 432,55.5 C432,58.5 429,60.5 427,60.5 C424,60.5 422,58.5 422,55.5 C422,58.5 419,60.5 417,60.5 C414,60.5 412,58.5 412,55.5 C412,58.5 409,60.5 407,60.5 C404,60.5 402,58.5 402,55.5 C402,58.5 399,60.5 397,60.5 C394,60.5 392,58.5 392,55.5 C392,58.5 389,60.5 387,60.5 C384,60.5 382,58.5 382,55.5 C382,58.5 379,60.5 377,60.5 C374,60.5 372,58.5 372,55.5 C369,55.5 367,53.5 367,50.5 C367,47.5 369,45.5 372,45.5 C369,45.5 367,43.5 367,40.5 C367,37.5 369,35.5 372,35.5 C369,35.5 367,33.5 367,30.5 C367,27.5 369,25.5 372,25.5 C369,25.5 367,23.5 367,20.5 C367,17.5 369,15.5 372,15.5 " fill="#FFFFFF" filter="url(#fw3s9jp)" style="stroke: #000000; stroke-width: 1.5;"/><text fill="#000000" font-family="sans-serif" font-size="14" lengthAdjust="spacingAndGlyphs" textLength="54" x="412" y="31.4951">Internet</text><text fill="#000000" font-family="sans-serif" font-size="14" lengthAdjust="spacingAndGlyphs" textLength="120" x="379" y="47.792">(primeiro acesso)</text><!--entity Files--><rect fill="url(#gg2gj1p0)" filter="url(#fw3s9jp)" height="36.2969" style="stroke: #383838; stroke-width: 1.5;" width="79" x="399.5" y="219.5"/><rect fill="url(#gg2gj1p0)" height="5" style="stroke: #383838; stroke-width: 1.5;" width="10" x="394.5" y="224.5"/><rect fill="url(#gg2gj1p0)" height="5" style="stroke: #383838; stroke-width: 1.5;" width="10" x="394.5" y="245.7969"/><text fill="#000000" font-family="sans-serif" font-size="14" lengthAdjust="spacingAndGlyphs" textLength="59" x="409.5" y="242.4951">Arquivos</text><!--entity HTTPS--><ellipse cx="539" cy="229.5" fill="#F8F8F8" filter="url(#fw3s9jp)" rx="8" ry="8" style="stroke: #383838; stroke-width: 2.0;"/><text fill="#000000" font-family="sans-serif" font-size="14" lengthAdjust="spacingAndGlyphs" textLength="46" x="516" y="251.4951">HTTPS</text><polygon fill="#ECECEC" filter="url(#fw3s9jp)" points="347,327,347,367.2656,531,367.2656,531,337,521,327,347,327" style="stroke: #383838; stroke-width: 1.0;"/><polygon fill="#ECECEC" points="347,327,347,367.2656,531,367.2656,531,337,521,327,443,327,439,255.772,435,327,347,327" style="stroke: #383838; stroke-width: 1.0;"/><line style="stroke: #383838; stroke-width: 1.0;" x1="521" x2="521" y1="327" y2="337"/><line style="stroke: #383838; stroke-width: 1.0;" x1="531" x2="521" y1="337" y2="337"/><text fill="#000000" font-family="sans-serif" font-size="13" lengthAdjust="spacingAndGlyphs" textLength="163" x="353" y="344.0669">Armazenamento estático</text><text fill="#000000" font-family="sans-serif" font-size="13" lengthAdjust="spacingAndGlyphs" textLength="109" x="353" y="359.1997">no Github pages.</text><path d="M147.855,237.5 C170.994,237.5 194.132,237.5 217.27,237.5 " fill="none" style="stroke: #383838; stroke-width: 1.0;"/><path d="M418.41,61.801 C387.688,100.3 330.187,172.357 299.511,210.798 " fill="none" style="stroke: #383838; stroke-width: 1.0;"/><path d="M461.396,61.738 C468.569,70.764 476.157,81.221 482,91.5 C505.628,133.069 523.803,186.368 532.79,215.377 " fill="none" style="stroke: #383838; stroke-width: 1.0; stroke-dasharray: 7.0,7.0;"/><polygon fill="#383838" points="534.257,220.161,535.4428,210.3838,532.7912,215.3807,527.7943,212.7291,534.257,220.161" style="stroke: #383838; stroke-width: 1.0;"/><text fill="#000000" font-family="sans-serif" font-size="13" lengthAdjust="spacingAndGlyphs" textLength="23" x="511" y="127.0669">use</text><path d="M439,61.801 C439,103.367 439,184.051 439,219.311 " fill="none" style="stroke: #383838; stroke-width: 1.0;"/><text fill="#000000" font-family="sans-serif" font-size="13" lengthAdjust="spacingAndGlyphs" textLength="33" x="440" y="104.5669">html,</text><text fill="#000000" font-family="sans-serif" font-size="13" lengthAdjust="spacingAndGlyphs" textLength="25" x="444" y="119.6997">css,</text><text fill="#000000" font-family="sans-serif" font-size="13" lengthAdjust="spacingAndGlyphs" textLength="14" x="449.5" y="134.8325">js,</text><text fill="#000000" font-family="sans-serif" font-size="13" lengthAdjust="spacingAndGlyphs" textLength="12" x="450.5" y="149.9653">...</text></g></svg>
