<?xml version="1.0" encoding="UTF-8" standalone="no"?><svg xmlns="http://www.w3.org/2000/svg" xmlns:xlink="http://www.w3.org/1999/xlink" contentScriptType="application/ecmascript" contentStyleType="text/css" height="271px" preserveAspectRatio="none" style="width:297px;height:271px;" version="1.1" viewBox="0 0 297 271" width="297px" zoomAndPan="magnify"><defs><filter height="300%" id="fnzec8u" width="300%" x="-1" y="-1"><feGaussianBlur result="blurOut" stdDeviation="2.0"/><feColorMatrix in="blurOut" result="blurOut2" type="matrix" values="0 0 0 0 0 0 0 0 0 0 0 0 0 0 0 0 0 0 .4 0"/><feOffset dx="4.0" dy="4.0" in="blurOut2" result="blurOut3"/><feBlend in="SourceGraphic" in2="blurOut3" mode="normal"/></filter><linearGradient id="gw4dpp40" x1="0%" x2="100%" y1="50%" y2="50%"><stop offset="0%" stop-color="#F4F4F4"/><stop offset="100%" stop-color="#FFFFFF"/></linearGradient></defs><g><!--cluster GUI--><polygon fill="#FFFFFF" filter="url(#fnzec8u)" points="33,24,66,24,73,46.2969,249,46.2969,249,128,33,128,33,24" style="stroke: #000000; stroke-width: 2.0;"/><line style="stroke: #000000; stroke-width: 2.0;" x1="33" x2="73" y1="46.2969" y2="46.2969"/><text fill="#000000" font-family="sans-serif" font-size="14" font-weight="bold" lengthAdjust="spacingAndGlyphs" textLength="27" x="37" y="38.9951">GUI</text><!--cluster Front End Engine--><polygon fill="#FFFFFF" filter="url(#fnzec8u)" points="22,177,162,177,169,199.2969,290,199.2969,290,264,22,264,22,177" style="stroke: #000000; stroke-width: 2.0;"/><line style="stroke: #000000; stroke-width: 2.0;" x1="22" x2="169" y1="199.2969" y2="199.2969"/><text fill="#000000" font-family="sans-serif" font-size="14" font-weight="bold" lengthAdjust="spacingAndGlyphs" textLength="134" x="26" y="191.9951">Front End Engine</text><!--entity Editor--><rect fill="url(#gw4dpp40)" filter="url(#fnzec8u)" height="52.5938" style="stroke: #383838; stroke-width: 1.5;" width="77" x="49.5" y="59"/><rect fill="url(#gw4dpp40)" height="5" style="stroke: #383838; stroke-width: 1.5;" width="10" x="44.5" y="64"/><rect fill="url(#gw4dpp40)" height="5" style="stroke: #383838; stroke-width: 1.5;" width="10" x="44.5" y="101.5938"/><text fill="#000000" font-family="sans-serif" font-size="14" lengthAdjust="spacingAndGlyphs" textLength="40" x="68" y="81.9951">Editor</text><text fill="#000000" font-family="sans-serif" font-size="14" lengthAdjust="spacingAndGlyphs" textLength="57" x="59.5" y="98.292">de texto</text><!--entity Output--><rect fill="url(#gw4dpp40)" filter="url(#fnzec8u)" height="52.5938" style="stroke: #383838; stroke-width: 1.5;" width="71" x="161.5" y="59"/><rect fill="url(#gw4dpp40)" height="5" style="stroke: #383838; stroke-width: 1.5;" width="10" x="156.5" y="64"/><rect fill="url(#gw4dpp40)" height="5" style="stroke: #383838; stroke-width: 1.5;" width="10" x="156.5" y="101.5938"/><text fill="#000000" font-family="sans-serif" font-size="14" lengthAdjust="spacingAndGlyphs" textLength="37" x="178.5" y="81.9951">Saída</text><text fill="#000000" font-family="sans-serif" font-size="14" lengthAdjust="spacingAndGlyphs" textLength="51" x="171.5" y="98.292">em tela</text><!--entity Parser--><rect fill="url(#gw4dpp40)" filter="url(#fnzec8u)" height="36.2969" style="stroke: #383838; stroke-width: 1.5;" width="64" x="38" y="212"/><rect fill="url(#gw4dpp40)" height="5" style="stroke: #383838; stroke-width: 1.5;" width="10" x="33" y="217"/><rect fill="url(#gw4dpp40)" height="5" style="stroke: #383838; stroke-width: 1.5;" width="10" x="33" y="238.2969"/><text fill="#000000" font-family="sans-serif" font-size="14" lengthAdjust="spacingAndGlyphs" textLength="44" x="48" y="234.9951">Parser</text><!--entity Executor--><rect fill="url(#gw4dpp40)" filter="url(#fnzec8u)" height="36.2969" style="stroke: #383838; stroke-width: 1.5;" width="81" x="192.5" y="212"/><rect fill="url(#gw4dpp40)" height="5" style="stroke: #383838; stroke-width: 1.5;" width="10" x="187.5" y="217"/><rect fill="url(#gw4dpp40)" height="5" style="stroke: #383838; stroke-width: 1.5;" width="10" x="187.5" y="238.2969"/><text fill="#000000" font-family="sans-serif" font-size="14" lengthAdjust="spacingAndGlyphs" textLength="61" x="202.5" y="234.9951">Executor</text><path d="M84.7403,112.306 C81.3353,139.262 76.049,181.1123 72.8185,206.6872 " fill="none" style="stroke: #383838; stroke-width: 1.0;"/><polygon fill="#383838" points="72.1617,211.8864,77.2582,203.4587,72.7884,206.9258,69.3213,202.456,72.1617,211.8864" style="stroke: #383838; stroke-width: 1.0;"/><text fill="#000000" font-family="sans-serif" font-size="13" lengthAdjust="spacingAndGlyphs" textLength="42" x="82" y="157.0669">código</text><path d="M102.2036,230 C126.471,230 160.079,230 187.151,230 " fill="none" style="stroke: #383838; stroke-width: 1.0;"/><polygon fill="#383838" points="192.474,230,183.474,226,187.474,230,183.474,234,192.474,230" style="stroke: #383838; stroke-width: 1.0;"/><text fill="#000000" font-family="sans-serif" font-size="13" lengthAdjust="spacingAndGlyphs" textLength="41" x="126.75" y="208.0669">árvore</text><text fill="#000000" font-family="sans-serif" font-size="13" lengthAdjust="spacingAndGlyphs" textLength="54" x="120.25" y="223.1997">sintática</text><path d="M228.677,211.8864 C222.767,188.4945 212.068,146.143 204.753,117.19 " fill="none" style="stroke: #383838; stroke-width: 1.0;"/><polygon fill="#383838" points="203.519,112.306,201.8441,122.0114,204.7431,117.1538,209.6007,120.0528,203.519,112.306" style="stroke: #383838; stroke-width: 1.0;"/></g></svg>
