<?xml version="1.0" encoding="UTF-8" standalone="no"?>
<!-- Created with Inkscape (http://www.inkscape.org/) -->

<svg
   xmlns:dc="http://purl.org/dc/elements/1.1/"
   xmlns:cc="http://creativecommons.org/ns#"
   xmlns:rdf="http://www.w3.org/1999/02/22-rdf-syntax-ns#"
   xmlns:svg="http://www.w3.org/2000/svg"
   xmlns="http://www.w3.org/2000/svg"
   xmlns:sodipodi="http://sodipodi.sourceforge.net/DTD/sodipodi-0.dtd"
   xmlns:inkscape="http://www.inkscape.org/namespaces/inkscape"
   width="1034.131mm"
   height="516.21198mm"
   viewBox="0 0 3664.2436 1829.0975"
   id="svg2"
   version="1.1"
   inkscape:version="0.91 r13725"
   inkscape:export-filename="/home/camaleaun/Dropbox/estagio/slides/ceplan.png"
   inkscape:export-xdpi="89.995201"
   inkscape:export-ydpi="89.995201"
   sodipodi:docname="assinatura.svg">
  <defs
     id="defs4">
    <clipPath
       id="clipPath4171"
       clipPathUnits="userSpaceOnUse">
      <path
         inkscape:connector-curvature="0"
         id="path4173"
         d="m 0,1463.278 2931.395,0 L 2931.395,0 0,0 0,1463.278 Z" />
    </clipPath>
  </defs>
  <sodipodi:namedview
     id="base"
     pagecolor="#ffffff"
     bordercolor="#666666"
     borderopacity="1.0"
     inkscape:pageopacity="0.0"
     inkscape:pageshadow="2"
     inkscape:zoom="0.24748737"
     inkscape:cx="-222.71781"
     inkscape:cy="95.063286"
     inkscape:document-units="px"
     inkscape:current-layer="layer1"
     showgrid="false"
     fit-margin-top="0"
     fit-margin-left="0"
     fit-margin-right="0"
     fit-margin-bottom="0"
     inkscape:window-width="1855"
     inkscape:window-height="1056"
     inkscape:window-x="65"
     inkscape:window-y="24"
     inkscape:window-maximized="1" />
  <metadata
     id="metadata7">
    <rdf:RDF>
      <cc:Work
         rdf:about="">
        <dc:format>image/svg+xml</dc:format>
        <dc:type
           rdf:resource="http://purl.org/dc/dcmitype/StillImage" />
        <dc:title></dc:title>
      </cc:Work>
    </rdf:RDF>
  </metadata>
  <g
     inkscape:label="Camada 1"
     inkscape:groupmode="layer"
     id="layer1"
     transform="translate(1806.4076,356.4722)">
    <g
       id="g11429">
      <path
         d="m -582.2236,845.18392 c 0,-85.20625 -69.08,-154.29875 -154.29875,-154.29875 -85.22125,0 -154.32875,69.0925 -154.32875,154.29875 0,85.2475 69.1075,154.32625 154.32875,154.32625 85.21875,0 154.29875,-69.07875 154.29875,-154.32625"
         style="fill:#ffffff;fill-opacity:1;fill-rule:nonzero;stroke:none"
         id="path4177"
         inkscape:connector-curvature="0" />
      <path
         d="m -753.74885,586.17142 c 0,0 -168.6775,-0.08 -378.61375,-0.08 -93.9838,0 -229.9325,-2.17 -229.9325,158.26125 l 0,148.8725 c 0,141.11753 135.9488,137.04623 229.9325,137.04623 l 44.215,0 166.535,0 0,-198.51498 c 0,-115.97125 91.825,-171.66375 185.09,-171.66375 113.01125,0 185.1025,71.48125 185.1025,173.66875 l 0,196.50998 167.22625,0 0,-285.91873 c 0,-158.26125 -132.20625,-158.18125 -227.17875,-158.18125 -1.3575,0 -90.02125,0.0287 -91.37875,0.0287 l -50.9975,-0.0287 z"
         style="fill:#ffffff;fill-opacity:1;fill-rule:nonzero;stroke:none"
         id="path4181"
         inkscape:connector-curvature="0" />
      <path
         d="m -992.74122,531.83492 c 0,0 168.68,0.0812 378.6175,0.0812 93.9825,0 229.92875,2.16875 229.92875,-158.25875 l 0,-148.87625 c 0,-141.11625 -135.94625,-137.04625 -229.92875,-137.04625 l -44.21875,0 -166.535,0 0,198.5175 c 0,115.96875 -91.82625,171.6625 -185.08753,171.6625 -113.015,0 -185.105,-71.4825 -185.105,-173.67 l 0,-196.51 -167.2262,0 0,285.9225 c 0,158.25875 132.2075,158.1775 227.1787,158.1775 1.3563,0 90.0225,-0.0263 91.3763,-0.0263 l 50.99998,0.0263 z"
         style="fill:#ffffff;fill-opacity:1;fill-rule:nonzero;stroke:none"
         id="path4185"
         inkscape:connector-curvature="0" />
      <path
         d="m -1164.2787,272.79805 c 0,85.20625 69.0912,154.32625 154.325,154.32625 85.22,0 154.30125,-69.12 154.30125,-154.32625 0,-85.23375 -69.08125,-154.30125 -154.30125,-154.30125 -85.2338,0 -154.325,69.0675 -154.325,154.30125"
         style="fill:#ffffff;fill-opacity:1;fill-rule:nonzero;stroke:none"
         id="path4189"
         inkscape:connector-curvature="0" />
      <path
         d="m 507.71165,289.12617 c 0,37.55875 34.535,58.07625 75.68875,58.07625 l 194.4225,0 0,-46.10375 -154.3925,0 c -6.92875,0 -17.3,-1.885 -17.3,-14.21875 l 0,-54.59875 147.22125,0 0,-34.0225 -147.22125,0 0,-66.37375 152.66875,0 c 18.06875,-2.39125 19.02375,-11.915 19.02375,-34.9375 l 0,-6.6125 -270.11125,0 0,198.79125 z"
         style="fill:#ffffff;fill-opacity:1;fill-rule:nonzero;stroke:none"
         id="path4193"
         inkscape:connector-curvature="0" />
      <path
         d="m 383.40753,265.48417 c 0,35.695 -15.845,35.615 -52.2675,35.615 l -75.1375,0 0,-169.215 75.1375,0 c 37.5675,0 52.4325,0.88875 52.4325,38.8125 0,3.3475 -0.165,89.9825 -0.165,94.7875 m -20.02875,-175.14875 -196.58125,0 0,256.8675 196.58125,0 c 76.09625,0 109.14875,-21.03375 110.58375,-92.68875 0.0462,-1.405 0.0462,-66.31875 0.0225,-67.41625 -1.12125,-70.7075 -34.22125,-96.7625 -110.60625,-96.7625"
         style="fill:#ffffff;fill-opacity:1;fill-rule:nonzero;stroke:none"
         id="path4197"
         inkscape:connector-curvature="0" />
      <path
         d="m 38.8799,125.45492 0,173.85125 -71.94375,0 c -32.4275,0 -53.17125,-10.58625 -53.17125,-48.43625 l 0,-160.995 -59.13875,0 c -29.16375,0 -30.4125,8.42375 -30.435,35.58 l 0,125.415 c 0,76.83625 30.63125,96.775 101.2675,96.775 0.3525,0 207.62625,-0.0125 207.62625,-0.0125 l 0,-257.7575 -63.7575,0 c -29.16125,0 -30.4175,8.42375 -30.4475,35.58"
         style="fill:#ffffff;fill-opacity:1;fill-rule:nonzero;stroke:none"
         id="path4201"
         inkscape:connector-curvature="0" />
      <path
         d="m 1266.9975,301.0988 c -35.4425,0 -39.9562,-19.68625 -40.2225,-49.8775 l 0,-70.8625 c 0,-30.55625 6.1913,-50.09375 41.8513,-50.09375 l 128.8425,0 c 12.3775,-4.43125 11.875,-15.9775 11.875,-39.93 l -186.1526,0 c -72.415,0 -96.4599,41.86125 -96.4599,108.45 l 0,40.5825 c 0.3862,66.36375 23.4475,107.835 95.4812,107.835 l 30.4925,0 128.2475,0 c 26.9825,0 30.0663,-7.205 30.4,-29.755 l 0,-16.34875 -144.355,0 z"
         style="fill:#ffffff;fill-opacity:1;fill-rule:nonzero;stroke:none"
         id="path4205"
         inkscape:connector-curvature="0" />
      <path
         d="m 1003.2109,189.1823 -73.99625,0 c -18.7875,0 -26.84125,-11.47625 -26.84125,-28.29625 0,-16.7775 8.05375,-29.04375 26.84125,-29.04375 l 136.32505,0 c 13.1212,-1.81125 17.0875,-7.48 18.2825,-19.5325 l 0,-21.975 -167.5613,0 c -63.8825,0 -104.7275,18.77125 -104.7275,75.18125 0,53.25 25.47875,73.505 85.44,73.505 l 0,0.11875 c 2.05625,0 61.8775,0.0312 79.6575,0.0312 17.7575,0 25.5525,12.73125 25.5525,28.265 0,16.80875 -7.9875,33.6625 -34.75375,33.6625 l -151.285,0 c 0,40.57625 17.71,46.105 35.3475,46.105 l 147.74875,0 c 63.9075,0 93.7825,-19.795 93.7825,-79.7675 0,-59.9925 -25.0462,-78.25375 -89.8125,-78.25375"
         style="fill:#ffffff;fill-opacity:1;fill-rule:nonzero;stroke:none"
         id="path4209"
         inkscape:connector-curvature="0" />
      <path
         d="m -67.885225,440.61967 c 0,-10.27 15.71375,-10.27 15.71375,-0.19625 l 0,68.9275 c 0,40.27625 -31.2175,60.5425 -61.799995,60.5425 -30.60875,0 -61.8375,-20.26625 -61.8375,-60.5425 l 0,-68.9275 c 0,-9.22 15.71374,-9.22 15.71374,0.19625 l 0,68.73125 c 0,60.5425 92.210005,60.5425 92.210005,0 l 0,-68.73125 z"
         style="fill:#ffffff;fill-opacity:1;fill-rule:nonzero;stroke:none"
         id="path4213"
         inkscape:connector-curvature="0" />
      <path
         d="m 79.1814,440.20155 c 0,-8.775 15.91875,-9.21375 15.91875,0 l 0,120.30125 c 0,10.4425 -14.43,11.51875 -18.85,4.19375 l -78.3625,-105.005 1.69125,28.92125 0,73.975 c 0,10.2575 -15.94125,10.4975 -15.94125,0 l 0,-120.09125 c 0,-10.48125 11.7475,-12.14625 16.9625,-4.41125 l 80.69625,107.90875 -2.115,-31.63125 0,-74.16125 z"
         style="fill:#ffffff;fill-opacity:1;fill-rule:nonzero;stroke:none"
         id="path4217"
         inkscape:connector-curvature="0" />
      <path
         d="m 130.90865,437.92005 c 0,-10.50875 15.715,-10.29 15.715,0 l 0,125.3025 c 0,9.6225 -15.715,10.08375 -15.715,0 l 0,-125.3025 z"
         style="fill:#ffffff;fill-opacity:1;fill-rule:nonzero;stroke:none"
         id="path4221"
         inkscape:connector-curvature="0" />
      <path
         d="m 183.11452,443.5603 c -3.97375,-8.99875 10.5,-14.89125 14.68125,-5.83625 l 53.85,107.26 52.59875,-106.89875 c 3.345,-8.56625 17.615,-3.94125 14.44625,5.475 l -60.35125,122.16125 c -2.93375,5.46875 -10.4675,6.71875 -14.0225,-0.63125 l -61.2025,-121.53 z"
         style="fill:#ffffff;fill-opacity:1;fill-rule:nonzero;stroke:none"
         id="path4225"
         inkscape:connector-curvature="0" />
      <path
         d="m 370.03827,554.62117 82.76625,0 c 8.7925,0 10.03625,13.82875 0,13.82875 l -88.24,0 c -5.83,0 -9.60875,-4.17 -9.60875,-9.22125 l 0,-115.02875 c 0,-4.85125 3.77875,-9.02375 9.60875,-9.02375 l 88.45375,0 c 8.96125,0 8.57875,13.4075 -0.21375,13.4075 l -82.76625,0 0,47.13625 78.775,0 c 8.3875,0 8.7925,13.45625 0,13.45625 l -78.775,0 0,45.445 z"
         style="fill:#ffffff;fill-opacity:1;fill-rule:nonzero;stroke:none"
         id="path4229"
         inkscape:connector-curvature="0" />
      <path
         d="m 511.0014,508.5128 42.35,0 c 27.43625,0 39.38625,-12.7925 38.9575,-28.4825 -0.21625,-17.225 -14.67375,-31.015 -38.9575,-31.015 l -42.35,0 0,59.4975 z m 0,13.235 0,40.665 c 0,9.60875 -15.32,9.60875 -15.32,0.175 l 0,-120.27625 c 0,-4.39125 3.17875,-7.33125 7.79125,-7.33125 l 49.66375,0 c 36.25625,0 54.6575,20.5525 54.6575,45.05 0,21.165 -11.52,36.47125 -37.28125,40.85125 l 33.93625,36.65625 c 8.005,7.96625 -3.53875,17.1975 -10.46875,10.07375 l -42.325,-45.86375 -40.65375,0 z"
         style="fill:#ffffff;fill-opacity:1;fill-rule:nonzero;stroke:none"
         id="path4233"
         inkscape:connector-curvature="0" />
      <path
         d="m 659.37915,535.32792 c 5.42625,17.39375 28.6825,21.18125 45.45875,21.18125 17.8025,0 45.4575,-5.44375 45.4575,-26.6 0,-18.2525 -21.9875,-19.705 -45.05375,-21.62375 -28.91625,-2.26875 -59.915,-5.0125 -59.915,-36.21875 0,-27.68125 31.8575,-40.05125 57.4325,-40.05125 21.965,0 49.42375,5.27 58.2425,29.14625 3.15375,8.3825 -11.1125,12.19 -14.24375,5.04375 -6.31,-15.93 -28.7275,-18.6425 -43.8325,-18.6425 -14.02875,0 -41.2725,5.62875 -41.2725,24.70125 0,18.2225 20.98125,20.12125 45.2875,22.01 28.7025,2.5225 59.4875,3.99375 59.4875,35.4375 0,32.02 -35.84875,41.8725 -61.59,41.8725 -21.365,0 -54.03875,-7.305 -60.96875,-32.46625 -2.53375,-9.20875 13.815,-12.3575 15.51,-3.79"
         style="fill:#ffffff;fill-opacity:1;fill-rule:nonzero;stroke:none"
         id="path4237"
         inkscape:connector-curvature="0" />
      <path
         d="m 802.2344,437.92005 c 0,-10.50875 15.7275,-10.29 15.7275,0 l 0,125.3025 c 0,9.6225 -15.7275,10.08375 -15.7275,0 l 0,-125.3025 z"
         style="fill:#ffffff;fill-opacity:1;fill-rule:nonzero;stroke:none"
         id="path4241"
         inkscape:connector-curvature="0" />
      <path
         d="m 868.8774,554.83105 40.24375,0 c 31.38125,0 47.13125,-26.5875 47.13125,-52.98625 0,-26.44375 -15.75,-53.26125 -47.13125,-53.26125 l -40.24375,0 0,106.2475 z m -5.47375,13.61875 c -5.185,0 -9.63375,-4.17 -9.63375,-8.98125 l 0,-115.46625 c 0,-4.84 4.44875,-8.82625 9.63375,-8.82625 l 45.7175,0 c 41.65875,0 62.4275,33.33625 62.4275,66.66875 0,33.28625 -20.76875,66.605 -62.4275,66.605 l -45.7175,0 z"
         style="fill:#ffffff;fill-opacity:1;fill-rule:nonzero;stroke:none"
         id="path4245"
         inkscape:connector-curvature="0" />
      <path
         d="m 1057.6079,454.00292 -33.0762,66.05375 65.9625,0 -32.8863,-66.05375 z m -39.3875,79.2225 -16.9675,33.1375 c -3.7775,7.76875 -17.6175,2.28875 -13.81375,-6.1125 l 63.28625,-124.65625 c 1.24,-2.71 4.1813,-3.995 6.8825,-3.995 2.7,0 5.2813,1.285 6.715,3.995 l 63.07,124.0525 c 5.45,9.005 -10.085,14.22125 -14.0262,6.075 l -16.3263,-32.49625 -78.82,0 z"
         style="fill:#ffffff;fill-opacity:1;fill-rule:nonzero;stroke:none"
         id="path4249"
         inkscape:connector-curvature="0" />
      <path
         d="m 1170.2251,554.83105 40.2225,0 c 31.4263,0 47.1538,-26.5875 47.1538,-52.98625 0,-26.44375 -15.7275,-53.26125 -47.1538,-53.26125 l -40.2225,0 0,106.2475 z m -5.4737,13.61875 c -5.2563,0 -9.6538,-4.17 -9.6538,-8.98125 l 0,-115.46625 c 0,-4.84 4.3975,-8.82625 9.6538,-8.82625 l 45.6962,0 c 41.6813,0 62.4238,33.33625 62.4238,66.66875 0,33.28625 -20.7425,66.605 -62.4238,66.605 l -45.6962,0 z"
         style="fill:#ffffff;fill-opacity:1;fill-rule:nonzero;stroke:none"
         id="path4253"
         inkscape:connector-curvature="0" />
      <path
         d="m 1323.7847,554.62117 82.7662,0 c 8.7963,0 10.085,13.82875 0,13.82875 l -88.1887,0 c -5.9062,0 -9.68,-4.17 -9.68,-9.22125 l 0,-115.02875 c 0,-4.85125 3.7738,-9.02375 9.68,-9.02375 l 88.4287,0 c 8.9888,0 8.5563,13.4075 -0.24,13.4075 l -82.7662,0 0,47.13625 78.7987,0 c 8.4138,0 8.7951,13.45625 0,13.45625 l -78.7987,0 0,45.445 z"
         style="fill:#ffffff;fill-opacity:1;fill-rule:nonzero;stroke:none"
         id="path4257"
         inkscape:connector-curvature="0" />
      <path
         d="m -160.3841,784.46492 38.99875,0 c 30.42375,0 45.66625,-25.7875 45.66625,-51.3725 0,-25.58375 -15.2425,-51.61125 -45.66625,-51.61125 l -38.99875,0 0,102.98375 z m -5.29875,13.165 c -5.04375,0 -9.32625,-4.07125 -9.32625,-8.7125 l 0,-111.86875 c 0,-4.685 4.2825,-8.54875 9.32625,-8.54875 l 44.2975,0 c 40.3975,0 60.4975,32.30625 60.4975,64.5925 0,32.27 -20.1,64.5375 -60.4975,64.5375 l -44.2975,0 z"
         style="fill:#ffffff;fill-opacity:1;fill-rule:nonzero;stroke:none"
         id="path4261"
         inkscape:connector-curvature="0" />
      <path
         d="m -23.241725,731.46805 c 0,33.26625 21.9525,54.36 50.56,54.36 27.4075,0 49.96875,-20.255 49.96875,-54.36 0,-26.175 -17.2725,-47.1475 -42.26625,-51.175 -6.1,-0.8425 -11.96125,-0.8425 -17.65625,0 -24.56375,3.86625 -40.60625,23.57125 -40.60625,51.175 m -15.2175,-0.6025 c 0,-31.86625 21.49375,-59.1275 53.81625,-64.17625 7.5175,-1.0125 14.40625,-0.8325 21.51625,0 31.24875,4.85 55.435,30.8525 55.435,64.17625 0,42.24125 -30.46125,69.02625 -64.99,69.02625 -36.53625,0 -65.7775,-26.01375 -65.7775,-69.02625"
         style="fill:#ffffff;fill-opacity:1;fill-rule:nonzero;stroke:none"
         id="path4265"
         inkscape:connector-curvature="0" />
      <path
         d="m 223.9409,784.24517 80.195,0 c 8.53125,0 9.74125,13.385 0,13.385 l -85.48875,0 c -5.68125,0 -9.325,-4.07125 -9.325,-8.9275 l 0,-111.47875 c 0,-4.65 3.64375,-8.725 9.325,-8.725 l 85.69125,0 c 8.7375,0 8.32875,12.9825 -0.2025,12.9825 l -80.195,0 0,45.74375 76.35,0 c 8.1025,0 8.51875,12.95375 0,12.95375 l -76.35,0 0,44.06625 z"
         style="fill:#ffffff;fill-opacity:1;fill-rule:nonzero;stroke:none"
         id="path4269"
         inkscape:connector-curvature="0" />
      <path
         d="m 346.92315,765.5733 c 5.27125,16.84875 27.81625,20.49375 44.06875,20.49375 17.275,0 44.0425,-5.26875 44.0425,-25.765 0,-17.7075 -21.31375,-19.09 -43.63875,-20.9225 -28.03375,-2.295 -58.07,-4.87125 -58.07,-35.1225 0,-26.79 30.8725,-38.79375 55.60875,-38.79375 21.34375,0 47.9425,5.0675 56.475,28.22 3.05875,8.1375 -10.7775,11.76 -13.84,4.905 -6.0675,-15.49125 -27.81625,-18.13875 -42.42125,-18.13875 -13.59875,0 -39.99,5.5175 -39.99,24.0075 0,17.64125 20.29625,19.5075 43.83875,21.2875 27.845,2.45625 57.67125,3.88375 57.67125,34.32125 0,31.06875 -34.7025,40.59375 -59.67625,40.59375 -20.7225,0 -52.3975,-7.1 -59.10125,-31.4475 -2.4375,-8.91 13.4075,-11.95625 15.0325,-3.63875"
         style="fill:#ffffff;fill-opacity:1;fill-rule:nonzero;stroke:none"
         id="path4273"
         inkscape:connector-curvature="0" />
      <path
         d="m 583.63452,668.28942 c 9.96625,0 9.96625,14.0725 0,14.0725 l -45.265,0 c 0,36.5475 0.19125,73.68625 0.19125,110.2125 0,5.05625 -4.2775,7.51625 -7.69625,7.51625 -3.46375,0 -7.3375,-2.46 -7.3375,-7.51625 l 0,-110.2125 -45.05,0 c -9.55875,0 -9.55875,-14.0725 0,-14.0725 l 105.1575,0 z"
         style="fill:#ffffff;fill-opacity:1;fill-rule:nonzero;stroke:none"
         id="path4277"
         inkscape:connector-curvature="0" />
      <path
         d="m 649.74653,686.79517 -32.04875,63.96 63.955,0 -31.90625,-63.96 z m -38.1425,76.735 -16.46875,32.06125 c -3.6575,7.545 -17.03875,2.27125 -13.40625,-5.86 l 61.32625,-120.82625 c 1.21875,-2.63 4.08625,-3.85875 6.69125,-3.85875 2.6775,0 5.0925,1.22875 6.50125,3.85875 l 61.11125,120.2075 c 5.28125,8.75 -9.75125,13.82625 -13.57625,5.87375 l -15.81875,-31.45625 -76.36,0 z"
         style="fill:#ffffff;fill-opacity:1;fill-rule:nonzero;stroke:none"
         id="path4281"
         inkscape:connector-curvature="0" />
      <path
         d="m 766.8144,784.46492 39.0025,0 c 30.45,0 45.67125,-25.7875 45.67125,-51.3725 0,-25.58375 -15.22125,-51.61125 -45.67125,-51.61125 l -39.0025,0 0,102.98375 z m -5.285,13.165 c -5.08625,0 -9.3425,-4.07125 -9.3425,-8.7125 l 0,-111.86875 c 0,-4.685 4.25625,-8.54875 9.3425,-8.54875 l 44.2875,0 c 40.39,0 60.515,32.30625 60.515,64.5925 0,32.27 -20.125,64.5375 -60.515,64.5375 l -44.2875,0 z"
         style="fill:#ffffff;fill-opacity:1;fill-rule:nonzero;stroke:none"
         id="path4285"
         inkscape:connector-curvature="0" />
      <path
         d="m 902.19652,731.46805 c 0,33.26625 21.915,54.36 50.5725,54.36 27.3875,0 49.92378,-20.255 49.92378,-54.36 0,-26.175 -17.23003,-47.1475 -42.23128,-51.175 -6.0675,-0.8425 -11.97125,-0.8425 -17.66125,0 -24.5425,3.86625 -40.60375,23.57125 -40.60375,51.175 m -15.22375,-0.6025 c 0,-31.86625 21.53375,-59.1275 53.79625,-64.17625 7.5275,-1.0125 14.415,-0.8325 21.53625,0 31.2825,4.85 55.42253,30.8525 55.42253,64.17625 0,42.24125 -30.45128,69.02625 -64.95878,69.02625 -36.54375,0 -65.79625,-26.01375 -65.79625,-69.02625"
         style="fill:#ffffff;fill-opacity:1;fill-rule:nonzero;stroke:none"
         id="path4289"
         inkscape:connector-curvature="0" />
      <path
         d="m 1174.4145,784.46492 38.9813,0 c 30.4937,0 45.6937,-25.7875 45.6937,-51.3725 0,-25.58375 -15.2,-51.61125 -45.6937,-51.61125 l -38.9813,0 0,102.98375 z m -5.2825,13.165 c -5.0912,0 -9.3212,-4.07125 -9.3212,-8.7125 l 0,-111.86875 c 0,-4.685 4.23,-8.54875 9.3212,-8.54875 l 44.2638,0 c 40.415,0 60.515,32.30625 60.515,64.5925 0,32.27 -20.1,64.5375 -60.515,64.5375 l -44.2638,0 z"
         style="fill:#ffffff;fill-opacity:1;fill-rule:nonzero;stroke:none"
         id="path4293"
         inkscape:connector-curvature="0" />
      <path
         d="m 1326.5825,784.24517 80.16,0 c 8.5775,0 9.775,13.385 0,13.385 l -85.4412,0 c -5.69,0 -9.345,-4.07125 -9.345,-8.9275 l 0,-111.47875 c 0,-4.65 3.655,-8.725 9.345,-8.725 l 85.6787,0 c 8.725,0 8.34,12.9825 -0.2375,12.9825 l -80.16,0 0,45.74375 76.335,0 c 8.0788,0 8.5338,12.95375 0,12.95375 l -76.335,0 0,44.06625 z"
         style="fill:#ffffff;fill-opacity:1;fill-rule:nonzero;stroke:none"
         id="path4297"
         inkscape:connector-curvature="0" />
      <path
         d="m -160.64773,994.77867 c 5.2775,16.81873 27.8075,20.46253 44.04125,20.46253 17.28625,0 44.07875,-5.2113 44.07875,-25.77628 0,-17.63875 -21.32125,-19.0675 -43.65875,-20.875 -28.0125,-2.2725 -58.055,-4.9075 -58.055,-35.1575 0,-26.805 30.8675,-38.76625 55.615,-38.76625 21.32375,0 47.93125,5.0725 56.4575,28.22125 3.035,8.11875 -10.78,11.7625 -13.815,4.87375 -6.08125,-15.42625 -27.83,-18.08625 -42.45125,-18.08625 -13.5625,0 -39.98375,5.49625 -39.98375,23.94125 0,17.695 20.3075,19.49625 43.85625,21.355 27.82375,2.44 57.66875,3.8725 57.66875,34.3225 0,31.03623 -34.71375,40.60123 -59.7125,40.60123 -20.70375,0 -52.37,-7.1125 -59.07375,-31.47498 -2.4325,-8.955 13.4,-11.96 15.0325,-3.64125"
         style="fill:#ffffff;fill-opacity:1;fill-rule:nonzero;stroke:none"
         id="path4301"
         inkscape:connector-curvature="0" />
      <path
         d="m 5.50465,915.96642 -32.09125,63.975 63.9675,0 -31.87625,-63.975 z m -38.17375,76.77375 -16.47875,32.07873 c -3.63125,7.505 -17.03,2.2163 -13.36,-5.8775 L -1.1991,898.07267 c 1.2075,-2.635 4.05125,-3.79875 6.70375,-3.79875 2.63375,0 5.0725,1.16375 6.48375,3.79875 l 61.1175,120.21123 c 5.2875,8.7513 -9.7325,13.8188 -13.6075,5.9075 l -15.83375,-31.45123 -76.33375,0 z"
         style="fill:#ffffff;fill-opacity:1;fill-rule:nonzero;stroke:none"
         id="path4305"
         inkscape:connector-curvature="0" />
      <path
         d="m 180.55227,902.57767 c 0,-8.515 15.44,-8.92 15.44,0 l 0,116.56003 c 0,10.1687 -14.01125,11.1912 -18.27875,4.0537 l -75.94625,-101.72123 1.62,28.01625 0,71.67248 c 0,9.9175 -15.42375,10.1375 -15.42375,0 l 0,-116.35373 c 0,-10.13875 11.365,-11.75 16.4325,-4.25625 l 78.1775,104.56628 -2.02125,-30.67003 0,-71.8675 z"
         style="fill:#ffffff;fill-opacity:1;fill-rule:nonzero;stroke:none"
         id="path4309"
         inkscape:connector-curvature="0" />
      <path
         d="m 320.52178,897.47392 c 9.94,0 9.94,14.04875 0,14.04875 l -45.29125,0 c 0,36.5375 0.21,73.6875 0.21,110.23753 0,5.0775 -4.2675,7.5462 -7.7125,7.5462 -3.4425,0 -7.3075,-2.4687 -7.3075,-7.5462 l 0,-110.23753 -45.0725,0 c -9.5225,0 -9.5225,-14.04875 0,-14.04875 l 105.17375,0 z"
         style="fill:#ffffff;fill-opacity:1;fill-rule:nonzero;stroke:none"
         id="path4313"
         inkscape:connector-curvature="0" />
      <path
         d="m 374.89915,915.96642 -32.105,63.975 63.9625,0 -31.8575,-63.975 z m -38.1625,76.77375 -16.46625,32.07873 c -3.64375,7.505 -17.04125,2.2163 -13.3975,-5.8775 l 61.33375,-120.86873 c 1.22,-2.635 4.04,-3.79875 6.6925,-3.79875 2.63,0 5.09,1.16375 6.5,3.79875 l 61.11125,120.21123 c 5.2825,8.7513 -9.75125,13.8188 -13.62375,5.9075 l -15.8225,-31.45123 -76.3275,0 z"
         style="fill:#ffffff;fill-opacity:1;fill-rule:nonzero;stroke:none"
         id="path4317"
         inkscape:connector-curvature="0" />
      <path
         d="m 598.40753,1021.7598 c -9.75375,4.4613 -20.7225,7.3063 -30.44875,7.3063 -34.7475,0 -66.01125,-28.415 -66.01125,-68.61005 0,-33.31 23.7575,-59.7075 55.01875,-64.5825 23.755,-3.24 44.5,2.635 60.5125,19.49125 6.09375,6.90625 -4.85125,15.2225 -10.54,9.125 -13.79,-14.6225 -29.87375,-16.85125 -47.725,-14.815 -24.94875,3.885 -42.63875,21.52875 -42.63875,50.955 0,30.87875 23.7575,54.4438 51.76875,54.4438 7.5275,0 15.8175,-2.025 23.56375,-5.8775 6.285,-3.2413 12.37875,-8.1225 16.63375,-13.6188 4.66,-6.90125 17.06375,0.6275 11.78,8.1075 -5.49625,7.7488 -13.19125,13.8287 -21.91375,18.075"
         style="fill:#ffffff;fill-opacity:1;fill-rule:nonzero;stroke:none"
         id="path4321"
         inkscape:connector-curvature="0" />
      <path
         d="m 694.74653,915.96642 -32.0975,63.975 63.98125,0 -31.88375,-63.975 z m -38.16625,76.77375 -16.47,32.07873 c -3.63,7.505 -17.04,2.2163 -13.405,-5.8775 l 61.32375,-120.86873 c 1.22125,-2.635 4.08625,-3.79875 6.7175,-3.79875 2.60625,0 5.08875,1.16375 6.47875,3.79875 l 61.13375,120.21123 c 5.2325,8.7513 -9.75,13.8188 -13.62375,5.9075 l -15.8225,-31.45123 -76.3325,0 z"
         style="fill:#ffffff;fill-opacity:1;fill-rule:nonzero;stroke:none"
         id="path4325"
         inkscape:connector-curvature="0" />
      <path
         d="m 854.39627,897.47392 c 9.9425,0 9.9425,14.04875 0,14.04875 l -45.28875,0 c 0,36.5375 0.2125,73.6875 0.2125,110.23753 0,5.0775 -4.2525,7.5462 -7.72,7.5462 -3.41625,0 -7.2875,-2.4687 -7.2875,-7.5462 l 0,-110.23753 -45.0975,0 c -9.5125,0 -9.5125,-14.04875 0,-14.04875 l 105.18125,0 z"
         style="fill:#ffffff;fill-opacity:1;fill-rule:nonzero;stroke:none"
         id="path4329"
         inkscape:connector-curvature="0" />
      <path
         d="m 908.76753,915.96642 -32.04875,63.975 63.98,0 -31.93125,-63.975 z m -38.145,76.77375 -16.465,32.07873 c -3.65625,7.505 -17.04,2.2163 -13.3825,-5.8775 l 61.3,-120.86873 c 1.245,-2.635 4.08625,-3.79875 6.6925,-3.79875 2.63125,0 5.09,1.16375 6.52375,3.79875 l 61.115,120.21123 c 5.255,8.7513 -9.7525,13.8188 -13.6025,5.9075 l -15.8675,-31.45123 -76.31375,0 z"
         style="fill:#ffffff;fill-opacity:1;fill-rule:nonzero;stroke:none"
         id="path4333"
         inkscape:connector-curvature="0" />
      <path
         d="m 1006.5666,968.7728 41.0338,0 c 26.5787,0 38.145,-12.3725 37.715,-27.61375 -0.1688,-16.67 -14.1713,-30.03 -37.715,-30.03 l -41.0338,0 0,57.64375 z m 0,12.7775 0,39.4275 c 0,9.3513 -14.8675,9.3513 -14.8675,0.1812 l 0,-116.57495 c 0,-4.2325 3.08375,-7.11 7.52875,-7.11 l 48.13375,0 c 35.1325,0 53.01,19.92875 53.01,43.685 0,20.48125 -11.16,35.315 -36.135,39.60875 l 32.8863,35.5362 c 7.6962,7.7026 -3.465,16.6226 -10.1575,9.7438 l -41.0363,-44.4975 -39.3625,0 z"
         style="fill:#ffffff;fill-opacity:1;fill-rule:nonzero;stroke:none"
         id="path4337"
         inkscape:connector-curvature="0" />
      <path
         d="m 1120.2337,900.35117 c 0,-10.14625 15.2238,-9.985 15.2238,0 l 0,121.40873 c 0,9.3163 -15.2238,9.7363 -15.2238,0 l 0,-121.40873 z"
         style="fill:#ffffff;fill-opacity:1;fill-rule:nonzero;stroke:none"
         id="path4341"
         inkscape:connector-curvature="0" />
      <path
         d="m 1255.0262,902.57767 c 0,-8.515 15.4425,-8.92 15.4425,0 l 0,116.56003 c 0,10.1687 -14.055,11.1912 -18.31,4.0537 l -75.9525,-101.72123 1.6725,28.01625 0,71.67248 c 0,9.9175 -15.4637,10.1375 -15.4637,0 l 0,-116.35373 c 0,-10.13875 11.3787,-11.75 16.4437,-4.25625 l 78.1775,104.56628 -2.01,-30.67003 0,-71.8675 z"
         style="fill:#ffffff;fill-opacity:1;fill-rule:nonzero;stroke:none"
         id="path4345"
         inkscape:connector-curvature="0" />
      <path
         d="m 1344.8894,915.96642 -32.0262,63.975 63.955,0 -31.9288,-63.975 z m -38.1437,76.77375 -16.4188,32.07873 c -3.68,7.505 -17.0887,2.2163 -13.4075,-5.8775 l 61.3038,-120.86873 c 1.2162,-2.635 4.0875,-3.79875 6.6662,-3.79875 2.7025,0 5.1138,1.16375 6.525,3.79875 l 61.1125,120.21123 c 5.2813,8.7513 -9.73,13.8188 -13.5762,5.9075 l -15.8213,-31.45123 -76.3837,0 z"
         style="fill:#ffffff;fill-opacity:1;fill-rule:nonzero;stroke:none"
         id="path4349"
         inkscape:connector-curvature="0" />
    </g>
  </g>
</svg>
