<?xml version="1.0" encoding="UTF-8" standalone="no"?>
<!-- Created with Inkscape (http://www.inkscape.org/) -->

<svg
   xmlns:dc="http://purl.org/dc/elements/1.1/"
   xmlns:cc="http://creativecommons.org/ns#"
   xmlns:rdf="http://www.w3.org/1999/02/22-rdf-syntax-ns#"
   xmlns:svg="http://www.w3.org/2000/svg"
   xmlns="http://www.w3.org/2000/svg"
   xmlns:sodipodi="http://sodipodi.sourceforge.net/DTD/sodipodi-0.dtd"
   xmlns:inkscape="http://www.inkscape.org/namespaces/inkscape"
   width="257.48053mm"
   height="36.762268mm"
   viewBox="0 0 912.33258 130.26"
   id="svg2"
   version="1.1"
   inkscape:version="0.91 r13725"
   inkscape:export-filename="/home/camaleaun/Dropbox/estagio/slides/ceplan.png"
   inkscape:export-xdpi="89.995201"
   inkscape:export-ydpi="89.995201"
   sodipodi:docname="ceplan.svg">
  <defs
     id="defs4">
    <clipPath
       id="clipPath4171"
       clipPathUnits="userSpaceOnUse">
      <path
         inkscape:connector-curvature="0"
         id="path4173"
         d="m 0,1463.278 2931.395,0 L 2931.395,0 0,0 0,1463.278 Z" />
    </clipPath>
    <clipPath
       id="clipPath4796"
       clipPathUnits="userSpaceOnUse">
      <path
         inkscape:connector-curvature="0"
         id="path4798"
         d="m 0,510.236 708.661,0 L 708.661,0 0,0 0,510.236 Z" />
    </clipPath>
    <clipPath
       id="clipPath4812"
       clipPathUnits="userSpaceOnUse">
      <path
         inkscape:connector-curvature="0"
         id="path4814"
         d="m 591.448,14.48 55.693,0 0,12.158 -55.693,0 0,-12.158 z" />
    </clipPath>
    <clipPath
       id="clipPath4834"
       clipPathUnits="userSpaceOnUse">
      <path
         inkscape:connector-curvature="0"
         id="path4836"
         d="m 56.693,125.197 595.275,0 0,225.004 -595.275,0 0,-225.004 z" />
    </clipPath>
  </defs>
  <sodipodi:namedview
     id="base"
     pagecolor="#ffffff"
     bordercolor="#666666"
     borderopacity="1.0"
     inkscape:pageopacity="0.0"
     inkscape:pageshadow="2"
     inkscape:zoom="0.7"
     inkscape:cx="-141.95239"
     inkscape:cy="376.71343"
     inkscape:document-units="px"
     inkscape:current-layer="layer1"
     showgrid="false"
     fit-margin-top="0"
     fit-margin-left="0"
     fit-margin-right="0"
     fit-margin-bottom="0"
     inkscape:window-width="1855"
     inkscape:window-height="1056"
     inkscape:window-x="65"
     inkscape:window-y="24"
     inkscape:window-maximized="1" />
  <metadata
     id="metadata7">
    <rdf:RDF>
      <cc:Work
         rdf:about="">
        <dc:format>image/svg+xml</dc:format>
        <dc:type
           rdf:resource="http://purl.org/dc/dcmitype/StillImage" />
        <dc:title />
      </cc:Work>
    </rdf:RDF>
  </metadata>
  <g
     inkscape:label="Camada 1"
     inkscape:groupmode="layer"
     id="layer1"
     transform="translate(911.17295,-600.76447)">
    <g
       id="g11230"
       transform="matrix(3,0,0,3,910.01329,-1331.7887)">
      <g
         transform="matrix(1.25,0,0,-1.25,-447.33783,651.18027)"
         id="g6194">
        <path
           inkscape:connector-curvature="0"
           id="path6196"
           style="fill:#231f20;fill-opacity:1;fill-rule:nonzero;stroke:none"
           d="m 0,0 0,-1.813 c 0,-0.518 -0.81,-0.506 -0.81,-0.011 l 0,6.486 c 0,0.237 0.191,0.394 0.416,0.394 l 2.443,0 C 3.997,5.056 4.91,3.761 4.91,2.466 4.91,1.115 3.986,0 2.015,0 L 0,0 Z m 0,0.732 2.015,0 c 1.498,0 2.117,0.878 2.094,1.734 C 4.098,3.389 3.367,4.324 2.06,4.324 L 0,4.324 0,0.732 Z" />
      </g>
      <g
         transform="matrix(1.25,0,0,-1.25,-438.81121,653.82564)"
         id="g6198">
        <path
           inkscape:connector-curvature="0"
           id="path6200"
           style="fill:#231f20;fill-opacity:1;fill-rule:nonzero;stroke:none"
           d="m 0,0 c -0.303,0 -0.428,0.146 -0.428,0.417 l 0,6.463 c 0,0.528 0.834,0.528 0.834,0 l 0,-6.137 4.211,0 C 5.191,0.743 5.191,0 4.617,0 L 0,0 Z" />
      </g>
      <g
         transform="matrix(1.25,0,0,-1.25,-429.62208,651.46139)"
         id="g6202">
        <path
           inkscape:connector-curvature="0"
           id="path6204"
           style="fill:#231f20;fill-opacity:1;fill-rule:nonzero;stroke:none"
           d="m 0,0 -0.911,-1.779 c -0.204,-0.417 -0.947,-0.124 -0.744,0.326 l 3.401,6.7 c 0.067,0.146 0.225,0.214 0.371,0.214 0.146,0 0.282,-0.068 0.361,-0.214 L 5.867,-1.419 C 6.159,-1.903 5.326,-2.184 5.112,-1.745 L 4.233,0 0,0 Z M 2.117,4.256 0.338,0.71 l 3.547,0 -1.768,3.546 z" />
      </g>
      <g
         transform="matrix(1.25,0,0,-1.25,-414.49421,645.21252)"
         id="g6206">
        <path
           inkscape:connector-curvature="0"
           id="path6208"
           style="fill:#231f20;fill-opacity:1;fill-rule:nonzero;stroke:none"
           d="m 0,0 c 0,0.473 0.855,0.495 0.855,0 l 0,-6.463 c 0,-0.563 -0.776,-0.619 -1.013,-0.225 l -4.211,5.641 0.09,-1.554 0,-3.975 c 0,-0.551 -0.856,-0.562 -0.856,0 l 0,6.452 c 0,0.563 0.631,0.653 0.913,0.237 L 0.112,-5.686 0,-3.986 0,0 Z" />
      </g>
      <g
         transform="matrix(1.25,0,0,-1.25,-410.09146,651.46139)"
         id="g6210">
        <path
           inkscape:connector-curvature="0"
           id="path6212"
           style="fill:#231f20;fill-opacity:1;fill-rule:nonzero;stroke:none"
           d="m 0,0 -0.911,-1.779 c -0.204,-0.417 -0.947,-0.124 -0.743,0.326 l 3.4,6.7 c 0.067,0.146 0.225,0.214 0.371,0.214 0.147,0 0.282,-0.068 0.361,-0.214 L 5.867,-1.419 C 6.16,-1.903 5.326,-2.184 5.112,-1.745 L 4.234,0 0,0 Z M 2.117,4.256 0.339,0.71 l 3.546,0 -1.768,3.546 z" />
      </g>
      <g
         transform="matrix(1.25,0,0,-1.25,-400.77596,653.82564)"
         id="g6214">
        <path
           inkscape:connector-curvature="0"
           id="path6216"
           style="fill:#231f20;fill-opacity:1;fill-rule:nonzero;stroke:none"
           d="m 0,0 c -0.304,0 -0.427,0.146 -0.427,0.417 l 0,6.463 c 0,0.528 0.833,0.528 0.833,0 l 0,-6.137 4.21,0 C 5.191,0.743 5.191,0 4.616,0 L 0,0 Z" />
      </g>
      <g
         transform="matrix(1.25,0,0,-1.25,-388.09646,644.86064)"
         id="g6218">
        <path
           inkscape:connector-curvature="0"
           id="path6220"
           style="fill:#231f20;fill-opacity:1;fill-rule:nonzero;stroke:none"
           d="m 0,0 c 0.552,0 0.552,-0.777 0,-0.777 l -2.511,0 c 0,-2.026 0.011,-4.087 0.011,-6.114 0,-0.281 -0.236,-0.416 -0.427,-0.416 -0.192,0 -0.406,0.135 -0.406,0.416 l 0,6.114 -2.499,0 c -0.53,0 -0.53,0.777 0,0.777 L 0,0 Z" />
      </g>
      <g
         transform="matrix(1.25,0,0,-1.25,-387.33783,649.19539)"
         id="g6222">
        <path
           inkscape:connector-curvature="0"
           id="path6224"
           style="fill:#231f20;fill-opacity:1;fill-rule:nonzero;stroke:none"
           d="m 0,0 c 0,1.768 1.193,3.277 2.983,3.558 0.417,0.056 0.8,0.045 1.194,0 C 5.911,3.288 7.251,1.846 7.251,0 7.251,-2.342 5.562,-3.828 3.647,-3.828 1.621,-3.828 0,-2.387 0,0 m 0.844,-0.034 c 0,-1.846 1.216,-3.017 2.803,-3.017 1.521,0 2.771,1.126 2.771,3.017 0,1.453 -0.958,2.613 -2.343,2.838 -0.337,0.045 -0.664,0.045 -0.979,0 C 1.734,2.589 0.844,1.498 0.844,-0.034" />
      </g>
      <g
         transform="matrix(1.25,0,0,-1.25,-366.11808,645.21252)"
         id="g6226">
        <path
           inkscape:connector-curvature="0"
           id="path6228"
           style="fill:#231f20;fill-opacity:1;fill-rule:nonzero;stroke:none"
           d="m 0,0 c 0,0.473 0.856,0.495 0.856,0 l 0,-6.463 c 0,-0.563 -0.777,-0.619 -1.013,-0.225 l -4.212,5.641 0.09,-1.554 0,-3.975 c 0,-0.551 -0.855,-0.562 -0.855,0 l 0,6.452 c 0,0.563 0.631,0.653 0.913,0.237 L 0.113,-5.686 0,-3.986 0,0 Z" />
      </g>
      <g
         transform="matrix(1.25,0,0,-1.25,-363.29033,649.19539)"
         id="g6230">
        <path
           inkscape:connector-curvature="0"
           id="path6232"
           style="fill:#231f20;fill-opacity:1;fill-rule:nonzero;stroke:none"
           d="M 0,0 C 0,1.768 1.193,3.277 2.984,3.558 3.4,3.614 3.783,3.603 4.177,3.558 5.911,3.288 7.251,1.846 7.251,0 7.251,-2.342 5.562,-3.828 3.648,-3.828 1.622,-3.828 0,-2.387 0,0 m 0.844,-0.034 c 0,-1.846 1.216,-3.017 2.804,-3.017 1.52,0 2.77,1.126 2.77,3.017 0,1.453 -0.958,2.613 -2.343,2.838 -0.337,0.045 -0.664,0.045 -0.979,0 C 1.734,2.589 0.844,1.498 0.844,-0.034" />
      </g>
      <g
         transform="matrix(1.25,0,0,-1.25,-351.23183,650.68702)"
         id="g6234">
        <path
           inkscape:connector-curvature="0"
           id="path6236"
           style="fill:#231f20;fill-opacity:1;fill-rule:nonzero;stroke:none"
           d="m 0,0 0,-2.184 c 0,-0.518 -0.821,-0.518 -0.821,-0.012 l 0,6.463 c 0,0.237 0.168,0.394 0.416,0.394 l 2.668,0 c 1.948,0 2.939,-1.104 2.939,-2.42 0,-1.138 -0.619,-1.96 -2.004,-2.196 L 5.022,-1.926 C 5.45,-2.354 4.83,-2.849 4.459,-2.466 L 2.184,0 0,0 Z m 0,0.709 2.274,0 c 1.476,0 2.118,0.687 2.095,1.532 C 4.358,3.164 3.581,3.907 2.274,3.907 L 0,3.907 0,0.709 Z" />
      </g>
      <g
         transform="matrix(1.25,0,0,-1.25,-336.17396,644.86064)"
         id="g6238">
        <path
           inkscape:connector-curvature="0"
           id="path6240"
           style="fill:#231f20;fill-opacity:1;fill-rule:nonzero;stroke:none"
           d="m 0,0 c 0.552,0 0.552,-0.777 0,-0.777 l -2.511,0 c 0,-2.026 0.011,-4.087 0.011,-6.114 0,-0.281 -0.236,-0.416 -0.427,-0.416 -0.192,0 -0.406,0.135 -0.406,0.416 l 0,6.114 -2.499,0 c -0.53,0 -0.53,0.777 0,0.777 L 0,0 Z" />
      </g>
      <g
         transform="matrix(1.25,0,0,-1.25,-333.43096,652.89665)"
         id="g6242">
        <path
           inkscape:connector-curvature="0"
           id="path6244"
           style="fill:#231f20;fill-opacity:1;fill-rule:nonzero;stroke:none"
           d="m 0,0 4.448,0 c 0.473,0 0.54,-0.743 0,-0.743 l -4.74,0 c -0.316,0 -0.518,0.225 -0.518,0.495 l 0,6.181 c 0,0.26 0.202,0.485 0.518,0.485 l 4.751,0 c 0.484,0 0.462,-0.721 -0.011,-0.721 l -4.448,0 0,-2.533 4.233,0 c 0.451,0 0.473,-0.721 0,-0.721 L 0,2.443 0,0 Z" />
      </g>
      <g
         transform="matrix(1.25,0,0,-1.25,-443.04496,674.14189)"
         id="g6246">
        <path
           inkscape:connector-curvature="0"
           id="path6248"
           style="fill:#231f20;fill-opacity:1;fill-rule:nonzero;stroke:none"
           d="m 0,0 c -0.433,-0.198 -0.919,-0.325 -1.352,-0.325 -1.54,0 -2.928,1.262 -2.928,3.045 0,1.478 1.054,2.65 2.442,2.866 C -0.784,5.73 0.135,5.469 0.846,4.721 1.117,4.414 0.63,4.045 0.378,4.315 -0.234,4.964 -0.947,5.063 -1.739,4.973 -2.847,4.802 -3.631,4.018 -3.631,2.712 c 0,-1.37 1.054,-2.415 2.298,-2.415 0.333,0 0.702,0.091 1.044,0.262 C -0.01,0.702 0.26,0.919 0.449,1.162 0.657,1.468 1.207,1.135 0.973,0.802 0.729,0.459 0.387,0.189 0,0" />
      </g>
      <g
         transform="matrix(1.25,0,0,-1.25,-439.65896,673.68027)"
         id="g6250">
        <path
           inkscape:connector-curvature="0"
           id="path6252"
           style="fill:#231f20;fill-opacity:1;fill-rule:nonzero;stroke:none"
           d="m 0,0 3.558,0 c 0.38,0 0.434,-0.595 0,-0.595 l -3.792,0 c -0.252,0 -0.415,0.181 -0.415,0.397 l 0,4.945 c 0,0.208 0.163,0.388 0.415,0.388 l 3.802,0 c 0.387,0 0.37,-0.577 -0.01,-0.577 l -3.558,0 0,-2.027 3.388,0 c 0.36,0 0.378,-0.576 0,-0.576 L 0,1.955 0,0 Z" />
      </g>
      <g
         transform="matrix(1.25,0,0,-1.25,-428.19721,667.53152)"
         id="g6254">
        <path
           inkscape:connector-curvature="0"
           id="path6256"
           style="fill:#231f20;fill-opacity:1;fill-rule:nonzero;stroke:none"
           d="m 0,0 c 0,0.378 0.685,0.396 0.685,0 l 0,-5.171 c 0,-0.451 -0.622,-0.496 -0.811,-0.18 l -3.37,4.513 0.072,-1.243 0,-3.18 c 0,-0.442 -0.684,-0.451 -0.684,0 l 0,5.162 c 0,0.451 0.504,0.522 0.729,0.189 L 0.09,-4.55 0,-3.189 0,0 Z" />
      </g>
      <g
         transform="matrix(1.25,0,0,-1.25,-420.24921,667.24964)"
         id="g6258">
        <path
           inkscape:connector-curvature="0"
           id="path6260"
           style="fill:#231f20;fill-opacity:1;fill-rule:nonzero;stroke:none"
           d="m 0,0 c 0.441,0 0.441,-0.622 0,-0.622 l -2.01,0 c 0,-1.622 0.009,-3.27 0.009,-4.892 0,-0.225 -0.189,-0.333 -0.342,-0.333 -0.152,0 -0.324,0.108 -0.324,0.333 l 0,4.892 -2.001,0 c -0.423,0 -0.423,0.622 0,0.622 L 0,0 Z" />
      </g>
      <g
         transform="matrix(1.25,0,0,-1.25,-418.04496,671.91227)"
         id="g6262">
        <path
           inkscape:connector-curvature="0"
           id="path6264"
           style="fill:#231f20;fill-opacity:1;fill-rule:nonzero;stroke:none"
           d="m 0,0 0,-1.748 c 0,-0.414 -0.657,-0.414 -0.657,-0.009 l 0,5.172 c 0,0.189 0.135,0.315 0.333,0.315 l 2.135,0 c 1.558,0 2.351,-0.883 2.351,-1.937 0,-0.91 -0.496,-1.568 -1.604,-1.757 L 4.018,-1.54 C 4.36,-1.883 3.865,-2.279 3.567,-1.973 L 1.748,0 0,0 Z m 0,0.567 1.819,0 C 3,0.567 3.513,1.117 3.496,1.793 3.486,2.532 2.865,3.126 1.819,3.126 L 0,3.126 0,0.567 Z" />
      </g>
      <g
         transform="matrix(1.25,0,0,-1.25,-411.68658,670.71814)"
         id="g6266">
        <path
           inkscape:connector-curvature="0"
           id="path6268"
           style="fill:#231f20;fill-opacity:1;fill-rule:nonzero;stroke:none"
           d="m 0,0 c 0,1.414 0.955,2.621 2.388,2.847 0.333,0.045 0.64,0.035 0.955,0 C 4.73,2.631 5.802,1.477 5.802,0 5.802,-1.874 4.451,-3.064 2.92,-3.064 1.298,-3.064 0,-1.911 0,0 m 0.676,-0.027 c 0,-1.478 0.973,-2.415 2.244,-2.415 1.215,0 2.216,0.901 2.216,2.415 0,1.161 -0.766,2.09 -1.874,2.27 -0.271,0.036 -0.531,0.036 -0.784,0 C 1.388,2.072 0.676,1.198 0.676,-0.027" />
      </g>
      <g
         transform="matrix(1.25,0,0,-1.25,-399.68621,674.42364)"
         id="g6270">
        <path
           inkscape:connector-curvature="0"
           id="path6272"
           style="fill:#231f20;fill-opacity:1;fill-rule:nonzero;stroke:none"
           d="m 0,0 c -0.225,0 -0.415,0.18 -0.415,0.388 l 0,4.964 c 0,0.207 0.19,0.378 0.415,0.378 l 1.965,0 C 3.758,5.73 4.649,4.298 4.649,2.865 4.649,1.432 3.758,0 1.965,0 L 0,0 Z m 0.234,0.585 1.731,0 c 1.351,0 2.027,1.145 2.027,2.28 0,1.135 -0.676,2.288 -2.027,2.288 l -1.731,0 0,-4.568 z" />
      </g>
      <g
         transform="matrix(1.25,0,0,-1.25,-391.58008,673.68027)"
         id="g6274">
        <path
           inkscape:connector-curvature="0"
           id="path6276"
           style="fill:#231f20;fill-opacity:1;fill-rule:nonzero;stroke:none"
           d="m 0,0 3.559,0 c 0.378,0 0.432,-0.595 0,-0.595 l -3.793,0 c -0.253,0 -0.414,0.181 -0.414,0.397 l 0,4.945 c 0,0.208 0.161,0.388 0.414,0.388 l 3.801,0 c 0.387,0 0.37,-0.577 -0.008,-0.577 l -3.559,0 0,-2.027 3.387,0 c 0.361,0 0.378,-0.576 0,-0.576 L 0,1.955 0,0 Z" />
      </g>
      <g
         transform="matrix(1.25,0,0,-1.25,-381.31371,673.68027)"
         id="g6278">
        <path
           inkscape:connector-curvature="0"
           id="path6280"
           style="fill:#231f20;fill-opacity:1;fill-rule:nonzero;stroke:none"
           d="m 0,0 3.559,0 c 0.378,0 0.431,-0.595 0,-0.595 l -3.793,0 c -0.253,0 -0.415,0.181 -0.415,0.397 l 0,4.945 c 0,0.208 0.162,0.388 0.415,0.388 l 3.801,0 c 0.387,0 0.37,-0.577 -0.008,-0.577 l -3.559,0 0,-2.027 3.387,0 c 0.361,0 0.378,-0.576 0,-0.576 L 0,1.955 0,0 Z" />
      </g>
      <g
         transform="matrix(1.25,0,0,-1.25,-374.59396,674.42364)"
         id="g6282">
        <path
           inkscape:connector-curvature="0"
           id="path6284"
           style="fill:#231f20;fill-opacity:1;fill-rule:nonzero;stroke:none"
           d="m 0,0 c -0.225,0 -0.415,0.18 -0.415,0.388 l 0,4.964 c 0,0.207 0.19,0.378 0.415,0.378 l 1.965,0 C 3.758,5.73 4.649,4.298 4.649,2.865 4.649,1.432 3.758,0 1.965,0 L 0,0 Z m 0.234,0.585 1.731,0 c 1.351,0 2.027,1.145 2.027,2.28 0,1.135 -0.676,2.288 -2.027,2.288 l -1.731,0 0,-4.568 z" />
      </g>
      <g
         transform="matrix(1.25,0,0,-1.25,-361.52146,667.55352)"
         id="g6286">
        <path
           inkscape:connector-curvature="0"
           id="path6288"
           style="fill:#231f20;fill-opacity:1;fill-rule:nonzero;stroke:none"
           d="m 0,0 c 0,0.441 0.675,0.441 0.675,0.009 l 0,-2.965 c 0,-1.729 -1.342,-2.603 -2.657,-2.603 -1.316,0 -2.658,0.874 -2.658,2.603 l 0,2.965 c 0,0.396 0.676,0.396 0.676,-0.009 l 0,-2.956 c 0,-2.603 3.964,-2.603 3.964,0 L 0,0 Z" />
      </g>
      <g
         transform="matrix(1.25,0,0,-1.25,-353.82221,674.14189)"
         id="g6290">
        <path
           inkscape:connector-curvature="0"
           id="path6292"
           style="fill:#231f20;fill-opacity:1;fill-rule:nonzero;stroke:none"
           d="m 0,0 c -0.433,-0.198 -0.919,-0.325 -1.352,-0.325 -1.54,0 -2.928,1.262 -2.928,3.045 0,1.478 1.055,2.65 2.442,2.866 C -0.784,5.73 0.135,5.469 0.846,4.721 1.117,4.414 0.63,4.045 0.378,4.315 -0.234,4.964 -0.947,5.063 -1.739,4.973 -2.847,4.802 -3.631,4.018 -3.631,2.712 c 0,-1.37 1.054,-2.415 2.298,-2.415 0.333,0 0.702,0.091 1.044,0.262 C -0.01,0.702 0.26,0.919 0.45,1.162 0.657,1.468 1.207,1.135 0.973,0.802 0.729,0.459 0.387,0.189 0,0" />
      </g>
      <g
         transform="matrix(1.25,0,0,-1.25,-350.42533,672.53202)"
         id="g6294">
        <path
           inkscape:connector-curvature="0"
           id="path6296"
           style="fill:#231f20;fill-opacity:1;fill-rule:nonzero;stroke:none"
           d="m 0,0 -0.729,-1.423 c -0.163,-0.334 -0.757,-0.1 -0.594,0.261 l 2.72,5.36 C 1.451,4.316 1.578,4.37 1.694,4.37 1.812,4.37 1.919,4.316 1.982,4.198 L 4.694,-1.135 C 4.928,-1.523 4.262,-1.747 4.091,-1.396 L 3.388,0 0,0 Z m 1.694,3.406 -1.423,-2.838 2.838,0 -1.415,2.838 z" />
      </g>
      <g
         transform="matrix(1.25,0,0,-1.25,-338.70383,674.14189)"
         id="g6298">
        <path
           inkscape:connector-curvature="0"
           id="path6300"
           style="fill:#231f20;fill-opacity:1;fill-rule:nonzero;stroke:none"
           d="m 0,0 c -0.307,-0.145 -0.631,-0.243 -0.955,-0.289 l -0.118,-0.324 c 0.523,0.045 0.758,-0.306 0.758,-0.621 0,-0.938 -1.478,-1.037 -1.883,-0.361 -0.172,0.342 0.27,0.613 0.459,0.307 0.18,-0.289 0.838,-0.316 0.838,0.035 0,0.271 -0.424,0.316 -0.631,0.235 l -0.207,0.234 0.153,0.469 c -1.45,0.117 -2.694,1.342 -2.694,3.035 0,1.478 1.055,2.65 2.442,2.866 C -0.784,5.73 0.135,5.469 0.847,4.721 1.117,4.414 0.63,4.045 0.378,4.315 -0.234,4.964 -0.947,5.063 -1.739,4.973 -2.847,4.802 -3.631,4.018 -3.631,2.712 c 0,-1.37 1.054,-2.415 2.298,-2.415 0.333,0 0.702,0.091 1.044,0.262 0.279,0.143 0.55,0.36 0.739,0.603 C 0.657,1.468 1.207,1.135 0.973,0.802 0.729,0.459 0.387,0.189 0,0" />
      </g>
      <g
         transform="matrix(1.25,0,0,-1.25,-335.30696,672.53202)"
         id="g6302">
        <path
           inkscape:connector-curvature="0"
           id="path6304"
           style="fill:#231f20;fill-opacity:1;fill-rule:nonzero;stroke:none"
           d="m 0,0 -0.729,-1.423 c -0.162,-0.334 -0.757,-0.1 -0.594,0.261 l 2.72,5.36 C 1.451,4.316 1.578,4.37 1.694,4.37 1.812,4.37 1.919,4.316 1.982,4.198 L 4.694,-1.135 C 4.928,-1.523 4.262,-1.747 4.091,-1.396 L 3.388,0 0,0 Z m 1.694,3.406 -1.423,-2.838 2.838,0 -1.415,2.838 z M 0.496,5.154 C 0.262,4.784 0.758,4.55 0.938,4.829 1.099,5.136 1.433,4.982 1.685,4.821 2.181,4.514 2.712,4.595 2.955,5.091 3.145,5.397 2.622,5.694 2.442,5.316 2.181,4.874 1.776,5.541 1.217,5.541 0.973,5.541 0.694,5.469 0.496,5.154" />
      </g>
      <g
         transform="matrix(1.25,0,0,-1.25,-329.05996,670.71814)"
         id="g6306">
        <path
           inkscape:connector-curvature="0"
           id="path6308"
           style="fill:#231f20;fill-opacity:1;fill-rule:nonzero;stroke:none"
           d="m 0,0 c 0,1.414 0.955,2.621 2.388,2.847 0.333,0.045 0.64,0.035 0.955,0 C 4.73,2.631 5.802,1.477 5.802,0 5.802,-1.874 4.451,-3.064 2.92,-3.064 1.298,-3.064 0,-1.911 0,0 m 0.676,-0.027 c 0,-1.478 0.973,-2.415 2.244,-2.415 1.216,0 2.216,0.901 2.216,2.415 0,1.161 -0.766,2.09 -1.874,2.27 -0.271,0.036 -0.531,0.036 -0.784,0 C 1.388,2.072 0.676,1.198 0.676,-0.027" />
      </g>
      <g
         transform="matrix(1.25,0,0,-1.25,-317.05921,674.42364)"
         id="g6310">
        <path
           inkscape:connector-curvature="0"
           id="path6312"
           style="fill:#231f20;fill-opacity:1;fill-rule:nonzero;stroke:none"
           d="m 0,0 c -0.225,0 -0.415,0.18 -0.415,0.388 l 0,4.964 c 0,0.207 0.19,0.378 0.415,0.378 l 1.963,0 C 3.756,5.73 4.649,4.298 4.649,2.865 4.649,1.432 3.756,0 1.963,0 L 0,0 Z m 0.234,0.585 1.729,0 C 3.315,0.585 3.99,1.73 3.99,2.865 3.99,4 3.315,5.153 1.963,5.153 l -1.729,0 0,-4.568 z" />
      </g>
      <g
         transform="matrix(1.25,0,0,-1.25,-310.20371,670.71814)"
         id="g6314">
        <path
           inkscape:connector-curvature="0"
           id="path6316"
           style="fill:#231f20;fill-opacity:1;fill-rule:nonzero;stroke:none"
           d="m 0,0 c 0,1.414 0.955,2.621 2.388,2.847 0.333,0.045 0.64,0.035 0.954,0 C 4.73,2.631 5.802,1.477 5.802,0 5.802,-1.874 4.45,-3.064 2.919,-3.064 1.297,-3.064 0,-1.911 0,0 m 0.676,-0.027 c 0,-1.478 0.973,-2.415 2.243,-2.415 1.217,0 2.216,0.901 2.216,2.415 0,1.161 -0.765,2.09 -1.873,2.27 C 2.991,2.279 2.73,2.279 2.478,2.243 1.387,2.072 0.676,1.198 0.676,-0.027" />
      </g>
      <g
         transform="matrix(1.25,0,0,-1.25,-447.16758,684.97089)"
         id="g6318">
        <path
           inkscape:connector-curvature="0"
           id="path6320"
           style="fill:#231f20;fill-opacity:1;fill-rule:nonzero;stroke:none"
           d="m 0,0 0,-1.45 c 0,-0.414 -0.648,-0.406 -0.648,-0.009 l 0,5.189 c 0,0.189 0.152,0.316 0.333,0.316 l 1.955,0 C 3.198,4.046 3.928,3.009 3.928,1.973 3.928,0.892 3.189,0 1.613,0 L 0,0 Z m 0,0.586 1.613,0 c 1.198,0 1.694,0.702 1.675,1.387 C 3.279,2.712 2.695,3.46 1.649,3.46 L 0,3.46 0,0.586 Z" />
      </g>
      <g
         transform="matrix(1.25,0,0,-1.25,-440.34471,687.08777)"
         id="g6322">
        <path
           inkscape:connector-curvature="0"
           id="path6324"
           style="fill:#231f20;fill-opacity:1;fill-rule:nonzero;stroke:none"
           d="m 0,0 c -0.244,0 -0.343,0.117 -0.343,0.334 l 0,5.171 c 0,0.423 0.667,0.423 0.667,0 l 0,-4.91 3.37,0 C 4.153,0.595 4.153,0 3.694,0 L 0,0 Z" />
      </g>
      <g
         transform="matrix(1.25,0,0,-1.25,-432.99433,685.19627)"
         id="g6326">
        <path
           inkscape:connector-curvature="0"
           id="path6328"
           style="fill:#231f20;fill-opacity:1;fill-rule:nonzero;stroke:none"
           d="m 0,0 -0.73,-1.423 c -0.162,-0.334 -0.756,-0.1 -0.595,0.261 l 2.721,5.36 C 1.45,4.316 1.576,4.37 1.694,4.37 1.811,4.37 1.918,4.316 1.982,4.198 L 4.694,-1.135 C 4.928,-1.523 4.261,-1.747 4.091,-1.396 L 3.387,0 0,0 Z M 1.694,3.406 0.27,0.568 l 2.838,0 -1.414,2.838 z" />
      </g>
      <g
         transform="matrix(1.25,0,0,-1.25,-420.89221,680.19577)"
         id="g6330">
        <path
           inkscape:connector-curvature="0"
           id="path6332"
           style="fill:#231f20;fill-opacity:1;fill-rule:nonzero;stroke:none"
           d="m 0,0 c 0,0.378 0.685,0.396 0.685,0 l 0,-5.171 c 0,-0.451 -0.621,-0.496 -0.811,-0.18 l -3.37,4.513 0.073,-1.243 0,-3.18 c 0,-0.442 -0.685,-0.451 -0.685,0 l 0,5.162 c 0,0.451 0.504,0.522 0.73,0.189 L 0.09,-4.55 0,-3.189 0,0 Z" />
      </g>
      <g
         transform="matrix(1.25,0,0,-1.25,-417.37021,685.19627)"
         id="g6334">
        <path
           inkscape:connector-curvature="0"
           id="path6336"
           style="fill:#231f20;fill-opacity:1;fill-rule:nonzero;stroke:none"
           d="m 0,0 -0.729,-1.423 c -0.163,-0.334 -0.757,-0.1 -0.595,0.261 l 2.721,5.36 C 1.451,4.316 1.577,4.37 1.694,4.37 1.812,4.37 1.919,4.316 1.982,4.198 L 4.694,-1.135 C 4.928,-1.523 4.262,-1.747 4.091,-1.396 L 3.388,0 0,0 Z m 1.694,3.406 -1.423,-2.838 2.838,0 -1.415,2.838 z" />
      </g>
      <g
         transform="matrix(1.25,0,0,-1.25,-409.91808,687.08777)"
         id="g6338">
        <path
           inkscape:connector-curvature="0"
           id="path6340"
           style="fill:#231f20;fill-opacity:1;fill-rule:nonzero;stroke:none"
           d="m 0,0 c -0.243,0 -0.342,0.117 -0.342,0.334 l 0,5.171 c 0,0.423 0.666,0.423 0.666,0 l 0,-4.91 3.37,0 C 4.153,0.595 4.153,0 3.694,0 L 0,0 Z" />
      </g>
      <g
         transform="matrix(1.25,0,0,-1.25,-399.78508,679.91389)"
         id="g6342">
        <path
           inkscape:connector-curvature="0"
           id="path6344"
           style="fill:#231f20;fill-opacity:1;fill-rule:nonzero;stroke:none"
           d="m 0,0 c 0.442,0 0.442,-0.622 0,-0.622 l -2.009,0 c 0,-1.622 0.009,-3.27 0.009,-4.892 0,-0.225 -0.189,-0.333 -0.343,-0.333 -0.153,0 -0.324,0.108 -0.324,0.333 l 0,4.892 -2,0 C -5.09,-0.622 -5.09,0 -4.667,0 L 0,0 Z" />
      </g>
      <g
         transform="matrix(1.25,0,0,-1.25,-399.17896,683.38239)"
         id="g6346">
        <path
           inkscape:connector-curvature="0"
           id="path6348"
           style="fill:#231f20;fill-opacity:1;fill-rule:nonzero;stroke:none"
           d="m 0,0 c 0,1.414 0.955,2.621 2.388,2.847 0.333,0.045 0.639,0.035 0.954,0 C 4.73,2.631 5.802,1.478 5.802,0 5.802,-1.874 4.45,-3.064 2.919,-3.064 1.297,-3.064 0,-1.911 0,0 m 0.676,-0.027 c 0,-1.478 0.973,-2.415 2.243,-2.415 1.216,0 2.216,0.901 2.216,2.415 0,1.161 -0.765,2.09 -1.873,2.27 -0.271,0.036 -0.533,0.036 -0.784,0 C 1.387,2.072 0.676,1.198 0.676,-0.027" />
      </g>
      <g
         transform="matrix(1.25,0,0,-1.25,-382.20146,680.19577)"
         id="g6350">
        <path
           inkscape:connector-curvature="0"
           id="path6352"
           style="fill:#231f20;fill-opacity:1;fill-rule:nonzero;stroke:none"
           d="m 0,0 c 0,0.378 0.685,0.396 0.685,0 l 0,-5.171 c 0,-0.451 -0.622,-0.496 -0.811,-0.18 l -3.37,4.513 0.072,-1.243 0,-3.18 c 0,-0.442 -0.684,-0.451 -0.684,0 l 0,5.162 c 0,0.451 0.504,0.522 0.729,0.189 L 0.09,-4.55 0,-3.189 0,0 Z" />
      </g>
      <g
         transform="matrix(1.25,0,0,-1.25,-379.94096,683.38239)"
         id="g6354">
        <path
           inkscape:connector-curvature="0"
           id="path6356"
           style="fill:#231f20;fill-opacity:1;fill-rule:nonzero;stroke:none"
           d="m 0,0 c 0,1.414 0.955,2.621 2.388,2.847 0.333,0.045 0.64,0.035 0.954,0 C 4.73,2.631 5.802,1.478 5.802,0 5.802,-1.874 4.45,-3.064 2.919,-3.064 1.297,-3.064 0,-1.911 0,0 m 0.676,-0.027 c 0,-1.478 0.973,-2.415 2.243,-2.415 1.217,0 2.216,0.901 2.216,2.415 0,1.161 -0.765,2.09 -1.873,2.27 C 2.991,2.279 2.73,2.279 2.478,2.243 1.387,2.072 0.676,1.198 0.676,-0.027" />
      </g>
      <g
         transform="matrix(1.25,0,0,-1.25,-370.29283,684.57652)"
         id="g6358">
        <path
           inkscape:connector-curvature="0"
           id="path6360"
           style="fill:#231f20;fill-opacity:1;fill-rule:nonzero;stroke:none"
           d="m 0,0 0,-1.748 c 0,-0.414 -0.657,-0.414 -0.657,-0.009 l 0,5.172 c 0,0.189 0.135,0.315 0.333,0.315 l 2.135,0 c 1.558,0 2.351,-0.883 2.351,-1.937 0,-0.91 -0.496,-1.568 -1.604,-1.757 L 4.018,-1.54 C 4.36,-1.883 3.865,-2.279 3.567,-1.973 L 1.748,0 0,0 Z m 0,0.567 1.819,0 C 3,0.567 3.513,1.117 3.496,1.793 3.486,2.532 2.865,3.126 1.819,3.126 L 0,3.126 0,0.567 Z" />
      </g>
      <g
         transform="matrix(1.25,0,0,-1.25,-358.24571,679.91389)"
         id="g6362">
        <path
           inkscape:connector-curvature="0"
           id="path6364"
           style="fill:#231f20;fill-opacity:1;fill-rule:nonzero;stroke:none"
           d="m 0,0 c 0.441,0 0.441,-0.622 0,-0.622 l -2.01,0 c 0,-1.622 0.009,-3.27 0.009,-4.892 0,-0.225 -0.189,-0.333 -0.342,-0.333 -0.152,0 -0.324,0.108 -0.324,0.333 l 0,4.892 -2.001,0 c -0.423,0 -0.423,0.622 0,0.622 L 0,0 Z" />
      </g>
      <g
         transform="matrix(1.25,0,0,-1.25,-356.05246,686.34452)"
         id="g6366">
        <path
           inkscape:connector-curvature="0"
           id="path6368"
           style="fill:#231f20;fill-opacity:1;fill-rule:nonzero;stroke:none"
           d="m 0,0 3.559,0 c 0.378,0 0.431,-0.595 0,-0.595 l -3.793,0 c -0.253,0 -0.415,0.181 -0.415,0.397 l 0,4.945 c 0,0.208 0.162,0.388 0.415,0.388 l 3.801,0 c 0.387,0 0.37,-0.576 -0.008,-0.576 l -3.559,0 0,-2.028 3.387,0 c 0.361,0 0.378,-0.576 0,-0.576 L 0,1.955 0,0 Z" />
      </g>
      <g
         transform="matrix(1.25,0,0,-1.25,-572.09583,678.78039)"
         id="g6370">
        <path
           inkscape:connector-curvature="0"
           id="path6372"
           style="fill:#c32129;fill-opacity:1;fill-rule:nonzero;stroke:none"
           d="m 0,0 c 0,3.055 -2.477,5.533 -5.533,5.533 -3.057,0 -5.534,-2.478 -5.534,-5.533 0,-3.057 2.477,-5.535 5.534,-5.535 C -2.477,-5.535 0,-3.057 0,0" />
      </g>
      <g
         transform="matrix(1.25,0,0,-1.25,-579.78408,667.17089)"
         id="g6374">
        <path
           inkscape:connector-curvature="0"
           id="path6376"
           style="fill:#1b4923;fill-opacity:1;fill-rule:nonzero;stroke:none"
           d="m 0,0 c 0,0 -6.049,0.003 -13.577,0.003 -3.37,0 -8.245,0.079 -8.245,-5.676 l 0,-5.337 c 0,-5.06 4.875,-4.915 8.245,-4.915 l 1.585,0 5.972,0 0,7.119 c 0,4.159 3.293,6.155 6.638,6.155 4.052,0 6.637,-2.564 6.637,-6.227 l 0,-7.047 5.997,0 0,10.252 C 13.252,0.003 8.511,0 5.105,0 5.056,0 1.877,-0.001 1.829,-0.001 L 0,0 Z" />
      </g>
      <g
         transform="matrix(1.25,0,0,-1.25,-590.49708,664.73439)"
         id="g6378">
        <path
           inkscape:connector-curvature="0"
           id="path6380"
           style="fill:#2f9e50;fill-opacity:1;fill-rule:nonzero;stroke:none"
           d="m 0,0 c 0,0 6.049,-0.003 13.577,-0.003 3.37,0 8.245,-0.079 8.245,5.675 l 0,5.338 c 0,5.061 -4.875,4.915 -8.245,4.915 l -1.585,0 -5.973,0 0,-7.119 c 0,-4.159 -3.292,-6.155 -6.637,-6.155 -4.053,0 -6.637,2.563 -6.637,6.227 l 0,7.047 -5.997,0 0,-10.253 c 0,-5.675 4.741,-5.672 8.147,-5.672 0.049,0 3.227,0.001 3.276,0.001 L 0,0 Z" />
      </g>
      <g
         transform="matrix(1.25,0,0,-1.25,-598.18621,653.12339)"
         id="g6382">
        <path
           inkscape:connector-curvature="0"
           id="path6384"
           style="fill:#ef2e32;fill-opacity:1;fill-rule:nonzero;stroke:none"
           d="m 0,0 c 0,-3.055 2.478,-5.534 5.534,-5.534 3.056,0 5.533,2.479 5.533,5.534 0,3.057 -2.477,5.533 -5.533,5.533 C 2.478,5.533 0,3.057 0,0" />
      </g>
      <g
         transform="matrix(1.25,0,0,-1.25,-523.24083,653.85514)"
         id="g6386">
        <path
           inkscape:connector-curvature="0"
           id="path6388"
           style="fill:#231f20;fill-opacity:1;fill-rule:nonzero;stroke:none"
           d="m 0,0 c 0,-1.347 1.238,-2.083 2.714,-2.083 l 6.973,0 0,1.653 -5.537,0 c -0.249,0 -0.62,0.068 -0.62,0.511 l 0,1.957 5.279,0 0,1.22 -5.279,0 0,2.381 5.473,0 c 0.649,0.085 0.684,0.427 0.684,1.253 l 0,0.236 L 0,7.128 0,0 Z" />
      </g>
      <g
         transform="matrix(1.25,0,0,-1.25,-529.71058,644.94514)"
         id="g6390">
        <path
           inkscape:connector-curvature="0"
           id="path6392"
           style="fill:#231f20;fill-opacity:1;fill-rule:nonzero;stroke:none"
           d="m 0,0 -7.049,0 0,-9.211 7.049,0 c 2.729,0 3.915,0.754 3.965,3.324 0.001,0.051 0.001,2.378 0.001,2.418 C 3.927,-0.934 2.74,0 0,0 m 0.718,-6.281 c 0,-1.28 -0.567,-1.277 -1.873,-1.277 l -2.695,0 0,6.068 2.695,0 c 1.346,0 1.88,-0.032 1.88,-1.392 0,-0.119 -0.007,-3.226 -0.007,-3.399" />
      </g>
      <g
         transform="matrix(1.25,0,0,-1.25,-544.25471,646.51914)"
         id="g6394">
        <path
           inkscape:connector-curvature="0"
           id="path6396"
           style="fill:#231f20;fill-opacity:1;fill-rule:nonzero;stroke:none"
           d="m 0,0 0,-6.234 -2.581,0 c -1.162,0 -1.907,0.38 -1.907,1.737 l 0,5.773 -2.12,0 C -7.655,1.276 -7.698,0.973 -7.7,0 l 0,-4.497 c 0,-2.755 1.098,-3.471 3.631,-3.471 0.014,0 7.447,0.001 7.447,0.001 l 0,9.243 -2.287,0 C 0.045,1.276 0.001,0.973 0,0" />
      </g>
      <g
         transform="matrix(1.25,0,0,-1.25,-489.20583,654.39252)"
         id="g6398">
        <path
           inkscape:connector-curvature="0"
           id="path6400"
           style="fill:#231f20;fill-opacity:1;fill-rule:nonzero;stroke:none"
           d="m 0,0 c -1.272,0 -1.434,0.706 -1.442,1.789 l 0,2.541 c 0,1.096 0.221,1.796 1.5,1.796 l 4.621,0 c 0.444,0.159 0.425,0.573 0.425,1.432 l -6.675,0 c -2.596,0 -3.46,-1.501 -3.46,-3.888 l 0,-1.456 c 0.015,-2.381 0.842,-3.867 3.425,-3.867 l 1.094,0 4.598,0 c 0.968,0 1.078,0.259 1.09,1.067 L 5.176,0 0,0 Z" />
      </g>
      <g
         transform="matrix(1.25,0,0,-1.25,-501.03046,649.3754)"
         id="g6402">
        <path
           inkscape:connector-curvature="0"
           id="path6404"
           style="fill:#231f20;fill-opacity:1;fill-rule:nonzero;stroke:none"
           d="m 0,0 -2.654,0 c -0.673,0 -0.962,0.411 -0.962,1.014 0,0.602 0.289,1.041 0.962,1.041 l 4.89,0 c 0.47,0.067 0.612,0.27 0.655,0.7 l 0,0.789 -6.009,0 c -2.291,0 -3.755,-0.672 -3.755,-2.695 0,-1.91 0.914,-2.636 3.063,-2.636 l 0,-0.004 c 0.073,0 2.219,-0.003 2.857,-0.003 0.636,0 0.917,-0.455 0.917,-1.013 0,-0.603 -0.286,-1.207 -1.247,-1.207 l -5.424,0 c 0,-1.454 0.634,-1.653 1.267,-1.653 l 5.297,0 c 2.292,0 3.364,0.71 3.364,2.86 C 3.221,-0.655 2.323,0 0,0" />
      </g>
      <g
         transform="matrix(1.25,0,0,-1.25,-549.04071,660.64627)"
         id="g6406">
        <path
           inkscape:connector-curvature="0"
           id="path6408"
           style="fill:#231f20;fill-opacity:1;fill-rule:nonzero;stroke:none"
           d="m 0,0 c 0,0.368 0.563,0.368 0.563,0.008 l 0,-2.473 c 0,-1.444 -1.119,-2.17 -2.217,-2.17 -1.096,0 -2.216,0.726 -2.216,2.17 l 0,2.473 c 0,0.33 0.563,0.33 0.563,-0.008 l 0,-2.465 c 0,-2.17 3.307,-2.17 3.307,0 L 0,0 Z" />
      </g>
      <g
         transform="matrix(1.25,0,0,-1.25,-542.44896,660.62689)"
         id="g6410">
        <path
           inkscape:connector-curvature="0"
           id="path6412"
           style="fill:#231f20;fill-opacity:1;fill-rule:nonzero;stroke:none"
           d="m 0,0 c 0,0.315 0.572,0.33 0.572,0 l 0,-4.314 c 0,-0.375 -0.519,-0.414 -0.677,-0.151 l -2.811,3.765 0.062,-1.037 0,-2.652 c 0,-0.368 -0.573,-0.377 -0.573,0 l 0,4.307 c 0,0.375 0.423,0.435 0.609,0.157 L 0.076,-3.793 0,-2.66 0,0 Z" />
      </g>
      <g
         transform="matrix(1.25,0,0,-1.25,-540.13083,660.52452)"
         id="g6414">
        <path
           inkscape:connector-curvature="0"
           id="path6416"
           style="fill:#231f20;fill-opacity:1;fill-rule:nonzero;stroke:none"
           d="m 0,0 c 0,0.376 0.564,0.368 0.564,0 l 0,-4.493 C 0.564,-4.839 0,-4.855 0,-4.493 L 0,0 Z" />
      </g>
      <g
         transform="matrix(1.25,0,0,-1.25,-537.78921,660.77814)"
         id="g6418">
        <path
           inkscape:connector-curvature="0"
           id="path6420"
           style="fill:#231f20;fill-opacity:1;fill-rule:nonzero;stroke:none"
           d="M 0,0 C -0.144,0.322 0.376,0.534 0.525,0.209 L 2.457,-3.637 4.342,0.196 C 4.463,0.504 4.974,0.338 4.86,0 L 2.697,-4.381 C 2.591,-4.577 2.322,-4.622 2.193,-4.358 L 0,0 Z" />
      </g>
      <g
         transform="matrix(1.25,0,0,-1.25,-529.41096,665.75677)"
         id="g6422">
        <path
           inkscape:connector-curvature="0"
           id="path6424"
           style="fill:#231f20;fill-opacity:1;fill-rule:nonzero;stroke:none"
           d="m 0,0 2.967,0 c 0.315,0 0.361,-0.495 0,-0.495 l -3.164,0 c -0.21,0 -0.345,0.149 -0.345,0.331 l 0,4.124 c 0,0.174 0.135,0.324 0.345,0.324 l 3.172,0 c 0.321,0 0.307,-0.481 -0.008,-0.481 l -2.967,0 0,-1.69 2.824,0 c 0.301,0 0.314,-0.483 0,-0.483 L 0,1.63 0,0 Z" />
      </g>
      <g
         transform="matrix(1.25,0,0,-1.25,-523.09258,664.28289)"
         id="g6426">
        <path
           inkscape:connector-curvature="0"
           id="path6428"
           style="fill:#231f20;fill-opacity:1;fill-rule:nonzero;stroke:none"
           d="m 0,0 0,-1.459 c 0,-0.344 -0.55,-0.344 -0.55,-0.005 l 0,4.313 c 0,0.158 0.115,0.263 0.279,0.263 l 1.781,0 c 1.3,0 1.959,-0.737 1.959,-1.616 0,-0.758 -0.412,-1.308 -1.335,-1.465 L 3.351,-1.283 C 3.638,-1.569 3.224,-1.901 2.975,-1.646 L 1.458,0 0,0 Z m 0,0.475 1.518,0 c 0.984,0 1.413,0.458 1.397,1.021 C 2.906,2.115 2.389,2.609 1.518,2.609 L 0,2.609 0,0.475 Z" />
      </g>
      <g
         transform="matrix(1.25,0,0,-1.25,-516.44158,664.89177)"
         id="g6430">
        <path
           inkscape:connector-curvature="0"
           id="path6432"
           style="fill:#231f20;fill-opacity:1;fill-rule:nonzero;stroke:none"
           d="m 0,0 c 0.195,-0.622 1.028,-0.76 1.629,-0.76 0.639,0 1.631,0.197 1.631,0.955 0,0.654 -0.789,0.706 -1.615,0.776 -1.038,0.081 -2.15,0.179 -2.15,1.298 0,0.992 1.144,1.436 2.06,1.436 0.788,0 1.771,-0.189 2.089,-1.046 C 3.757,2.359 3.245,2.223 3.132,2.478 2.906,3.05 2.102,3.147 1.561,3.147 c -0.502,0 -1.48,-0.202 -1.48,-0.886 0,-0.653 0.752,-0.721 1.623,-0.789 1.03,-0.09 2.134,-0.143 2.134,-1.271 0,-1.148 -1.286,-1.502 -2.209,-1.502 -0.766,0 -1.937,0.262 -2.185,1.165 C -0.648,0.195 -0.062,0.308 0,0" />
      </g>
      <g
         transform="matrix(1.25,0,0,-1.25,-510.03958,660.52452)"
         id="g6434">
        <path
           inkscape:connector-curvature="0"
           id="path6436"
           style="fill:#231f20;fill-opacity:1;fill-rule:nonzero;stroke:none"
           d="m 0,0 c 0,0.376 0.564,0.368 0.564,0 l 0,-4.493 C 0.564,-4.839 0,-4.855 0,-4.493 L 0,0 Z" />
      </g>
      <g
         transform="matrix(1.25,0,0,-1.25,-507.29783,666.37577)"
         id="g6438">
        <path
           inkscape:connector-curvature="0"
           id="path6440"
           style="fill:#231f20;fill-opacity:1;fill-rule:nonzero;stroke:none"
           d="m 0,0 c -0.186,0 -0.345,0.148 -0.345,0.322 l 0,4.14 c 0,0.174 0.159,0.317 0.345,0.317 l 1.64,0 c 1.494,0 2.239,-1.195 2.239,-2.39 C 3.879,1.195 3.134,0 1.64,0 L 0,0 Z m 0.197,0.487 1.443,0 c 1.125,0 1.69,0.954 1.69,1.902 0,0.947 -0.565,1.909 -1.69,1.909 l -1.443,0 0,-3.811 z" />
      </g>
      <g
         transform="matrix(1.25,0,0,-1.25,-500.35846,664.79752)"
         id="g6442">
        <path
           inkscape:connector-curvature="0"
           id="path6444"
           style="fill:#231f20;fill-opacity:1;fill-rule:nonzero;stroke:none"
           d="M 0,0 -0.608,-1.188 C -0.743,-1.466 -1.24,-1.27 -1.104,-0.969 l 2.271,4.471 c 0.044,0.096 0.149,0.142 0.247,0.142 0.096,0 0.189,-0.046 0.241,-0.142 L 3.916,-0.947 C 4.112,-1.27 3.554,-1.457 3.413,-1.165 L 2.827,0 0,0 Z m 1.414,2.842 -1.186,-2.369 2.364,0 -1.178,2.369 z" />
      </g>
      <g
         transform="matrix(1.25,0,0,-1.25,-493.78983,666.37577)"
         id="g6446">
        <path
           inkscape:connector-curvature="0"
           id="path6448"
           style="fill:#231f20;fill-opacity:1;fill-rule:nonzero;stroke:none"
           d="m 0,0 c -0.188,0 -0.346,0.148 -0.346,0.322 l 0,4.14 c 0,0.174 0.158,0.317 0.346,0.317 l 1.639,0 c 1.495,0 2.238,-1.195 2.238,-2.39 C 3.877,1.195 3.134,0 1.639,0 L 0,0 Z m 0.197,0.487 1.442,0 c 1.127,0 1.691,0.954 1.691,1.902 0,0.947 -0.564,1.909 -1.691,1.909 l -1.442,0 0,-3.811 z" />
      </g>
      <g
         transform="matrix(1.25,0,0,-1.25,-486.66096,665.75677)"
         id="g6450">
        <path
           inkscape:connector-curvature="0"
           id="path6452"
           style="fill:#231f20;fill-opacity:1;fill-rule:nonzero;stroke:none"
           d="m 0,0 2.967,0 c 0.317,0 0.362,-0.495 0,-0.495 l -3.162,0 c -0.212,0 -0.347,0.149 -0.347,0.331 l 0,4.124 c 0,0.174 0.135,0.324 0.347,0.324 l 3.171,0 c 0.323,0 0.308,-0.481 -0.009,-0.481 l -2.967,0 0,-1.69 2.825,0 c 0.303,0 0.316,-0.483 0,-0.483 L 0,1.63 0,0 Z" />
      </g>
      <g
         transform="matrix(1.25,0,0,-1.25,-553.42583,676.64839)"
         id="g6454">
        <path
           inkscape:connector-curvature="0"
           id="path6456"
           style="fill:#231f20;fill-opacity:1;fill-rule:nonzero;stroke:none"
           d="m 0,0 c -0.18,0 -0.334,0.146 -0.334,0.312 l 0,4.012 c 0,0.168 0.154,0.307 0.334,0.307 l 1.589,0 c 1.45,0 2.17,-1.159 2.17,-2.317 C 3.759,1.157 3.039,0 1.589,0 L 0,0 Z m 0.191,0.472 1.398,0 c 1.091,0 1.639,0.925 1.639,1.842 0,0.916 -0.548,1.851 -1.639,1.851 l -1.398,0 0,-3.693 z" />
      </g>
      <g
         transform="matrix(1.25,0,0,-1.25,-547.72296,673.65677)"
         id="g6458">
        <path
           inkscape:connector-curvature="0"
           id="path6460"
           style="fill:#231f20;fill-opacity:1;fill-rule:nonzero;stroke:none"
           d="m 0,0 c 0,1.143 0.771,2.121 1.93,2.302 0.27,0.036 0.517,0.03 0.771,0 C 3.822,2.128 4.69,1.195 4.69,0 4.69,-1.514 3.598,-2.474 2.359,-2.474 1.05,-2.474 0,-1.541 0,0 m 0.546,-0.021 c 0,-1.193 0.787,-1.949 1.813,-1.949 0.984,0 1.792,0.726 1.792,1.949 0,0.938 -0.619,1.691 -1.515,1.836 -0.22,0.029 -0.43,0.029 -0.633,0 C 1.121,1.675 0.546,0.969 0.546,-0.021" />
      </g>
      <g
         transform="matrix(1.25,0,0,-1.25,-535.96033,676.04777)"
         id="g6462">
        <path
           inkscape:connector-curvature="0"
           id="path6464"
           style="fill:#231f20;fill-opacity:1;fill-rule:nonzero;stroke:none"
           d="m 0,0 2.876,0 c 0.305,0 0.348,-0.481 0,-0.481 l -3.066,0 c -0.204,0 -0.334,0.146 -0.334,0.32 l 0,3.997 c 0,0.167 0.13,0.315 0.334,0.315 l 3.073,0 c 0.313,0 0.298,-0.467 -0.007,-0.467 l -2.876,0 0,-1.64 2.737,0 c 0.292,0 0.306,-0.464 0,-0.464 L 0,1.58 0,0 Z" />
      </g>
      <g
         transform="matrix(1.25,0,0,-1.25,-530.44846,675.2124)"
         id="g6466">
        <path
           inkscape:connector-curvature="0"
           id="path6468"
           style="fill:#231f20;fill-opacity:1;fill-rule:nonzero;stroke:none"
           d="m 0,0 c 0.189,-0.604 0.997,-0.735 1.581,-0.735 0.619,0 1.578,0.189 1.578,0.925 0,0.634 -0.763,0.684 -1.564,0.75 -1.005,0.082 -2.082,0.174 -2.082,1.259 0,0.96 1.107,1.391 1.994,1.391 0.765,0 1.719,-0.182 2.025,-1.012 C 3.642,2.287 3.146,2.156 3.036,2.403 2.819,2.958 2.038,3.053 1.515,3.053 1.027,3.053 0.081,2.854 0.081,2.192 c 0,-0.633 0.727,-0.7 1.571,-0.763 1,-0.088 2.068,-0.139 2.068,-1.232 0,-1.113 -1.243,-1.454 -2.139,-1.454 -0.743,0 -1.879,0.254 -2.12,1.127 C -0.625,0.19 -0.058,0.299 0,0" />
      </g>
      <g
         transform="matrix(1.25,0,0,-1.25,-519.83721,670.85139)"
         id="g6470">
        <path
           inkscape:connector-curvature="0"
           id="path6472"
           style="fill:#231f20;fill-opacity:1;fill-rule:nonzero;stroke:none"
           d="m 0,0 c 0.357,0 0.357,-0.505 0,-0.505 l -1.624,0 c 0,-1.31 0.008,-2.642 0.008,-3.952 0,-0.181 -0.154,-0.269 -0.276,-0.269 -0.124,0 -0.264,0.088 -0.264,0.269 l 0,3.952 -1.615,0 c -0.344,0 -0.344,0.505 0,0.505 L 0,0 Z" />
      </g>
      <g
         transform="matrix(1.25,0,0,-1.25,-518.58383,675.1209)"
         id="g6474">
        <path
           inkscape:connector-curvature="0"
           id="path6476"
           style="fill:#231f20;fill-opacity:1;fill-rule:nonzero;stroke:none"
           d="m 0,0 -0.59,-1.15 c -0.132,-0.27 -0.61,-0.081 -0.482,0.211 l 2.2,4.333 c 0.044,0.094 0.146,0.138 0.241,0.138 0.095,0 0.181,-0.044 0.232,-0.138 l 2.192,-4.312 c 0.19,-0.313 -0.35,-0.495 -0.487,-0.21 L 2.738,0 0,0 Z m 1.369,2.752 -1.15,-2.293 2.293,0 -1.143,2.293 z" />
      </g>
      <g
         transform="matrix(1.25,0,0,-1.25,-511.86296,676.64839)"
         id="g6478">
        <path
           inkscape:connector-curvature="0"
           id="path6480"
           style="fill:#231f20;fill-opacity:1;fill-rule:nonzero;stroke:none"
           d="m 0,0 c -0.182,0 -0.335,0.146 -0.335,0.312 l 0,4.012 c 0,0.168 0.153,0.307 0.335,0.307 l 1.587,0 C 3.036,4.631 3.759,3.472 3.759,2.314 3.759,1.157 3.036,0 1.587,0 L 0,0 Z m 0.19,0.472 1.397,0 c 1.093,0 1.639,0.925 1.639,1.842 0,0.916 -0.546,1.851 -1.639,1.851 l -1.397,0 0,-3.693 z" />
      </g>
      <g
         transform="matrix(1.25,0,0,-1.25,-506.24133,673.65677)"
         id="g6482">
        <path
           inkscape:connector-curvature="0"
           id="path6484"
           style="fill:#231f20;fill-opacity:1;fill-rule:nonzero;stroke:none"
           d="m 0,0 c 0,1.143 0.773,2.121 1.929,2.302 0.271,0.036 0.518,0.03 0.772,0 C 3.823,2.128 4.689,1.195 4.689,0 4.689,-1.514 3.598,-2.474 2.36,-2.474 1.05,-2.474 0,-1.541 0,0 m 0.546,-0.021 c 0,-1.193 0.787,-1.949 1.814,-1.949 0.982,0 1.79,0.726 1.79,1.949 0,0.938 -0.618,1.691 -1.514,1.836 -0.219,0.029 -0.429,0.029 -0.633,0 C 1.123,1.675 0.546,0.969 0.546,-0.021" />
      </g>
      <g
         transform="matrix(1.25,0,0,-1.25,-493.59333,676.64839)"
         id="g6486">
        <path
           inkscape:connector-curvature="0"
           id="path6488"
           style="fill:#231f20;fill-opacity:1;fill-rule:nonzero;stroke:none"
           d="m 0,0 c -0.181,0 -0.334,0.146 -0.334,0.312 l 0,4.012 c 0,0.168 0.153,0.307 0.334,0.307 l 1.587,0 c 1.45,0 2.17,-1.159 2.17,-2.317 C 3.757,1.157 3.037,0 1.587,0 L 0,0 Z m 0.19,0.472 1.397,0 c 1.094,0 1.639,0.925 1.639,1.842 0,0.916 -0.545,1.851 -1.639,1.851 l -1.397,0 0,-3.693 z" />
      </g>
      <g
         transform="matrix(1.25,0,0,-1.25,-486.53433,676.04777)"
         id="g6490">
        <path
           inkscape:connector-curvature="0"
           id="path6492"
           style="fill:#231f20;fill-opacity:1;fill-rule:nonzero;stroke:none"
           d="m 0,0 2.874,0 c 0.307,0 0.35,-0.481 0,-0.481 l -3.064,0 c -0.204,0 -0.336,0.146 -0.336,0.32 l 0,3.997 c 0,0.167 0.132,0.315 0.336,0.315 l 3.071,0 c 0.315,0 0.3,-0.467 -0.007,-0.467 l -2.874,0 0,-1.64 2.736,0 c 0.29,0 0.306,-0.464 0,-0.464 L 0,1.58 0,0 Z" />
      </g>
      <g
         transform="matrix(1.25,0,0,-1.25,-553.19908,685.48552)"
         id="g6494">
        <path
           inkscape:connector-curvature="0"
           id="path6496"
           style="fill:#231f20;fill-opacity:1;fill-rule:nonzero;stroke:none"
           d="m 0,0 c 0.189,-0.603 0.997,-0.734 1.58,-0.734 0.619,0 1.579,0.186 1.579,0.925 0,0.632 -0.763,0.682 -1.565,0.748 C 0.59,1.02 -0.488,1.114 -0.488,2.2 c 0,0.961 1.108,1.39 1.995,1.39 0.764,0 1.718,-0.182 2.024,-1.013 C 3.641,2.286 3.145,2.156 3.036,2.404 2.818,2.957 2.038,3.052 1.514,3.052 1.027,3.052 0.08,2.854 0.08,2.194 0.08,1.559 0.808,1.493 1.652,1.427 2.65,1.34 3.72,1.289 3.72,0.196 3.72,-0.917 2.476,-1.26 1.58,-1.26 c -0.743,0 -1.879,0.256 -2.119,1.13 C -0.627,0.191 -0.058,0.297 0,0" />
      </g>
      <g
         transform="matrix(1.25,0,0,-1.25,-547.46333,685.39414)"
         id="g6498">
        <path
           inkscape:connector-curvature="0"
           id="path6500"
           style="fill:#231f20;fill-opacity:1;fill-rule:nonzero;stroke:none"
           d="M 0,0 -0.59,-1.151 C -0.721,-1.42 -1.2,-1.23 -1.07,-0.94 l 2.199,4.334 c 0.043,0.095 0.145,0.138 0.241,0.138 0.094,0 0.181,-0.043 0.232,-0.138 L 3.794,-0.917 C 3.983,-1.23 3.444,-1.412 3.306,-1.128 L 2.738,0 0,0 Z m 1.37,2.753 -1.151,-2.295 2.293,0 -1.142,2.295 z" />
      </g>
      <g
         transform="matrix(1.25,0,0,-1.25,-537.90458,681.35277)"
         id="g6502">
        <path
           inkscape:connector-curvature="0"
           id="path6504"
           style="fill:#231f20;fill-opacity:1;fill-rule:nonzero;stroke:none"
           d="m 0,0 c 0,0.305 0.553,0.32 0.553,0 l 0,-4.18 c 0,-0.364 -0.502,-0.402 -0.655,-0.145 l -2.723,3.647 0.057,-1.004 0,-2.571 c 0,-0.355 -0.552,-0.362 -0.552,0 l 0,4.173 c 0,0.364 0.407,0.421 0.588,0.153 L 0.073,-3.677 0,-2.577 0,0 Z" />
      </g>
      <g
         transform="matrix(1.25,0,0,-1.25,-531.63021,681.12402)"
         id="g6506">
        <path
           inkscape:connector-curvature="0"
           id="path6508"
           style="fill:#231f20;fill-opacity:1;fill-rule:nonzero;stroke:none"
           d="m 0,0 c 0.355,0 0.355,-0.504 0,-0.504 l -1.626,0 c 0,-1.31 0.009,-2.642 0.009,-3.953 0,-0.183 -0.154,-0.269 -0.276,-0.269 -0.126,0 -0.263,0.086 -0.263,0.269 l 0,3.953 -1.616,0 c -0.342,0 -0.342,0.504 0,0.504 L 0,0 Z" />
      </g>
      <g
         transform="matrix(1.25,0,0,-1.25,-530.90471,685.39414)"
         id="g6510">
        <path
           inkscape:connector-curvature="0"
           id="path6512"
           style="fill:#231f20;fill-opacity:1;fill-rule:nonzero;stroke:none"
           d="M 0,0 -0.59,-1.151 C -0.721,-1.42 -1.201,-1.23 -1.07,-0.94 l 2.199,4.334 c 0.043,0.095 0.145,0.138 0.24,0.138 0.094,0 0.182,-0.043 0.233,-0.138 L 3.794,-0.917 C 3.983,-1.23 3.444,-1.412 3.305,-1.128 L 2.737,0 0,0 Z m 1.369,2.753 -1.152,-2.295 2.294,0 -1.142,2.295 z" />
      </g>
      <g
         transform="matrix(1.25,0,0,-1.25,-519.17471,686.69489)"
         id="g6514">
        <path
           inkscape:connector-curvature="0"
           id="path6516"
           style="fill:#231f20;fill-opacity:1;fill-rule:nonzero;stroke:none"
           d="m 0,0 c -0.35,-0.16 -0.743,-0.263 -1.093,-0.263 -1.245,0 -2.367,1.02 -2.367,2.461 0,1.194 0.852,2.142 1.974,2.316 C -0.635,4.63 0.109,4.42 0.684,3.815 0.902,3.567 0.509,3.27 0.305,3.488 -0.189,4.012 -0.765,4.092 -1.406,4.02 -2.301,3.88 -2.935,3.248 -2.935,2.193 c 0,-1.108 0.852,-1.954 1.856,-1.954 0.27,0 0.568,0.073 0.846,0.211 0.224,0.116 0.444,0.292 0.596,0.489 C 0.53,1.186 0.975,0.916 0.785,0.648 0.589,0.37 0.312,0.152 0,0" />
      </g>
      <g
         transform="matrix(1.25,0,0,-1.25,-516.56821,685.39414)"
         id="g6518">
        <path
           inkscape:connector-curvature="0"
           id="path6520"
           style="fill:#231f20;fill-opacity:1;fill-rule:nonzero;stroke:none"
           d="M 0,0 -0.59,-1.151 C -0.721,-1.42 -1.2,-1.23 -1.071,-0.94 l 2.199,4.334 c 0.044,0.095 0.146,0.138 0.242,0.138 0.092,0 0.181,-0.043 0.232,-0.138 L 3.794,-0.917 C 3.981,-1.23 3.444,-1.412 3.305,-1.128 L 2.739,0 0,0 Z m 1.37,2.753 -1.152,-2.295 2.294,0 -1.142,2.295 z" />
      </g>
      <g
         transform="matrix(1.25,0,0,-1.25,-507.70071,681.12402)"
         id="g6522">
        <path
           inkscape:connector-curvature="0"
           id="path6524"
           style="fill:#231f20;fill-opacity:1;fill-rule:nonzero;stroke:none"
           d="m 0,0 c 0.356,0 0.356,-0.504 0,-0.504 l -1.625,0 c 0,-1.31 0.009,-2.642 0.009,-3.953 0,-0.183 -0.153,-0.269 -0.277,-0.269 -0.122,0 -0.262,0.086 -0.262,0.269 l 0,3.953 -1.617,0 c -0.341,0 -0.341,0.504 0,0.504 L 0,0 Z" />
      </g>
      <g
         transform="matrix(1.25,0,0,-1.25,-506.97383,685.39414)"
         id="g6526">
        <path
           inkscape:connector-curvature="0"
           id="path6528"
           style="fill:#231f20;fill-opacity:1;fill-rule:nonzero;stroke:none"
           d="M 0,0 -0.59,-1.151 C -0.721,-1.42 -1.201,-1.23 -1.07,-0.94 l 2.198,4.334 c 0.044,0.095 0.147,0.138 0.241,0.138 0.094,0 0.181,-0.043 0.234,-0.138 L 3.794,-0.917 C 3.983,-1.23 3.444,-1.412 3.306,-1.128 L 2.737,0 0,0 Z m 1.369,2.753 -1.15,-2.295 2.294,0 -1.144,2.295 z" />
      </g>
      <g
         transform="matrix(1.25,0,0,-1.25,-500.87946,684.89264)"
         id="g6530">
        <path
           inkscape:connector-curvature="0"
           id="path6532"
           style="fill:#231f20;fill-opacity:1;fill-rule:nonzero;stroke:none"
           d="M 0,0 0,-1.414 C 0,-1.75 -0.533,-1.75 -0.533,-1.421 l 0,4.18 c 0,0.153 0.11,0.256 0.269,0.256 l 1.727,0 c 1.26,0 1.9,-0.715 1.9,-1.567 0,-0.734 -0.4,-1.266 -1.295,-1.421 l 1.18,-1.273 C 3.523,-1.523 3.123,-1.843 2.883,-1.596 L 1.412,0 0,0 Z m 0,0.458 1.471,0 c 0.953,0 1.369,0.443 1.353,0.99 C 2.818,2.046 2.315,2.525 1.471,2.525 L 0,2.525 0,0.458 Z" />
      </g>
      <g
         transform="matrix(1.25,0,0,-1.25,-495.78383,681.25252)"
         id="g6534">
        <path
           inkscape:connector-curvature="0"
           id="path6536"
           style="fill:#231f20;fill-opacity:1;fill-rule:nonzero;stroke:none"
           d="m 0,0 c 0,0.364 0.545,0.357 0.545,0 l 0,-4.354 C 0.545,-4.688 0,-4.703 0,-4.354 L 0,0 Z" />
      </g>
      <g
         transform="matrix(1.25,0,0,-1.25,-489.74171,681.35277)"
         id="g6538">
        <path
           inkscape:connector-curvature="0"
           id="path6540"
           style="fill:#231f20;fill-opacity:1;fill-rule:nonzero;stroke:none"
           d="m 0,0 c 0,0.305 0.553,0.32 0.553,0 l 0,-4.18 c 0,-0.364 -0.505,-0.402 -0.657,-0.145 l -2.723,3.647 0.06,-1.004 0,-2.571 c 0,-0.355 -0.555,-0.362 -0.555,0 l 0,4.173 c 0,0.364 0.408,0.421 0.589,0.153 L 0.072,-3.677 0,-2.577 0,0 Z" />
      </g>
      <g
         transform="matrix(1.25,0,0,-1.25,-487.42483,685.39414)"
         id="g6542">
        <path
           inkscape:connector-curvature="0"
           id="path6544"
           style="fill:#231f20;fill-opacity:1;fill-rule:nonzero;stroke:none"
           d="M 0,0 -0.589,-1.151 C -0.721,-1.42 -1.202,-1.23 -1.069,-0.94 l 2.198,4.334 c 0.043,0.095 0.147,0.138 0.238,0.138 0.098,0 0.184,-0.043 0.235,-0.138 L 3.794,-0.917 C 3.983,-1.23 3.444,-1.412 3.307,-1.128 L 2.74,0 0,0 Z m 1.367,2.753 -1.148,-2.295 2.294,0 -1.146,2.295 z" />
      </g>
      <g
         transform="matrix(1.25,0,0,-1.25,-465.49883,687.60439)"
         id="g6546">
        <path
           inkscape:connector-curvature="0"
           id="path6548"
           style="fill:#231f20;fill-opacity:1;fill-rule:nonzero;stroke:none"
           d="m 0,0 c -0.233,0 -0.422,0.189 -0.422,0.422 l 0,33.892 c 0,0.233 0.189,0.422 0.422,0.422 0.233,0 0.422,-0.189 0.422,-0.422 l 0,-33.892 C 0.422,0.189 0.233,0 0,0" />
      </g>
    </g>
  </g>
</svg>
