<svg version="1.1" xmlns="http://www.w3.org/2000/svg" xmlns:xlink="http://www.w3.org/1999/xlink" viewBox="0 0 128 128"><g><path fill="#8f8f8f" d="M128.145,47.954V24.681c0-1.926-1.562-3.49-3.491-3.49H48.932c0,0-1.563-8.146-3.491-8.146H3.491C1.563,13.045,0,14.608,0,16.536v8.145v2.328v20.945"></path><path opacity="0.33" d="M128.145,47.954V24.681c0-1.926-1.562-3.49-3.491-3.49H48.932c0,0-1.563-8.146-3.491-8.146H3.491C1.563,13.045,0,14.608,0,16.536v8.145v2.328v20.945"></path><path fill="#8f8f8f" d="M120,32.827H8.145C3.647,32.827,0,36.474,0,40.973v67.491c0,1.929,1.563,3.491,3.491,3.491h121.162c1.929,0,3.491-1.562,3.491-3.491V40.973C128.145,36.474,124.498,32.827,120,32.827z"></path></g></svg>
