<?xml version="1.0" encoding="UTF-8" standalone="no"?>
<!-- Created with Inkscape (http://www.inkscape.org/) -->

<svg
   xmlns:dc="http://purl.org/dc/elements/1.1/"
   xmlns:cc="http://creativecommons.org/ns#"
   xmlns:rdf="http://www.w3.org/1999/02/22-rdf-syntax-ns#"
   xmlns:svg="http://www.w3.org/2000/svg"
   xmlns="http://www.w3.org/2000/svg"
   xmlns:sodipodi="http://sodipodi.sourceforge.net/DTD/sodipodi-0.dtd"
   xmlns:inkscape="http://www.inkscape.org/namespaces/inkscape"
   width="1407"
   height="1552.6957"
   id="svg2"
   version="1.1"
   inkscape:version="0.48.4 r9939"
   sodipodi:docname="icon.svg">
  <defs
     id="defs4" />
  <sodipodi:namedview
     id="base"
     pagecolor="#ffffff"
     bordercolor="#666666"
     borderopacity="1.0"
     inkscape:pageopacity="0.0"
     inkscape:pageshadow="2"
     inkscape:zoom="0.061871843"
     inkscape:cx="7851.891"
     inkscape:cy="-1667.1137"
     inkscape:document-units="px"
     inkscape:current-layer="svg2"
     showgrid="false"
     inkscape:window-width="1366"
     inkscape:window-height="744"
     inkscape:window-x="0"
     inkscape:window-y="24"
     inkscape:window-maximized="1"
     fit-margin-top="0"
     fit-margin-left="0"
     fit-margin-right="0"
     fit-margin-bottom="0" />
  <metadata
     id="metadata7">
    <rdf:RDF>
      <cc:Work
         rdf:about="">
        <dc:format>image/svg+xml</dc:format>
        <dc:type
           rdf:resource="http://purl.org/dc/dcmitype/StillImage" />
        <dc:title />
      </cc:Work>
    </rdf:RDF>
  </metadata>
  <path
     style="color:#000000;fill:#000000;fill-opacity:1;stroke:none;stroke-width:1;marker:none;visibility:visible;display:inline;overflow:visible;enable-background:accumulate"
     d="m 1280,736 q 0,-14 -9,-23 L 919,361 q -9,-9 -23,-9 -14,0 -23,9 L 522,712 q -10,12 -10,24 0,14 9,23 9,9 23,9 h 224 v 352 q 0,13 9.5,22.5 9.5,9.5 22.5,9.5 h 192 q 13,0 22.5,-9.5 9.5,-9.5 9.5,-22.5 V 768 h 224 q 13,0 22.5,-9.5 9.5,-9.5 9.5,-22.5 z m 640,288 q 0,159 -112.5,271.5 Q 1695,1408 1536,1408 H 448 Q 263,1408 131.5,1276.5 0,1145 0,960 0,830 70,720 140,610 258,555 256,525 256,512 256,300 406,150 556,0 768,0 q 156,0 285.5,87 129.5,87 188.5,231 71,-62 166,-62 106,0 181,75 75,75 75,181 0,76 -41,138 130,31 213.5,135.5 Q 1920,890 1920,1024 z"
     id="rect3017"
     inkscape:connector-curvature="0" />
</svg>
