<?xml version="1.0" encoding="UTF-8" standalone="no"?>
<!-- Created with Inkscape (http://www.inkscape.org/) -->

<svg
   xmlns:dc="http://purl.org/dc/elements/1.1/"
   xmlns:cc="http://creativecommons.org/ns#"
   xmlns:rdf="http://www.w3.org/1999/02/22-rdf-syntax-ns#"
   xmlns:svg="http://www.w3.org/2000/svg"
   xmlns="http://www.w3.org/2000/svg"
   xmlns:sodipodi="http://sodipodi.sourceforge.net/DTD/sodipodi-0.dtd"
   xmlns:inkscape="http://www.inkscape.org/namespaces/inkscape"
   width="21"
   height="21"
   id="svg2"
   version="1.1"
   inkscape:version="0.48.4 r9939"
   sodipodi:docname="run.svg">
  <defs
     id="defs4" />
  <sodipodi:namedview
     id="base"
     pagecolor="#ffffff"
     bordercolor="#666666"
     borderopacity="1.0"
     inkscape:pageopacity="0.0"
     inkscape:pageshadow="2"
     inkscape:zoom="5.6"
     inkscape:cx="44.502431"
     inkscape:cy="-7.8743786"
     inkscape:document-units="px"
     inkscape:current-layer="layer1"
     showgrid="false"
     inkscape:window-width="1366"
     inkscape:window-height="744"
     inkscape:window-x="0"
     inkscape:window-y="24"
     inkscape:window-maximized="1" />
  <metadata
     id="metadata7">
    <rdf:RDF>
      <cc:Work
         rdf:about="">
        <dc:format>image/svg+xml</dc:format>
        <dc:type
           rdf:resource="http://purl.org/dc/dcmitype/StillImage" />
        <dc:title></dc:title>
      </cc:Work>
    </rdf:RDF>
  </metadata>
  <g
     inkscape:label="Camada 1"
     inkscape:groupmode="layer"
     id="layer1"
     transform="translate(0,-1031.3622)">
    <path
       style="fill:#000000"
       d="m 10.5,1032.3622 c -0.96658,0.8808 -2.40968,2.4445 -2.8125,4.9375 -0.10082,0.6241 -0.002,2.7667 0.25,4.9375 L 5,1044.2685 l 0.46875,2.875 3.09375,-1.2188 c 0.14293,0.5102 0.29553,0.9438 0.46875,1.2188 l 0.96875,0 0,-5 1,0 0,5 0.96875,0 c 0.17322,-0.275 0.32582,-0.7086 0.46875,-1.2188 l 3.09375,1.2188 0.46875,-2.875 -2.9375,-2.0313 c 0.25192,-2.1708 0.35082,-4.3134 0.25,-4.9375 -0.40282,-2.493 -1.84592,-4.0567 -2.8125,-4.9375 z m 0,4.5 c 0.59998,0 1.09375,0.473 1.09375,1.0625 0,0.5895 -0.49377,1.0938 -1.09375,1.0938 -0.59998,0 -1.09375,-0.5043 -1.09375,-1.0938 0,-0.5895 0.49377,-1.0625 1.09375,-1.0625 z m -1.40625,10.9688 c -0.15771,1.3655 0.51474,2.5684 1.3125,3.4375 l 0.09375,0.094 0.0937,-0.094 c 0.79775,-0.8691 1.47021,-2.072 1.3125,-3.4375 l -0.21875,0 c -0.10832,0.8926 -0.59869,1.621 -1.1875,2.3125 -0.58881,-0.6915 -1.07919,-1.4199 -1.1875,-2.3125 l -0.21875,0 z"
       id="path3176"
       inkscape:connector-curvature="0" />
  </g>
</svg>
