<?xml version="1.0" encoding="UTF-8"?>
<svg xmlns="http://www.w3.org/2000/svg" version="1.1" width="16" height="16" viewBox="0 0 16 16">
  <defs>
    <radialGradient id="gradient" gradientUnits="userSpaceOnUse" cx="8" cy="8" r="8">
      <stop style="stop-color:#800080" offset="0" />
      <stop style="stop-color:#660066" offset="1" />
    </radialGradient>
  </defs>
  <g>
    <path d="M 1.46875 0 C 0.66542704 5.1573368e-08 -1.9515639e-18 0.66542764 0 1.46875 L 0 14.53125 C 5.157342e-08 15.334572 0.66542683 16 1.46875 16 L 14.53125 16 C 15.334573 16 16 15.334572 16 14.53125 L 16 1.46875 C 16 0.66542788 15.334573 -2.0961242e-18 14.53125 0 L 1.46875 0 z" style="fill:url(#gradient)" />
    <path d="m 13,3.000003 c -3.83256,-0.01 -6.2915,2.1187 -8.59375,5.3125 L 0.40624996,7.218753 -3.988723e-8,7.875003 l 0,2.15625 L 2.46875,11.250003 c -0.21784,0.3545 -0.43468,0.6945 -0.65625,1.0625 l 1.875,1.906249 c 0.36815,-0.2215 0.70796,-0.43845 1.0625,-0.65625 l 1.21875,2.4375 2.15625,0 0.6875,-0.40625 -1.09375,-3.968749 c 3.1939,-2.3024 5.28998,-4.7923 5.28125,-8.625 z m -3.71875,2.40625 c 0.335464,-0.0036 0.651235,0.12015 0.90625,0.375 0.50998,0.5099 0.5418,1.39565 0.03125,1.90625 -0.51049,0.5104 -1.36513,0.47905 -1.875,-0.03125 -0.51003,-0.5099 -0.51049,-1.33315 0,-1.84375 0.25527,-0.2553 0.602036,-0.402613 0.9375,-0.40625 z M 1.375,12.812503 C 0.49093996,13.515247 0.11539896,14.575828 -3.988723e-8,15.562502 l 0,0.4375 0.62499999988723,0 C 1.564515,15.86359 2.521467,15.493752 3.1875,14.656252 l -0.125,-0.15625 c -0.66059,0.5189 -1.4712,0.70865 -2.31250004,0.78125 0.0724,-0.8413 0.23095,-1.652 0.75000004,-2.312499 l -0.125,-0.15625 z" style="fill:#ffffff" />
  </g>
</svg>
