<?xml version="1.0" encoding="UTF-8"?>
<svg xmlns="http://www.w3.org/2000/svg" version="1.1" width="128" height="128" viewBox="0 0 128 128">
  <defs>
    <radialGradient id="gradient" gradientUnits="userSpaceOnUse" cx="64" cy="64" r="49">
      <stop style="stop-color:#800080" offset="0" />
      <stop style="stop-color:#660066" offset="1" />
    </radialGradient>
  </defs>
  <g>
    <path d="m 28,10 c -4.418,0 -8,3.582 -8,8 v 92 c 0,4.418 3.582,8 8,8 h 72 c 4.418,0 8,-3.582 8,-8 V 36 L 82,10 H 28 z" style="fill:url(#gradient)" />
    <polygon points="82,36 108,36 82,10 " style="opacity:0.4;fill:#ffffff" />
    <polygon points="108,36 82,36 108,62 " style="opacity:0.4;fill:#231f20" />
    <path d="M 91.999867,46.00015 C 72.289567,45.95395 59.514985,56.80023 47.674815,73.22577 L 27.199927,67.60087 20,79.6003 37.699954,88.45037 c -1.120333,1.82287 -2.235575,3.58183 -3.375094,5.47493 l 9.750195,9.7496 c 1.89333,-1.1388 3.65183,-2.2543 5.47519,-3.3738 L 58.399915,118 70.399847,110.8 64.774777,90.32571 c 16.4258,-11.84013 27.26994,-24.61505 27.22509,-44.32556 z m -14.47446,14.32601 c 2.62271,2.62265 2.70026,7.04981 0.0746,9.67485 -2.62536,2.62547 -7.05294,2.54752 -9.67514,-0.0761 -2.62298,-2.62291 -2.55074,-6.89971 0.0746,-9.52526 2.62565,-2.62593 6.90229,-2.69793 9.52531,-0.0771 z M 32.075364,96.4763 c -5.16935,4.1094 -7.001113,10.4924 -7.274604,16.1246 l -3.51e-4,0.5992 0.60003,0 c 5.631755,-0.271 12.014699,-2.1049 16.125077,-7.2741 l -0.749685,-0.7501 c -3.397294,2.6692 -7.523843,3.5272 -11.850551,3.9 0.37224,-4.3268 1.230946,-8.4538 3.900324,-11.85 l -0.75024,-0.7496 z" style="fill:#ffffff" />
  </g>
</svg>
