<?xml version="1.0" encoding="UTF-8" standalone="no"?>
<!-- Created with Inkscape (http://www.inkscape.org/) -->

<svg
   xmlns:dc="http://purl.org/dc/elements/1.1/"
   xmlns:cc="http://creativecommons.org/ns#"
   xmlns:rdf="http://www.w3.org/1999/02/22-rdf-syntax-ns#"
   xmlns:svg="http://www.w3.org/2000/svg"
   xmlns="http://www.w3.org/2000/svg"
   xmlns:sodipodi="http://sodipodi.sourceforge.net/DTD/sodipodi-0.dtd"
   xmlns:inkscape="http://www.inkscape.org/namespaces/inkscape"
   width="28"
   height="28.000004"
   id="svg3246"
   version="1.1"
   inkscape:version="0.48.4 r9939"
   sodipodi:docname="gotoline.svg">
  <defs
     id="defs3248" />
  <sodipodi:namedview
     id="base"
     pagecolor="#ffffff"
     bordercolor="#666666"
     borderopacity="1.0"
     inkscape:pageopacity="0.0"
     inkscape:pageshadow="2"
     inkscape:zoom="11.313708"
     inkscape:cx="15.278583"
     inkscape:cy="11.071128"
     inkscape:document-units="px"
     inkscape:current-layer="layer1"
     showgrid="false"
     fit-margin-top="0"
     fit-margin-left="0"
     fit-margin-right="0"
     fit-margin-bottom="0"
     inkscape:window-width="1366"
     inkscape:window-height="744"
     inkscape:window-x="0"
     inkscape:window-y="24"
     inkscape:window-maximized="1"
     showguides="true"
     inkscape:guide-bbox="true" />
  <metadata
     id="metadata3251">
    <rdf:RDF>
      <cc:Work
         rdf:about="">
        <dc:format>image/svg+xml</dc:format>
        <dc:type
           rdf:resource="http://purl.org/dc/dcmitype/StillImage" />
        <dc:title />
      </cc:Work>
    </rdf:RDF>
  </metadata>
  <g
     inkscape:label="Camada 1"
     inkscape:groupmode="layer"
     id="layer1"
     transform="translate(-321.55359,-466.61219)">
    <g
       id="g3237">
      <rect
         y="467.61218"
         x="295.55359"
         height="25"
         width="21"
         id="rect3203"
         style="fill:#000000;fill-opacity:1;stroke:none" />
      <rect
         y="468.61218"
         x="296.55359"
         height="23"
         width="19"
         id="rect3211"
         style="fill:#ffffff;fill-opacity:1;stroke:none" />
      <rect
         y="467.61218"
         x="310.55359"
         height="6"
         width="6"
         id="rect3209"
         style="fill:#000000;fill-opacity:1;stroke:none" />
      <rect
         style="fill:#ffffff;fill-opacity:1;stroke:none"
         id="rect3207"
         width="4"
         height="4"
         x="311.55359"
         y="468.61218" />
      <rect
         y="467.61218"
         x="312.55359"
         height="4"
         width="4"
         id="rect3205"
         style="fill:#ffffff;fill-opacity:1;stroke:none" />
      <rect
         style="fill:#000000;fill-opacity:1;stroke:none"
         id="rect3213"
         width="1"
         height="1"
         x="312.55359"
         y="468.61218" />
      <rect
         y="470.61218"
         x="314.55359"
         height="1"
         width="1"
         id="rect3215"
         style="fill:#000000;fill-opacity:1;stroke:none" />
      <rect
         style="fill:#000000;fill-opacity:1;stroke:none"
         id="rect3217"
         width="1"
         height="1"
         x="313.55359"
         y="469.61218" />
    </g>
    <g
       id="g3527"
       transform="translate(-13.571428,-5.5357142)">
      <rect
         y="519.12109"
         x="331.04465"
         height="1.6964285"
         width="12.142858"
         id="rect3507"
         style="fill:#000080;fill-opacity:1;stroke:none" />
      <rect
         transform="matrix(0,1,-1,0,0,0)"
         style="fill:#000080;fill-opacity:1;stroke:none"
         id="rect3509"
         width="17.589287"
         height="1.6964285"
         x="520.77289"
         y="-332.69644" />
      <rect
         style="fill:#000080;fill-opacity:1;stroke:none"
         id="rect3511"
         width="14.107143"
         height="1.6964285"
         x="332.65179"
         y="536.62109" />
      <rect
         transform="matrix(0,-1,1,0,0,0)"
         y="345.01785"
         x="-536.57648"
         height="1.6964285"
         width="14.017858"
         id="rect3513"
         style="fill:#000080;fill-opacity:1;stroke:none" />
      <rect
         style="fill:#ffff00;fill-opacity:1;stroke:none"
         id="rect3515"
         width="3.3928576"
         height="3.4821429"
         x="-522.46936"
         y="343.23215"
         transform="matrix(0,-1,1,0,0,0)" />
      <rect
         y="522.60321"
         x="341.58035"
         height="1.6964285"
         width="3.4821434"
         id="rect3517"
         style="fill:#000080;fill-opacity:1;stroke:none" />
      <rect
         style="fill:#000080;fill-opacity:1;stroke:none"
         id="rect3519"
         width="1.5178577"
         height="1.6964285"
         x="341.58035"
         y="520.9068" />
      <rect
         style="fill:#000080;fill-opacity:1;stroke:none"
         id="rect3521"
         width="8.6607151"
         height="1.6964285"
         x="334.52679"
         y="526.08533" />
      <rect
         y="529.56744"
         x="334.52679"
         height="1.6964285"
         width="8.6607151"
         id="rect3523"
         style="fill:#000080;fill-opacity:1;stroke:none" />
      <rect
         style="fill:#000080;fill-opacity:1;stroke:none"
         id="rect3525"
         width="8.6607151"
         height="1.6964285"
         x="334.70535"
         y="533.13885" />
    </g>
    <g
       id="g3269">
      <rect
         style="fill:#000000;fill-opacity:1;stroke:none"
         id="rect3263"
         width="23"
         height="27"
         x="266.55359"
         y="466.61218" />
      <rect
         y="467.61218"
         x="267.55359"
         height="25"
         width="21"
         id="rect3265"
         style="fill:#b2dbc5;fill-opacity:1;stroke:none" />
      <rect
         style="fill:#353c91;fill-opacity:1;stroke:none"
         id="rect3267"
         width="22"
         height="6"
         x="266.55359"
         y="481.61218" />
      <rect
         y="483.61218"
         x="262.55359"
         height="3"
         width="3"
         id="rect3247"
         style="fill:#000000;fill-opacity:1;stroke:none" />
      <rect
         style="fill:#000000;fill-opacity:1;stroke:none"
         id="rect3249"
         width="1"
         height="5"
         x="262.55359"
         y="482.61218" />
      <rect
         style="fill:#000000;fill-opacity:1;stroke:none"
         id="rect3251"
         width="4"
         height="1"
         x="262.55359"
         y="484.61221" />
      <rect
         y="470.61218"
         x="269.55359"
         height="1"
         width="16"
         id="rect3253"
         style="fill:#000000;fill-opacity:1;stroke:none" />
      <rect
         style="fill:#000000;fill-opacity:1;stroke:none"
         id="rect3255"
         width="16"
         height="1"
         x="269.55359"
         y="475.61218" />
      <rect
         y="479.61218"
         x="269.55359"
         height="1"
         width="16"
         id="rect3257"
         style="fill:#000000;fill-opacity:1;stroke:none" />
      <rect
         style="fill:#000000;fill-opacity:1;stroke:none"
         id="rect3259"
         width="16"
         height="1"
         x="269.55359"
         y="484.61218" />
      <rect
         y="488.61218"
         x="269.55359"
         height="1"
         width="16"
         id="rect3261"
         style="fill:#000000;fill-opacity:1;stroke:none" />
    </g>
    <g
       transform="translate(30.688375,6.1760333)"
       id="g3308">
      <rect
         transform="matrix(0,-1,1,0,0,0)"
         y="330.55359"
         x="-486.61218"
         height="15"
         width="19"
         id="rect3310"
         style="fill:#ffff00;fill-opacity:1;stroke:none" />
      <rect
         style="fill:#000080;fill-opacity:1;stroke:none"
         id="rect3312"
         width="4"
         height="4"
         x="-470.61218"
         y="342.55359"
         transform="matrix(0,-1,1,0,0,0)" />
      <path
         sodipodi:nodetypes="cccc"
         inkscape:connector-curvature="0"
         id="path3314"
         d="m -466.61218,342.55359 0,4 -4,0 z"
         style="fill:#ffff00;fill-opacity:1;stroke:none"
         transform="matrix(0,-1,1,0,0,0)" />
      <rect
         y="466.61218"
         x="329.55359"
         height="1.0000011"
         width="13"
         id="rect3316"
         style="fill:#000080;fill-opacity:1;stroke:none" />
      <rect
         style="fill:#000080;fill-opacity:1;stroke:none"
         id="rect3318"
         width="16"
         height="1"
         x="330.55359"
         y="486.61218" />
      <rect
         y="470.61218"
         x="341.55359"
         height="1"
         width="4"
         id="rect3320"
         style="fill:#000080;fill-opacity:1;stroke:none" />
      <rect
         style="fill:#000080;fill-opacity:1;stroke:none"
         id="rect3322"
         width="1"
         height="3"
         x="341.55359"
         y="467.61218" />
      <rect
         style="fill:#000080;fill-opacity:1;stroke:none"
         id="rect3324"
         width="9"
         height="1"
         x="333.55359"
         y="474.61218" />
      <rect
         y="478.61218"
         x="333.55359"
         height="1"
         width="9"
         id="rect3326"
         style="fill:#000080;fill-opacity:1;stroke:none" />
      <rect
         style="fill:#000080;fill-opacity:1;stroke:none"
         id="rect3328"
         width="9"
         height="1"
         x="333.55359"
         y="482.61218" />
      <rect
         transform="matrix(0,1,-1,0,0,0)"
         style="fill:#000080;fill-opacity:1;stroke:none"
         id="rect3330"
         width="20"
         height="1"
         x="467.61218"
         y="-330.55359" />
      <rect
         transform="matrix(0,-1,1,0,0,0)"
         y="345.55359"
         x="-486.61218"
         height="1"
         width="16"
         id="rect3332"
         style="fill:#000080;fill-opacity:1;stroke:none" />
    </g>
    <path
       style="fill:#000000;fill-opacity:1;stroke:none"
       d="m 358.55359,428.61219 0,2 0,24 2,0 20,0 0,-2 0,-19 -5,-5 -17,0 z m 2,2 13,0 1,0 0,4 0,1 1,0 0,-1 3,0 0,1 0,12 -1,0 0,3 1,0 0,2 -4,0 0,-2 1,0 0,-1 -1,0 0,-1 1,0 0,-1 -2,0 0,1 0,4 -13,0 0,-18 0,-4 z m 15,18 0,1 1,0 0,-1 -1,0 z m 0,-13 0,1 -1,0 0,1 1,0 0,1 1,0 0,-3 -1,0 z m 0,3 -2,0 0,1 2,0 0,-1 z m -1,-2 0,-1 -1,0 0,1 1,0 z m -13,-2 0,1 0,4 1,0 0,-2 1,0 0,-1 -1,0 0,-1 1,0 0,-1 -2,0 z m 2,1 0,1 1,0 0,-1 -1,0 z m 2,-1 0,3 1,0 0,-1 1,0 0,-1 -1,0 0,-1 -1,0 z m 2,1 1,0 0,-1 -1,0 0,1 z m 3,-1 0,1 1,0 0,-1 -1,0 z m 1,1 0,1 1,0 0,-1 -1,0 z m 0,1 -1,0 0,1 1,0 0,-1 z m -2.03125,-1 0,0.90625 0.96875,0 0,-0.90625 -0.96875,0 z m -0.96875,3 0,3 -3,0 0,2 3,0 0,3 2,0 0,-3 3,0 0,-2 -3,0 0,-3 -2,0 z m -5,7 0,1 1,0 0,-1 -1,0 z m 0,1 -1,0 0,1 -1,0 0,1 1,0 0,2 1,0 0,-2 1,0 0,-1 -1,0 0,-1 z m 2,-1 0,1 1,0 0,-1 -1,0 z m 0,2 0,3 1,0 0,-3 -1,0 z m 2,0 0,3 1,0 0,-2 1,0 0,-1 -1,0 -1,0 z m 2,1 0,2 1,0 0,-2 -1,0 z m 1,0 1,0 0,-1 -1,0 0,1 z m 1,0 0,2 1,0 0,-2 -1,0 z"
       id="rect3286"
       inkscape:connector-curvature="0" />
    <rect
       y="452.76465"
       x="317.61951"
       height="3"
       width="3"
       id="rect3712"
       style="fill:#000000;fill-opacity:1;stroke:none" />
    <rect
       style="fill:#000000;fill-opacity:1;stroke:none"
       id="rect3714"
       width="1"
       height="5"
       x="317.61951"
       y="451.76465" />
    <rect
       style="fill:#000000;fill-opacity:1;stroke:none"
       id="rect3716"
       width="4"
       height="1"
       x="317.61951"
       y="453.76468" />
    <g
       id="g3739">
      <rect
         y="435.76465"
         x="321.61951"
         height="27"
         width="23"
         id="rect3706"
         style="fill:#000000;fill-opacity:1;stroke:none" />
      <rect
         style="fill:#b2dbc5;fill-opacity:1;stroke:none"
         id="rect3708"
         width="21"
         height="25"
         x="322.61951"
         y="436.76465" />
      <rect
         y="450.76465"
         x="321.61951"
         height="6"
         width="22"
         id="rect3710"
         style="fill:#353c91;fill-opacity:1;stroke:none" />
      <rect
         style="fill:#000000;fill-opacity:1;stroke:none"
         id="rect3718"
         width="16"
         height="1"
         x="324.61951"
         y="439.76465" />
      <rect
         y="444.76465"
         x="324.61951"
         height="1"
         width="16"
         id="rect3720"
         style="fill:#000000;fill-opacity:1;stroke:none" />
      <rect
         style="fill:#000000;fill-opacity:1;stroke:none"
         id="rect3722"
         width="16"
         height="1"
         x="324.61951"
         y="448.76465" />
      <rect
         y="453.76465"
         x="324.61951"
         height="1"
         width="16"
         id="rect3724"
         style="fill:#000000;fill-opacity:1;stroke:none" />
      <rect
         style="fill:#000000;fill-opacity:1;stroke:none"
         id="rect3726"
         width="16"
         height="1"
         x="324.61951"
         y="457.76465" />
    </g>
    <path
       style="fill:#000000;fill-opacity:1;stroke:none"
       d="m 278.42859,415.98719 0,2 32,0 0,-2 -32,0 z m 0,8 0,2 32,0 0,-2 -32,0 z m 0,8 0,2 32,0 0,-2 -32,0 z m 0,6 0,2 32,0 0,-2 -32,0 z m -14,4 0,10 8,-5 -8,-5 z m 10,2 0,6 38,0 0,-6 -38,0 z m 4,2 32,0 0,2 -32,0 0,-2 z m 0,6 0,2 32,0 0,-2 -32,0 z m 0,6 0,2 32,0 0,-2 -32,0 z"
       id="rect3765"
       inkscape:connector-curvature="0" />
    <g
       transform="translate(15.75,27.125)"
       id="g3070">
      <rect
         y="489.61218"
         x="330.55359"
         height="1"
         width="16"
         id="rect3072"
         style="fill:#000000;fill-opacity:1;stroke:none" />
      <rect
         y="485.61218"
         x="328.55359"
         height="3"
         width="19"
         id="rect3074"
         style="fill:#000000;fill-opacity:1;stroke:none" />
      <rect
         style="fill:#ffffff;fill-opacity:1;stroke:none"
         id="rect3076"
         width="16"
         height="1"
         x="330.55359"
         y="486.61218" />
      <rect
         y="482.61218"
         x="330.55359"
         height="1"
         width="16"
         id="rect3078"
         style="fill:#000000;fill-opacity:1;stroke:none" />
      <rect
         style="fill:#000000;fill-opacity:1;stroke:none"
         id="rect3080"
         width="16"
         height="1"
         x="330.55359"
         y="479.61218" />
      <rect
         y="475.61218"
         x="330.55359"
         height="1"
         width="16"
         id="rect3082"
         style="fill:#000000;fill-opacity:1;stroke:none" />
      <rect
         style="fill:#000000;fill-opacity:1;stroke:none"
         id="rect3084"
         width="16"
         height="1"
         x="330.55359"
         y="471.61218" />
      <rect
         y="484.61218"
         x="323.55359"
         height="5"
         width="4"
         id="rect3086"
         style="fill:#000000;fill-opacity:1;stroke:none" />
      <path
         sodipodi:nodetypes="cccc"
         inkscape:connector-curvature="0"
         id="path3088"
         d="m 323.55359,484.61219 4,0 0,2.5 z"
         style="fill:#ffff00;fill-opacity:1;stroke:none" />
      <path
         style="fill:#ffff00;fill-opacity:1;stroke:none"
         d="m 323.55359,489.61219 4,0 0,-2.5 z"
         id="path3090"
         inkscape:connector-curvature="0"
         sodipodi:nodetypes="cccc" />
    </g>
    <path
       style="fill:#000000;fill-opacity:1;stroke:none"
       d="M 8 1 L 8 3 L 26 3 L 26 1 L 8 1 z M 8 5 L 8 7 L 26 7 L 26 5 L 8 5 z M 8 9 L 8 11 L 26 11 L 26 9 L 8 9 z M 8 13 L 8 15 L 26 15 L 26 13 L 8 13 z M 1 15 L 1 21 L 5 18 L 1 15 z M 6 16 L 6 20 L 27 20 L 27 16 L 6 16 z M 8.03125 17 L 26.03125 17 L 26.03125 19 L 8.03125 19 L 8.03125 17 z M 8 21 L 8 23 L 26 23 L 26 21 L 8 21 z M 8 25 L 8 27 L 26 27 L 26 25 L 8 25 z "
       id="rect3815"
       transform="translate(321.55359,466.61219)" />
    <g
       transform="translate(-39.124999,30.250009)"
       id="g3254">
      <rect
         y="483.61218"
         x="327.55359"
         height="4"
         width="21"
         id="rect3256"
         style="fill:#000000;fill-opacity:1;stroke:none" />
      <rect
         style="fill:#ffffff;fill-opacity:1;stroke:none"
         id="rect3258"
         width="18"
         height="2"
         x="329.59216"
         y="484.61218" />
      <rect
         y="482.61218"
         x="322.55359"
         height="6"
         width="4"
         id="rect3260"
         style="fill:#000000;fill-opacity:1;stroke:none" />
      <g
         id="g3262"
         transform="matrix(1,0,0,1.2,0,-97.722429)">
        <path
           style="fill:#ffff00;fill-opacity:1;stroke:none"
           d="m 322.55359,483.6122 4,0 0,2.5 z"
           id="path3264"
           inkscape:connector-curvature="0"
           sodipodi:nodetypes="cccc" />
        <path
           sodipodi:nodetypes="cccc"
           inkscape:connector-curvature="0"
           id="path3266"
           d="m 322.55359,488.6122 4,0 0,-2.5 z"
           style="fill:#ffff00;fill-opacity:1;stroke:none" />
      </g>
      <rect
         y="488.61218"
         x="329.55359"
         height="2"
         width="18"
         id="rect3268"
         style="fill:#000000;fill-opacity:1;stroke:none" />
      <rect
         style="fill:#000000;fill-opacity:1;stroke:none"
         id="rect3270"
         width="18"
         height="2"
         x="329.55359"
         y="492.61218" />
      <rect
         style="fill:#000000;fill-opacity:1;stroke:none"
         id="rect3272"
         width="18"
         height="2"
         x="329.55359"
         y="480.61218" />
      <rect
         y="476.61218"
         x="329.55359"
         height="2"
         width="18"
         id="rect3274"
         style="fill:#000000;fill-opacity:1;stroke:none" />
      <rect
         style="fill:#000000;fill-opacity:1;stroke:none"
         id="rect3276"
         width="18"
         height="2"
         x="329.55359"
         y="472.61218" />
      <rect
         y="468.61218"
         x="329.55359"
         height="2"
         width="18"
         id="rect3278"
         style="fill:#000000;fill-opacity:1;stroke:none" />
    </g>
  </g>
</svg>
